<?xml version="1.0" encoding="UTF-8"?>
<svg width="341px" height="250px" viewBox="0 0 341 250" version="1.1" xmlns="http://www.w3.org/2000/svg" xmlns:xlink="http://www.w3.org/1999/xlink">
    <!-- Generator: Sketch 44.1 (41455) - http://www.bohemiancoding.com/sketch -->
    <title>logo-location</title>
    <desc>Created with Sketch.</desc>
    <defs>
        <polygon id="path-1" points="0 19.8965871 0 0.222480472 28.2428334 0.222480472 28.2428334 19.8965871"></polygon>
    </defs>
    <g id="Page-1" stroke="none" stroke-width="1" fill="none" fill-rule="evenodd">
        <g id="Desktop-HD" transform="translate(-216.000000, -7553.000000)">
            <g id="Location" transform="translate(-197.000000, 7489.000000)">
                <g id="logo-location" transform="translate(413.000000, 64.000000)">
                    <g id="Page-1" transform="translate(166.000000, 95.000000) scale(-1, 1) translate(-166.000000, -95.000000) translate(44.000000, 0.000000)">
                        <path d="M203.539604,163.531869 C199.387085,170.905679 201.797715,180.962107 195.239085,187.266036 C192.290752,187.397226 188.673678,187.397226 187.469493,184.716869 C184.387863,186.863417 178.364678,191.81925 176.622789,184.716869 C174.747604,186.191631 175.418604,190.882821 171.401641,189.274607 C162.427863,185.653298 162.563419,176.806988 160.557196,168.62794 C156.135826,166.884012 151.047974,166.884012 146.360011,166.081036 L100.698122,167.956155 C92.1264926,165.811869 82.2173815,166.617107 72.4438259,167.286631 C67.3514556,173.855202 69.8976407,184.045083 61.4615667,188.602821 C59.050937,188.202464 56.6380481,187.799845 55.0317148,185.388655 C52.0879,186.59425 49.6750111,189.40806 46.057937,189.274607 C42.7097148,179.756512 38.8260481,191.81925 32.5340111,187.933298 C27.7104926,181.90306 28.7836407,175.87056 26.7751593,168.62794 L0.990233333,166.22806 C5.67593704,166.497226 22.7604556,166.34794 27.4461593,164.739726 C26.9084556,158.707226 27.5794556,153.075083 32.5340111,149.322583 C36.2843815,148.383893 38.4261593,150.797345 40.9700852,152.539012 C45.1180852,151.602583 51.6834926,144.629131 54.4985296,152.539012 C57.4446037,150.661631 58.3821963,143.020917 63.4677889,146.773417 C68.6934556,151.333417 74.4523074,156.829845 73.1103074,164.739726 C82.7528259,165.008893 93.1973815,167.153179 102.035604,165.40925 L103.910789,162.862345 C91.1889,158.168893 77.5316778,150.259012 70.5686407,137.121869 C65.8784185,136.988417 61.7304185,135.647107 60.9261222,130.68675 C60.6572704,127.603774 58.5132333,124.651988 60.2573815,121.702464 C54.2296778,120.363417 50.0771593,114.464369 44.8537519,111.381393 C33.6071593,109.234845 21.9516407,104.007583 15.9284556,93.281631 C14.1865667,87.6494881 10.9739,79.3369881 15.9284556,73.9762738 C20.4831222,70.8910357 18.4701222,62.8477024 25.5709741,63.1146071 C33.7381963,59.0929405 40.8526037,65.2679405 48.0664185,68.2106786 C49.900937,68.9571071 50.8837148,69.6854405 51.8190481,71.429369 C57.5779,56.8152024 54.3652333,37.3763929 72.4438259,28.9281786 C79.5401593,23.7009167 94.4015667,26.1121071 91.7243444,12.3054405 C94.6726778,8.14805952 97.7520481,2.91853571 102.706604,0.638535714 C109.536344,-0.567059524 114.084233,1.84639286 120.649641,3.32115476 C126.137381,8.01460714 132.298381,15.11925 130.2899,21.9569881 C132.429419,25.9786548 137.252937,23.1625833 139.932419,25.7094881 C149.303826,37.5098452 155.869233,51.719131 156.669011,67.5411548 C163.767604,58.8260357 173.543419,52.2574643 184.256826,56.0099643 C187.8739,57.6181786 193.095048,58.15425 194.568085,62.4450833 C198.318456,66.3332976 199.256048,70.8910357 197.780752,76.656631 C194.701381,87.1134167 189.080344,97.1698452 182.381641,105.615798 C173.14127,109.637464 162.16353,112.317821 155.33153,119.691631 C154.793826,124.651988 154.529493,129.614607 149.572678,132.564131 C145.955604,134.036631 140.867752,132.15925 138.590419,137.121869 C139.663567,141.546155 138.85927,146.909131 141.807604,150.661631 C146.360011,151.333417 155.200493,148.25044 156.669011,155.757702 C158.275344,156.560679 160.557196,156.560679 160.557196,158.974131 C162.16353,158.168893 161.761381,156.560679 161.761381,155.085917 C168.186715,144.09306 176.758344,155.488536 184.256826,147.445202 C186.665196,148.517345 189.746826,147.578655 191.355419,150.661631 C195.239085,145.701274 200.460233,148.383893 202.868604,153.208536 C202.737567,153.746869 203.137456,154.147226 203.539604,154.416393 C208.225307,152.272107 209.700604,146.506512 213.850863,142.887464 C223.493381,117.816512 208.09427,97.43675 202.335419,74.6457976 C200.326937,67.2719881 205.952493,62.0424643 210.640456,58.556869 C216.799196,57.4847262 219.072011,64.7250833 222.1559,68.2106786 C224.026567,71.5628214 224.966419,75.3175833 225.368567,79.2035357 C225.233011,89.6625833 230.989604,98.5088929 229.247715,108.832226 C231.529567,126.798536 226.706048,145.165202 218.401011,160.31544 C225.233011,159.779369 224.56653,160.851512 203.539604,163.531869" id="Fill-2" fill="#562600"></path>
                        <g id="Group-70" transform="translate(16.814815, 4.395119)">
                            <path d="M221.672819,134.60481 C223.414707,126.692667 226.232004,115.566357 224.890004,105.645643 L226.765189,105.645643 C226.496337,115.835524 225.960893,126.158857 221.672819,134.60481" id="Fill-4" fill="#562600"></path>
                            <path d="M214.978859,133.3965 C217.122896,124.414476 219.262415,111.544238 215.649859,101.756976 C218.72923,102.293048 217.789378,106.581619 218.867044,108.861619 C219.533526,117.845905 218.191526,126.02269 214.978859,133.3965" id="Fill-6" fill="#562600"></path>
                            <path d="M196.366404,156.456393 L186.055144,157.125917 C187.93033,152.434726 194.76007,148.679964 197.037404,143.586155 C210.028144,121.598179 198.108293,94.1137738 189.936552,72.7975833 C189.139033,67.5703214 188.199181,60.7325833 193.824737,57.3804405 C209.088293,61.5378214 204.269293,79.7710357 208.015144,91.566869 C212.838663,112.749607 211.765515,140.234012 196.366404,156.456393" id="Fill-8" fill="#966A43"></path>
                            <path d="M181.637163,157.798155 C181.503867,165.038512 180.295163,173.484464 177.082496,180.322202 C174.674126,179.786131 173.465422,175.762202 171.325904,174.558869 C172.396793,166.375298 177.353607,158.198512 174.54083,150.021726 C176.416015,148.413512 177.886793,145.864345 180.966163,146.803036 C184.045533,149.352202 183.379052,154.982083 181.637163,157.798155" id="Fill-10" fill="#E7D2AC"></path>
                            <path d="M164.224826,95.9922857 C155.659974,102.1605 145.479752,104.438238 137.31253,111.41169 C136.910381,106.85169 135.97053,101.355262 130.882678,99.8805 L129.545196,99.8805 C127.938863,94.6509762 133.697715,90.7627619 134.633048,85.6689524 C136.774826,74.2712143 142.13153,61.8035952 152.711641,56.1737143 C159.008196,52.9550238 168.381863,53.4910952 173.871863,58.0510952 C183.109974,71.8600238 171.590011,85.132881 164.224826,95.9922857" id="Fill-12" fill="#E7D2AC"></path>
                            <path d="M166.23263,178.44369 C165.164,178.712857 164.224148,179.246667 163.024481,178.979762 C159.140815,175.362976 161.951333,169.597381 163.024481,165.573452 C162.217926,160.746548 161.41363,154.447143 163.557667,150.022857 C165.703963,149.486786 167.441333,145.865476 169.983,148.143214 L172.667,151.361905 C172.398148,160.34619 171.191704,170.53381 166.23263,178.44369" id="Fill-14" fill="#E7D2AC"></path>
                            <path d="M165.566374,73.4682381 C161.820522,74.2712143 158.339004,75.8816905 155.255115,78.0259762 C157.399152,80.5751429 161.149522,80.1725238 162.353707,83.7915714 C161.820522,88.885381 158.86767,93.9814524 153.917633,95.9922857 C153.246633,95.9922857 152.442337,96.1257381 152.042448,95.3227619 C154.450819,92.7735952 159.945337,90.8984762 160.345226,86.3384762 C161.682707,82.4502619 156.997004,82.0476429 155.255115,79.9033571 C147.354485,80.5751429 141.460078,88.885381 136.641078,94.1149048 C137.58093,87.9466905 145.612596,84.1941905 150.167263,79.2338333 C156.194967,76.820381 161.016226,70.785619 168.783559,72.2626429 C170.252078,74.943 167.172707,74.4069286 165.566374,73.4682381" id="Fill-16" fill="#562600"></path>
                            <path d="M155.924759,182.198679 C153.114241,182.060702 152.041093,178.979988 150.699093,177.104869 C148.02187,169.459631 144.411574,157.528083 151.370093,150.690345 C152.980944,148.412607 155.122722,147.740821 157.799944,148.14344 C161.952463,159.136298 158.470944,171.739631 155.924759,182.198679" id="Fill-18" fill="#E7D2AC"></path>
                            <path d="M101.287737,161.014357 C95.4001074,153.24019 105.842404,151.229357 109.592774,146.80281 L118.028848,133.932571 C118.293181,140.234238 120.570515,145.730667 122.4457,151.36281 C127.000367,151.496262 133.561256,150.557571 137.311626,154.579238 L141.061996,159.67531 C128.204552,160.075667 114.54733,159.808762 101.287737,161.014357" id="Fill-20" fill="#966A43"></path>
                            <path d="M127.000141,94.1146786 C118.963956,89.020869 130.481659,84.0605119 131.416993,78.6975357 C134.634178,65.558131 132.225807,54.0269405 123.116474,44.5088452 C118.292956,40.3514643 111.467733,39.0124167 105.171178,40.620631 C90.1764741,47.1892024 90.045437,63.278131 89.1055852,77.3562262 L87.0971037,77.3562262 C88.3012889,66.363369 86.2928074,55.2347976 78.7920667,47.05575 C73.4376222,42.6314643 67.4121778,37.8045595 60.1780296,40.0845595 C50.5377704,43.8393214 45.1810667,54.0269405 42.770437,63.1446786 C43.8435852,73.4680119 48.3959926,83.3887262 58.1718074,88.8851548 C53.0839556,90.3599167 51.4776222,99.4776548 45.9831037,95.9920595 C37.951437,75.7480119 35.5385481,49.2022976 52.4129556,32.3103929 C59.2426963,28.1530119 66.2057333,22.1205119 74.2419185,22.6565833 C73.9730667,23.5952738 75.0462148,23.995631 75.5794,24.5339643 C77.3235481,25.3369405 77.3235481,23.3261071 78.1255852,22.6565833 C74.6440667,16.08575 78.7920667,9.38372619 82.0092519,4.02075 C88.8389926,-0.806154762 97.0062148,-0.806154762 103.833696,4.02075 C108.788252,8.71420238 110.93003,15.2827738 108.921548,21.9847976 C107.717363,25.6061071 104.235844,29.4943214 100.61877,30.9690833 C95.6642148,33.113369 90.4453259,30.5664643 87.7681037,26.5425357 C86.6949556,22.9234881 86.6949556,17.963131 89.1055852,14.8801548 C92.0494,14.7467024 94.9977333,12.6001548 98.0725852,14.3440833 C99.4145852,16.488369 100.752067,19.4378929 99.2812889,21.9847976 C98.4792519,23.0569405 97.0062148,22.523131 96.066363,23.3261071 C93.9245852,22.2539643 95.1310296,19.8405119 92.8536963,18.768369 C91.3784,19.5736071 90.045437,22.523131 92.3182519,23.995631 C94.5910667,28.2864643 98.4792519,26.8117024 101.287511,24.5339643 C104.637993,21.9847976 103.031659,16.7575357 101.958511,13.6745595 C98.6125481,10.5893214 94.1911778,8.5784881 89.6387704,10.455869 C86.2928074,12.8693214 83.3467333,16.6240833 82.6757333,20.7792024 C84.1487704,26.275631 86.5639185,33.113369 92.8536963,34.8572976 C98.4792519,36.0628929 102.227363,33.113369 106.379881,30.9690833 C109.994696,27.4834881 111.869881,18.6349167 118.564067,23.995631 C132.225807,31.2359881 131.823659,46.6553929 135.305178,59.3899167 C135.436215,72.9319405 133.56103,83.2552738 127.000141,94.1146786" id="Fill-22" fill="#966A43"></path>
                            <path d="M128.204778,124.950774 C123.519074,128.169464 115.351852,127.097321 114.145407,134.604583 C110.797185,143.183988 101.690111,151.62994 92.8541481,153.90994 C79.3302222,152.166012 66.3394815,146.266964 58.17,133.932798 L60.1784815,131.385893 C55.4927778,128.97244 48.9318889,129.108155 47.8587407,122.403869 C47.5898889,115.03006 45.0482222,103.768036 52.4134074,98.0024405 C57.0991111,93.9807738 61.5204815,89.4207738 67.1415185,87.6791071 L68.4835185,88.8869643 C69.821,85.1322024 73.4380741,82.8522024 77.455037,81.2439881 C89.1037778,81.5108929 103.163148,78.9639881 108.922,90.8977976 C110.797185,87.5456548 115.351852,89.0204167 118.029074,89.5564881 C121.774926,90.8977976 124.458926,95.0529167 125.658593,98.5385119 C121.774926,107.387083 132.890481,100.549345 133.430444,106.986726 C132.759444,113.286131 137.311852,122.00125 128.204778,124.950774" id="Fill-24" fill="#E7D2AC"></path>
                            <path d="M121.241741,87.6791071 C116.016074,82.4495833 108.251,88.0817262 103.834148,80.5744643 C100.752519,78.8305357 97.0044074,78.8305357 93.5228889,78.0252976 C92.452,65.691131 93.7894815,51.6152976 104.505148,44.5106548 C109.190852,42.0972024 115.616185,43.43625 119.899741,45.8497024 C129.277926,53.0900595 130.348815,65.4242262 127.671593,76.0144643 C124.992111,79.7692262 125.256444,84.596131 121.241741,87.6791071" id="Fill-26" fill="#FEFEFE"></path>
                            <path d="M128.875552,119.1845 C126.467181,117.040214 126.19607,111.81069 122.4457,110.872 C124.723033,109.532952 127.133663,112.749381 128.204552,114.626762 C128.073515,116.368429 129.2777,117.442833 128.875552,119.1845" id="Fill-28" fill="#221F20"></path>
                            <path d="M107.716911,134.60481 C102.762356,139.832071 97.8078,145.061595 90.9803185,145.597667 C81.4710963,143.586833 71.1620963,137.95469 67.1428741,128.16969 L54.2876889,119.185405 C52.9456889,120.660167 54.4209852,123.476238 53.0835037,124.951 L52.4125037,124.951 C53.2145407,119.990643 52.5458,112.214214 59.5133556,109.533857 L59.5133556,112.080762 C57.6359111,111.54469 56.9671704,113.822429 55.6296889,114.627667 C55.360837,122.537548 64.1990593,122.001476 68.4826148,125.620524 C74.9102074,126.961833 82.1420963,126.29231 87.7676519,123.745405 L88.4386519,105.645643 L89.6383185,105.645643 C89.9071704,111.945048 90.5781704,117.443738 90.3093185,124.281476 C99.9495778,128.7035 110.929578,124.951 119.234615,120.526714 C122.045133,119.318857 122.313985,113.822429 125.657689,115.968976 C120.569837,125.353619 108.387911,123.209333 107.716911,134.60481" id="Fill-30" fill="#562600"></path>
                            <path d="M110.929352,72.7978095 C108.24987,74.139119 105.974796,70.9204286 103.833019,69.0453095 C104.504019,65.2905476 104.504019,60.5970952 108.387685,58.7197143 C112.133537,58.988881 111.467056,63.4131667 112.804537,65.826619 C111.3315,68.5092381 113.475537,70.5178095 110.929352,72.7978095" id="Fill-32" fill="#562600"></path>
                            <path d="M107.046363,65.826619 C105.573326,64.3518571 106.913067,62.3410238 108.388363,61.266619 L110.263548,65.1548333 C109.592548,66.3626905 108.119511,65.5574524 107.046363,65.826619" id="Fill-34" fill="#FEFEFE"></path>
                            <path d="M100.619222,137.821012 L100.619222,129.508512 L108.386556,128.169464 C106.782481,131.921964 103.834148,136.077083 100.619222,137.821012" id="Fill-36" fill="#FEFEFE"></path>
                            <path d="M102.492374,98.5391905 C99.1464111,98.6749048 95.3983,98.1365714 92.8521148,100.550024 L91.6479296,98.003119 L90.3081889,99.2087143 C95.8004481,96.7952619 100.2173,87.410619 107.047041,92.7735952 C108.520078,96.5283571 103.965411,96.6618095 102.492374,98.5391905" id="Fill-38" fill="#562600"></path>
                            <path d="M98.073263,96.6627143 C98.4799296,94.1158095 101.154893,94.2492619 103.163374,94.1158095 C102.090226,96.3935476 100.350596,96.6627143 98.073263,96.6627143" id="Fill-40" fill="#966A43"></path>
                            <path d="M90.9798667,161.685917 C92.0507556,157.66425 96.3343111,161.014131 98.0739407,160.344607 L98.7449407,161.014131 C95.8011259,160.47806 93.9259407,162.35544 90.9798667,161.685917" id="Fill-42" fill="#A68A6A"></path>
                            <path d="M94.8608222,142.378976 L92.3191556,142.378976 C91.6481556,137.418619 89.5063778,133.130048 90.3084148,127.497905 L98.0734889,128.839214 C97.0048593,133.396952 100.750711,141.039929 94.8608222,142.378976" id="Fill-44" fill="#FEFEFE"></path>
                            <path d="M88.4382,142.378976 C82.2772,141.978619 81.7394963,136.48219 81.3373481,131.386119 C81.0684963,129.777905 81.3373481,127.76481 83.2125333,127.497905 C88.8403481,126.158857 87.0962,133.396952 88.4382,136.615643 L88.4382,142.378976 Z" id="Fill-46" fill="#FEFEFE"></path>
                            <path d="M86.4261037,99.8800476 C81.7404,99.2105238 76.2504,96.5279048 71.6957333,93.4449286 C71.8290296,91.701 72.7688815,90.2262381 74.2419185,88.8871905 C80.6672519,88.2154048 85.4907704,94.383619 86.4261037,99.8800476" id="Fill-48" fill="#562600"></path>
                            <path d="M83.213663,77.356 C73.1689963,74.8090952 69.2853296,86.8740952 60.1782556,86.3402857 C54.0195148,82.0494524 48.1273667,77.0868333 46.6543296,69.5795714 C44.7791444,58.4532619 51.206737,49.7381429 59.5117741,43.8390952 C65.8038111,41.5590952 71.4271074,45.0469524 76.2506259,48.3968333 C82.4116259,56.4424286 85.7598481,67.3018333 83.213663,77.356" id="Fill-50" fill="#FEFEFE"></path>
                            <path d="M74.9093037,92.7740476 L74.9093037,92.1045238 C78.1264889,89.8245238 80.4038222,93.310119 82.676637,95.3209524 C80.6681556,96.2619048 77.3221926,93.9819048 74.9093037,92.7740476" id="Fill-52" fill="#966A43"></path>
                            <path d="M79.4630667,137.821012 C75.448363,135.543274 71.8290296,132.727202 70.3582519,128.169464 C72.6355852,129.37506 75.5794,128.703274 78.1255852,128.838988 C77.8567333,132.055417 80.2651037,134.335417 79.4630667,137.821012" id="Fill-54" fill="#FEFEFE"></path>
                            <path d="M74.2428222,76.0151429 C71.5633407,75.6125238 69.8191926,74.6738333 67.8129704,72.7987143 C68.6150074,68.7747857 68.6150074,64.3527619 71.696637,61.2675238 C74.2428222,60.195381 75.8491556,62.8757381 76.7844889,64.4862143 C75.8491556,69.1796667 79.1928593,73.065619 74.2428222,76.0151429" id="Fill-56" fill="#562600"></path>
                            <path d="M72.3665074,67.7042262 L72.3665074,63.8160119 C73.1685444,62.8773214 74.5128037,63.9494643 74.9081741,65.1550595 L74.9081741,67.7042262 L72.3665074,67.7042262 Z" id="Fill-58" fill="#FEFEFE"></path>
                            <path d="M42.7711148,180.992631 C36.4790778,172.141798 38.0854111,157.127274 42.7711148,148.14525 C43.173263,147.070845 45.4505963,146.265607 46.6547815,147.475726 C57.6370407,155.385607 47.4568185,167.317155 47.8589667,177.104417 C46.119337,178.443464 45.0484481,180.992631 42.7711148,180.992631" id="Fill-60" fill="#E7D2AC"></path>
                            <path d="M44.112437,112.080762 C38.3535852,113.152905 35.8074,106.717786 31.2527333,104.973857 C20.4060296,101.757429 7.55084444,99.3439762 2.32743704,87.0098095 C-1.02304444,79.0999286 1.42599259,70.0455238 6.74880741,64.4857619 C9.65647407,61.4457619 26.4337333,63.6827857 33.8011778,69.0457619 C39.6910667,76.8199286 37.8158815,87.8127857 42.770437,95.9918333 C50.9376593,100.549571 40.7642148,105.509929 44.112437,112.080762" id="Fill-62" fill="#E7D2AC"></path>
                            <path d="M38.2171259,95.9922857 C35.4066074,90.4958571 34.2024222,83.2555 27.368163,80.5751429 C24.6909407,80.9755 21.3449778,82.7194286 20.9428296,85.6689524 C20.8072741,89.8240714 23.0846074,93.445381 26.697163,95.3227619 C28.3034963,95.1870476 30.0476444,95.5896667 30.5808296,96.6618095 C25.7618296,98.9395476 21.6093111,93.1762143 19.6030889,89.5571667 C17.9967556,86.8745476 19.8719407,84.1941905 20.9428296,81.9141905 L25.3619407,78.6977619 C20.4051259,75.6125238 14.6462741,76.2843095 9.28957037,78.0259762 L8.75638519,77.3564524 C13.7109407,74.4069286 21.0761259,74.4069286 26.697163,77.3564524 C33.2625704,80.8420476 38.8881259,88.7519286 38.2171259,95.9922857" id="Fill-64" fill="#562600"></path>
                            <path d="M31.7902111,180.992631 C23.2163222,180.051679 27.2355444,169.459179 23.4851741,164.231917 C22.9519889,158.197155 26.2956926,152.300369 30.5815074,147.475726 C34.8673222,147.070845 34.2008407,152.033464 37.0136185,153.908583 C32.3233963,162.487988 41.2971741,175.49394 31.7902111,180.992631" id="Fill-66" fill="#E7D2AC"></path>
                            <path d="M22.8148519,173.215071 C23.217,175.761976 22.5505185,177.908524 20.9441852,179.65019 C13.9766296,181.258405 15.5874815,172.681262 13.8433333,168.790786 C14.6476296,162.891738 11.6992963,153.909714 16.3895185,148.813643 C18.8001481,147.071976 20.6753333,150.557571 22.8148519,151.36281 C21.8795185,158.198286 18.9311852,166.77769 22.8148519,173.215071" id="Fill-68" fill="#E7D2AC"></path>
                        </g>
                    </g>
                    <g id="Page-1" transform="translate(0.000000, 202.000000)">
                        <g id="Group-3" transform="translate(0.000000, 14.944779)">
                            <mask id="mask-2" fill="white">
                                <use xlink:href="#path-1"></use>
                            </mask>
                            <g id="Clip-2"></g>
                            <path d="M12.344945,5.13351563 C8.88101835,7.02205729 6.9262844,8.40018229 4.41619266,11.4626823 C3.6129633,12.432474 4.06477982,14.3720573 6.12619266,14.3210156 C8.4856789,14.269974 10.4404128,10.748099 13.9576789,9.62518229 C14.7609083,9.36997396 14.9554404,3.70434896 12.344945,5.13351563 M25.300156,19.629349 C22.2347064,16.9751823 21.2871468,14.3720573 20.2799725,10.441849 C19.6744128,8.09393229 18.1714954,8.65539063 17.3714037,9.52309896 C14.453422,12.738724 12.401422,14.8314323 8.53274312,17.0772656 C1.9029633,20.9564323 -1.70843119,13.7595573 0.798522936,9.93143229 C3.86397248,5.28664063 7.87698165,3.09184896 11.9464679,1.15226563 C13.9012018,0.233515625 15.862211,-0.327942708 17.3714037,1.05018229 C18.4225046,2.01997396 19.0249266,2.47934896 20.1764312,0.948098958 C21.0832018,-0.276901042 22.9406697,0.794973958 23.4928899,2.07101563 C25.096211,5.74601563 22.9908716,14.4741406 27.7067064,15.8522656 C29.3131651,16.3116406 26.9536789,21.0585156 25.300156,19.629349" id="Fill-1" fill="#562600" mask="url(#mask-2)"></path>
                        </g>
                        <path d="M45.0263394,9.10274089 C44.0223028,7.72461589 44.4741193,7.11211589 42.318578,5.58086589 C41.1105963,4.71315755 43.5202844,1.90586589 44.7251284,2.67149089 C46.381789,3.74336589 47.2885596,5.02259766 48.0415872,6.65274089 C48.6910734,8.03086589 45.7323028,10.0757227 45.0263394,9.10274089 M46.6861376,19.365306 C50.0465229,27.9371159 51.3015688,39.2173242 47.586633,43.0964909 C43.1218073,47.7412826 37.0975872,47.7923242 35.0863761,43.2496159 C34.0321376,40.8506576 35.2401193,39.0673893 35.6919358,36.515306 C35.9931468,34.8787826 38.296156,36.1548242 37.9478807,38.3496159 C37.3956606,41.8204492 36.8936422,43.6579492 41.1105963,43.2496159 C45.3808899,42.8412826 47.0375505,39.1152409 46.8336055,35.2871159 C46.4351284,27.2257227 44.2733119,22.7819076 41.1105963,15.384056 C40.307367,13.4923242 42.415844,11.0423242 44.125844,12.321556 C46.6327982,14.2100977 47.4360275,13.0839909 48.0415872,14.465306 C49.3970367,17.527806 45.1800826,15.5850326 46.6861376,19.365306" id="Fill-4" fill="#562600"></path>
                        <path d="M73.0869688,35.1346289 C71.4334459,33.8075456 70.8812257,30.6429622 69.6230422,27.7846289 C68.8229505,25.9981706 68.3177945,25.2835872 67.3639596,27.1721289 C65.4562899,30.8981706 63.6992257,33.3481706 60.138033,32.9908789 C53.1568404,32.3273372 53.7592624,21.1492122 55.1680514,13.394069 C55.4190606,12.0127539 59.4320697,12.3700456 58.9300514,14.6158789 C58.2335009,17.6783789 57.5275376,22.7315039 59.3850055,27.3252539 C60.4863083,30.0815039 62.3437761,28.7033789 63.3007486,27.481569 C65.2554826,24.9262956 66.8117394,22.1732357 66.4634642,18.294069 C66.3097211,16.7596289 70.1281982,15.6399023 70.8310239,18.1377539 C72.2837394,23.3950456 73.7929321,29.7752539 75.8010055,31.3065039 C78.5119046,33.3992122 74.4957578,36.2607357 73.0869688,35.1346289" id="Fill-6" fill="#562600"></path>
                        <path d="M94.8237358,35.443112 C90.6067817,33.5035286 92.5677908,26.6097135 91.0617358,23.9555469 C90.0074972,22.0701953 89.4050752,22.0701953 88.6520477,23.0367969 C86.7945798,25.4357552 86.9985248,28.399362 84.7363046,29.9274219 C81.573589,32.0711719 80.4722862,28.1951953 80.5193505,27.0180469 C80.6668183,23.0367969 79.6627817,19.3107552 78.1128,17.0649219 C77.2530936,15.8399219 79.7663229,12.474362 82.0285431,13.699362 C83.5283229,14.5128385 83.0263046,18.5451302 83.8295339,21.814987 C84.2342862,23.5472135 85.1912587,23.346237 86.0917541,22.427487 C87.8017541,20.6920703 87.8990202,19.671237 88.9532587,16.9117969 C89.5054789,15.4347786 92.0657725,16.6565885 92.8690018,17.9836719 C95.074745,21.6108203 94.8237358,31.461862 96.9384881,32.3774219 C99.6964514,33.5513802 97.5879743,36.7159635 94.8237358,35.443112" id="Fill-8" fill="#562600"></path>
                        <path d="M107.275987,19.9752539 C105.16751,21.0471289 104.016006,24.3137956 105.16751,25.7940039 C106.425694,27.3762956 108.92951,25.7940039 109.983749,24.1096289 C111.841217,21.0471289 113.551217,18.9576107 112.54718,17.9846289 C111.791015,17.2700456 109.538207,18.8012956 107.275987,19.9752539 M114.357583,44.1690039 C110.739914,48.8648372 106.171547,49.0690039 102.306006,45.7002539 C99.6453083,43.4033789 97.3360239,36.3596289 100.79995,36.8190039 C103.109235,37.1252539 100.197528,43.0460872 104.866299,44.1690039 C112.343235,45.9586523 116.16485,36.1044206 115.709895,30.8471289 C115.515363,28.400319 115.760097,28.6012956 115.264354,24.5690039 C115.160813,23.9054622 114.859602,22.8335872 113.752024,23.8033789 C112.594244,24.8274023 109.431528,30.8471289 105.622464,29.7752539 C100.950556,28.4481706 98.6412716,23.1398372 105.418519,17.2700456 C108.734978,14.4117122 114.859602,11.6044206 117.219088,15.6877539 C119.327565,19.365944 118.022317,20.8940039 118.273327,24.2627539 C118.775345,31.3575456 119.180097,37.8908789 114.357583,44.1690039" id="Fill-10" fill="#562600"></path>
                        <g id="Group-14" transform="translate(121.241123, 0.142695)" fill="#562600">
                            <path d="M6.82469951,31.4716536 C6.76822245,32.8497786 3.90671786,32.5945703 3.5082408,30.8591536 C1.95198392,24.0195703 4.31147016,19.783112 2.9089564,12.9403385 C2.30339676,9.98311198 1.54723162,6.46123698 0.194919698,2.53102865 C-0.705575715,-0.0720963542 5.21196557,-1.04188802 5.31864447,1.45915365 C5.41591052,3.80707031 6.76822245,9.52373698 7.12591052,14.7810286 C7.57145181,21.3111719 7.07570869,24.9383203 6.82469951,31.4716536" id="Fill-12"></path>
                        </g>
                        <path d="M150.053598,16.454974 C146.188057,16.8633073 141.218075,18.904974 138.507176,21.8622005 C137.851415,22.579974 137.80435,23.7539323 139.109598,23.1892839 C141.81736,22.0695573 146.941084,22.1716406 150.954094,19.1091406 C152.309543,18.0883073 151.107837,16.3528906 150.053598,16.454974 M142.523323,34.829974 C137.80435,33.2476823 132.834369,30.7434505 133.781928,25.4351172 C134.691837,20.5351172 137.349396,18.3435156 141.218075,15.842474 C145.180883,13.2903906 149.146828,12.0653906 153.166112,14.2091406 C155.776607,15.5872656 156.077818,18.751849 153.8658,20.9466406 C150.856828,23.958099 148.042387,23.5497656 144.330589,25.2341406 C141.218075,26.6633073 139.206864,26.3060156 138.507176,25.336224 C138.306369,25.029974 137.650607,24.570599 137.503139,25.7445573 C137.048185,29.4163672 141.362406,30.8965755 144.628662,31.767474 C148.547543,32.7883073 151.05136,32.4788672 155.073782,31.767474 C156.526497,31.5122656 156.777506,33.2476823 156.077818,33.7038672 C152.664094,35.901849 146.137855,36.054974 142.523323,34.829974" id="Fill-15" fill="#562600"></path>
                        <path d="M185.998426,19.9752539 C185.292462,18.8523372 184.944187,20.9482357 183.438132,20.5877539 C181.881875,20.2304622 182.236426,18.4950456 179.374921,20.437819 C177.762187,21.5575456 176.861692,22.7825456 176.81149,24.7221289 C176.707949,27.3762956 177.614719,29.7274023 181.028444,30.0815039 C183.38793,30.3367122 185.041453,29.1117122 186.299637,27.0190039 C187.70215,24.6200456 187.102866,21.7106706 185.998426,19.9752539 M179.820462,33.7565039 C175.710187,33.0419206 172.644738,28.9585872 172.742004,25.490944 C172.845545,21.7649023 174.753215,19.365944 177.865728,17.375319 C179.723196,16.1981706 180.777435,15.6877539 182.236426,14.1565039 C184.288426,12.0127539 186.59771,12.8804622 187.206407,14.6158789 C188.357912,17.8825456 190.667196,20.8429622 189.760426,24.8752539 C188.608921,30.0304622 184.944187,34.6242122 179.820462,33.7565039" id="Fill-17" fill="#562600"></path>
                        <path d="M208.984905,14.0033789 C208.737033,11.6586523 209.690868,9.25969401 207.883602,7.26906901 C206.327345,5.53365234 203.563106,3.38671224 202.257859,5.32629557 C200.701602,7.67740234 200.855345,13.0335872 201.357363,17.9846289 C201.457767,19.0054622 202.00685,19.519069 202.860281,19.6211523 C205.875528,19.9752539 208.486024,19.3117122 212.097418,19.1107357 C213.85762,19.0054622 213.054391,20.6387956 212.495895,21.2512956 C210.889437,22.9867122 206.126538,22.7315039 203.061088,23.1908789 C202.358262,23.2929622 201.608372,23.5992122 201.555033,24.3137956 C201.357363,26.7127539 202.411602,30.3367122 204.473015,30.1357357 C205.825327,29.9794206 205.624519,33.7565039 204.366336,33.8075456 C201.504831,33.9606706 199.898372,32.4804622 199.248886,30.2346289 C198.693528,28.2440039 198.79707,26.7637956 198.643327,24.9262956 C198.593125,24.1096289 198.141308,23.1908789 197.338079,23.2929622 C195.935565,23.500319 194.228703,24.0107357 192.725785,22.9867122 C191.568006,22.2210872 191.21973,20.0294857 192.421437,19.8221289 C193.626281,19.6211523 195.480611,19.8731706 197.036868,19.8221289 C197.63929,19.8221289 198.141308,19.3117122 198.141308,18.7024023 C198.091106,12.6762956 197.943639,9.35858724 198.643327,3.48879557 C198.997877,0.528378906 201.504831,0.32421224 203.563106,0.93671224 C208.934703,2.51900391 211.796207,5.83671224 212.69984,11.1450456 C212.850446,12.0127539 209.185712,15.8408789 208.984905,14.0033789" id="Fill-19" fill="#562600"></path>
                        <path d="M239.25818,18.1374349 C239.509189,16.5041016 238.401611,16.0479167 237.598382,16.45625 C236.446877,17.0145182 235.536969,17.7291016 233.980712,18.29375 C233.381428,18.4947266 233.381428,19.51875 233.833244,19.9749349 C236.842217,22.9353516 238.552217,24.41875 241.065446,27.634375 C242.420895,29.3697917 242.21695,31.4625 240.761097,32.8374349 C238.903629,34.5728516 232.07618,37.2270182 229.766895,35.75 C227.008932,33.9603516 228.612253,31.2551432 230.971739,32.2249349 C232.782143,32.9427083 234.636473,32.4291016 236.544143,31.3061849 C237.952932,30.4895182 237.347372,29.2645182 236.396675,27.9374349 C232.879409,23.0374349 229.465684,22.9895833 228.565189,20.284375 C227.909428,18.29375 228.361244,16.45625 230.064969,15.6874349 C232.829207,14.465625 237.400712,11.6041016 239.405648,12.1655599 C242.568363,13.0332682 243.02018,14.7208333 242.568363,16.9124349 C242.317354,18.1916667 239.057372,19.51875 239.25818,18.1374349" id="Fill-21" fill="#562600"></path>
                        <path d="M274.795117,33.7577799 C271.233925,31.4098633 271.585338,27.6838216 270.430695,23.4984049 C269.978879,21.8618815 268.519888,22.3754883 267.870402,23.1889648 C266.816163,24.5192383 265.41365,25.4379883 264.25587,27.3233398 C263.45264,28.6025716 261.692439,28.7556966 260.490732,27.0202799 C259.787906,25.9962565 259.285888,25.4379883 258.830934,24.2608398 C258.278714,22.8348633 258.084182,23.0390299 257.177411,24.1109049 C254.670457,27.0713216 254.215503,29.7254883 251.153191,32.0734049 C250.149154,32.8390299 247.689264,33.0942383 247.535521,31.6140299 C247.187246,28.0921549 246.635026,26.1015299 245.881998,22.7327799 C245.226237,19.6702799 245.226237,17.6796549 246.336952,14.7702799 C246.986439,13.0859049 250.400163,14.8723633 250.252695,16.9140299 C250.04875,19.7723633 249.643998,21.5077799 250.400163,24.2608398 C250.85198,25.9484049 251.454402,26.2036133 251.906218,25.6421549 C254.516714,22.3754883 256.424383,19.4661133 257.177411,16.3015299 C257.475484,14.9744466 260.387191,15.0254883 260.6382,16.1452148 C261.140218,18.3431966 261.645374,19.6192383 262.147393,21.8140299 C262.599209,23.8046549 264.004861,22.4775716 264.855154,21.8140299 C267.21464,20.0275716 267.318182,17.5775716 268.92464,15.0765299 C269.72787,13.8004883 272.385429,14.8181315 272.68664,16.3015299 C273.690677,21.3546549 274.64765,26.2514648 277.509154,31.9202799 C278.262182,33.4515299 275.952897,34.5234049 274.795117,33.7577799" id="Fill-23" fill="#562600"></path>
                        <path d="M282.326648,32.533418 C280.673125,30.695918 279.716152,28.7531445 279.618886,26.714668 C279.414941,22.3729362 279.568684,19.8718945 279.465143,15.536543 C279.414941,13.0355013 283.631895,14.5667513 283.534629,16.914668 C283.380886,20.895918 282.025437,23.5500846 283.682097,27.1708529 C284.435125,28.858418 285.238354,29.624043 286.396134,31.002168 C287.952391,32.839668 283.28362,33.605293 282.326648,32.533418 M283.079675,8.49279297 C280.120905,9.10210286 278.210097,7.47195964 277.055455,5.58341797 C276.456171,4.6136263 277.105657,3.33758464 279.163932,3.59279297 C281.222207,3.8480013 282.577657,4.40945964 284.133914,5.58341797 C285.489363,6.6042513 284.337859,8.23758464 283.079675,8.49279297" id="Fill-25" fill="#562600"></path>
                        <g id="Group-29" transform="translate(287.534700, 0.142695)" fill="#562600">
                            <path d="M7.19556557,31.4716536 C7.13908851,32.8497786 4.27758392,32.5945703 3.87910685,30.8591536 C2.32284997,24.0195703 4.68233621,19.783112 3.27982245,12.9403385 C2.67426282,9.98311198 1.91809768,6.46123698 0.565785753,2.53102865 C-0.33470966,-0.0720963542 5.58283162,-1.04188802 5.68951052,1.45915365 C5.78677658,3.80707031 7.13908851,9.52373698 7.49677658,14.7810286 C7.94231786,21.3111719 7.44657474,24.9383203 7.19556557,31.4716536" id="Fill-27"></path>
                        </g>
                        <path d="M316.718042,16.454974 C312.852501,16.8633073 307.882519,18.904974 305.17162,21.8622005 C304.515859,22.579974 304.468794,23.7539323 305.774042,23.1892839 C308.481804,22.0695573 313.605528,22.1716406 317.618538,19.1091406 C318.973987,18.0883073 317.772281,16.3528906 316.718042,16.454974 M309.187767,34.829974 C304.468794,33.2476823 299.498813,30.7434505 300.446372,25.4351172 C301.356281,20.5351172 304.01384,18.3435156 307.882519,15.842474 C311.845327,13.2903906 315.811272,12.0653906 319.830556,14.2091406 C322.441051,15.5872656 322.742262,18.751849 320.530244,20.9466406 C317.521272,23.958099 314.706831,23.5497656 310.995033,25.2341406 C307.882519,26.6633073 305.871308,26.3060156 305.17162,25.336224 C304.970813,25.029974 304.315051,24.570599 304.167583,25.7445573 C303.712629,29.4163672 308.02685,30.8965755 311.293106,31.767474 C315.211987,32.7883073 317.722079,32.4788672 321.738226,31.767474 C323.190941,31.5122656 323.44195,33.2476823 322.742262,33.7038672 C319.328538,35.901849 312.802299,36.054974 309.187767,34.829974" id="Fill-30" fill="#562600"></path>
                        <path d="M337.345349,18.1374349 C337.596358,16.5041016 336.495055,16.0479167 335.691826,16.45625 C334.537183,17.0145182 333.630413,17.7291016 332.074156,18.29375 C331.474872,18.4947266 331.474872,19.51875 331.926688,19.9749349 C334.935661,22.9353516 336.645661,24.41875 339.152615,27.634375 C340.508064,29.3697917 340.310394,31.4625 338.851404,32.8374349 C336.997073,34.5728516 330.169624,37.2270182 327.860339,35.75 C325.102376,33.9603516 326.705697,31.2551432 329.065183,32.2249349 C330.87245,32.9427083 332.729917,32.4291016 334.637587,31.3061849 C336.040101,30.4895182 335.440817,29.2645182 334.483844,27.9374349 C330.972853,23.0374349 327.559128,22.9895833 326.652358,20.284375 C326.002872,18.29375 326.454688,16.45625 328.158413,15.6874349 C330.922651,14.465625 335.487881,11.6041016 337.499092,12.1655599 C340.661807,13.0332682 341.113624,14.7208333 340.661807,16.9124349 C340.410798,18.1916667 337.150817,19.51875 337.345349,18.1374349" id="Fill-32" fill="#562600"></path>
                        <g id="Group-29" transform="translate(287.534700, 0.142695)" fill="#562600">
                            <path d="M7.19556557,31.4716536 C7.13908851,32.8497786 4.27758392,32.5945703 3.87910685,30.8591536 C2.32284997,24.0195703 4.68233621,19.783112 3.27982245,12.9403385 C2.67426282,9.98311198 1.91809768,6.46123698 0.565785753,2.53102865 C-0.33470966,-0.0720963542 5.58283162,-1.04188802 5.68951052,1.45915365 C5.78677658,3.80707031 7.13908851,9.52373698 7.49677658,14.7810286 C7.94231786,21.3111719 7.44657474,24.9383203 7.19556557,31.4716536" id="Fill-27"></path>
                        </g>
                        <path d="M316.718042,16.454974 C312.852501,16.8633073 307.882519,18.904974 305.17162,21.8622005 C304.515859,22.579974 304.468794,23.7539323 305.774042,23.1892839 C308.481804,22.0695573 313.605528,22.1716406 317.618538,19.1091406 C318.973987,18.0883073 317.772281,16.3528906 316.718042,16.454974 M309.187767,34.829974 C304.468794,33.2476823 299.498813,30.7434505 300.446372,25.4351172 C301.356281,20.5351172 304.01384,18.3435156 307.882519,15.842474 C311.845327,13.2903906 315.811272,12.0653906 319.830556,14.2091406 C322.441051,15.5872656 322.742262,18.751849 320.530244,20.9466406 C317.521272,23.958099 314.706831,23.5497656 310.995033,25.2341406 C307.882519,26.6633073 305.871308,26.3060156 305.17162,25.336224 C304.970813,25.029974 304.315051,24.570599 304.167583,25.7445573 C303.712629,29.4163672 308.02685,30.8965755 311.293106,31.767474 C315.211987,32.7883073 317.722079,32.4788672 321.738226,31.767474 C323.190941,31.5122656 323.44195,33.2476823 322.742262,33.7038672 C319.328538,35.901849 312.802299,36.054974 309.187767,34.829974" id="Fill-30" fill="#562600"></path>
                        <path d="M337.345349,18.1374349 C337.596358,16.5041016 336.495055,16.0479167 335.691826,16.45625 C334.537183,17.0145182 333.630413,17.7291016 332.074156,18.29375 C331.474872,18.4947266 331.474872,19.51875 331.926688,19.9749349 C334.935661,22.9353516 336.645661,24.41875 339.152615,27.634375 C340.508064,29.3697917 340.310394,31.4625 338.851404,32.8374349 C336.997073,34.5728516 330.169624,37.2270182 327.860339,35.75 C325.102376,33.9603516 326.705697,31.2551432 329.065183,32.2249349 C330.87245,32.9427083 332.729917,32.4291016 334.637587,31.3061849 C336.040101,30.4895182 335.440817,29.2645182 334.483844,27.9374349 C330.972853,23.0374349 327.559128,22.9895833 326.652358,20.284375 C326.002872,18.29375 326.454688,16.45625 328.158413,15.6874349 C330.922651,14.465625 335.487881,11.6041016 337.499092,12.1655599 C340.661807,13.0332682 341.113624,14.7208333 340.661807,16.9124349 C340.410798,18.1916667 337.150817,19.51875 337.345349,18.1374349" id="Fill-32" fill="#562600"></path>
                    </g>
                </g>
            </g>
        </g>
    </g>
</svg>