<?xml version="1.0" encoding="UTF-8"?>
<svg width="288px" height="84px" viewBox="0 0 288 84" version="1.1" xmlns="http://www.w3.org/2000/svg" xmlns:xlink="http://www.w3.org/1999/xlink">
    <!-- Generator: Sketch 44.1 (41455) - http://www.bohemiancoding.com/sketch -->
    <title>Group</title>
    <desc>Created with Sketch.</desc>
    <defs>
        <polygon id="path-1" points="0 9.74526713 0 0.108970027 14.0388353 0.108970027 14.0388353 9.74526713"></polygon>
        <polygon id="path-3" points="0.000319480519 17.2057765 163.460397 17.2057765 163.460397 0.000211764706 0.000319480519 0.000211764706"></polygon>
    </defs>
    <g id="Page-1" stroke="none" stroke-width="1" fill="none" fill-rule="evenodd">
        <g id="Desktop-HD" transform="translate(-16.000000, -7.000000)">
            <g id="Header" transform="translate(-22.000000, 7.000000)">
                <g id="Group" transform="translate(38.000000, 0.000000)">
                    <g id="Page-1" transform="translate(54.000000, 42.000000) scale(-1, 1) translate(-54.000000, -42.000000) ">
                        <path d="M90.0913,72.2983 C88.2533,75.5583 89.3203,80.0043 86.4173,82.7913 C85.1123,82.8493 83.5113,82.8493 82.9783,81.6643 C81.6143,82.6133 78.9483,84.8043 78.1773,81.6643 C77.3473,82.3163 77.6443,84.3903 75.8663,83.6793 C71.8943,82.0783 71.9543,78.1673 71.0663,74.5513 C69.1093,73.7803 66.8573,73.7803 64.7823,73.4253 L44.5713,74.2543 C40.7773,73.3063 36.3913,73.6623 32.0653,73.9583 C29.8113,76.8623 30.9383,81.3673 27.2043,83.3823 C26.1373,83.2053 25.0693,83.0273 24.3583,81.9613 C23.0553,82.4943 21.9873,83.7383 20.3863,83.6793 C18.9043,79.4713 17.1853,84.8043 14.4003,83.0863 C12.2653,80.4203 12.7403,77.7533 11.8513,74.5513 L0.4383,73.4903 C2.5123,73.6093 10.0743,73.5433 12.1483,72.8323 C11.9103,70.1653 12.2073,67.6753 14.4003,66.0163 C16.0603,65.6013 17.0083,66.6683 18.1343,67.4383 C19.9703,67.0243 22.8763,63.9413 24.1223,67.4383 C25.4263,66.6083 25.8413,63.2303 28.0923,64.8893 C30.4053,66.9053 32.9543,69.3353 32.3603,72.8323 C36.6283,72.9513 41.2513,73.8993 45.1633,73.1283 L45.9933,72.0023 C40.3623,69.9273 34.3173,66.4303 31.2353,60.6223 C29.1593,60.5633 27.3233,59.9703 26.9673,57.7773 C26.8483,56.4143 25.8993,55.1093 26.6713,53.8053 C24.0033,53.2133 22.1653,50.6053 19.8533,49.2423 C14.8753,48.2933 9.7163,45.9823 7.0503,41.2403 C6.2793,38.7503 4.8573,35.0753 7.0503,32.7053 C9.0663,31.3413 8.1753,27.7853 11.3183,27.9033 C14.9333,26.1253 18.0823,28.8553 21.2753,30.1563 C22.0873,30.4863 22.5223,30.8083 22.9363,31.5793 C25.4853,25.1183 24.0633,16.5243 32.0653,12.7893 C35.2063,10.4783 41.7843,11.5443 40.5993,5.4403 C41.9043,3.6023 43.2673,1.2903 45.4603,0.2823 C48.4833,-0.2507 50.4963,0.8163 53.4023,1.4683 C55.8313,3.5433 58.5583,6.6843 57.6693,9.7073 C58.6163,11.4853 60.7513,10.2403 61.9373,11.3663 C66.0853,16.5833 68.9913,22.8653 69.3453,29.8603 C72.4873,26.0073 76.8143,23.1033 81.5563,24.7623 C83.1573,25.4733 85.4683,25.7103 86.1203,27.6073 C87.7803,29.3263 88.1953,31.3413 87.5423,33.8903 C86.1793,38.5133 83.6913,42.9593 80.7263,46.6933 C76.6363,48.4713 71.7773,49.6563 68.7533,52.9163 C68.5153,55.1093 68.3983,57.3033 66.2043,58.6073 C64.6033,59.2583 62.3513,58.4283 61.3433,60.6223 C61.8183,62.5783 61.4623,64.9493 62.7673,66.6083 C64.7823,66.9053 68.6953,65.5423 69.3453,68.8613 C70.0563,69.2163 71.0663,69.2163 71.0663,70.2833 C71.7773,69.9273 71.5993,69.2163 71.5993,68.5643 C74.4433,63.7043 78.2373,68.7423 81.5563,65.1863 C82.6223,65.6603 83.9863,65.2453 84.6983,66.6083 C86.4173,64.4153 88.7283,65.6013 89.7943,67.7343 C89.7363,67.9723 89.9133,68.1493 90.0913,68.2683 C92.1653,67.3203 92.8183,64.7713 94.6553,63.1713 C98.9233,52.0873 92.1073,43.0773 89.5583,33.0013 C88.6693,29.7413 91.1593,27.4293 93.2343,25.8883 C95.9603,25.4143 96.9663,28.6153 98.3313,30.1563 C99.1593,31.6383 99.5753,33.2983 99.7533,35.0163 C99.6933,39.6403 102.2413,43.5513 101.4703,48.1153 C102.4803,56.0583 100.3453,64.1783 96.6693,70.8763 C99.6933,70.6393 99.3983,71.1133 90.0913,72.2983" id="Fill-2" fill="#562600"></path>
                        <g id="Group-70" transform="translate(7.000000, 1.501000)">
                            <path d="M98.5601,59.9516 C99.3311,56.4536 100.5781,51.5346 99.9841,47.1486 L100.8141,47.1486 C100.6951,51.6536 100.4581,56.2176 98.5601,59.9516" id="Fill-4" fill="#562600"></path>
                            <path d="M95.5972,59.4174 C96.5462,55.4464 97.4932,49.7564 95.8942,45.4294 C97.2572,45.6664 96.8412,47.5624 97.3182,48.5704 C97.6132,52.5424 97.0192,56.1574 95.5972,59.4174" id="Fill-6" fill="#562600"></path>
                            <path d="M87.3589,69.6123 L82.7949,69.9083 C83.6249,67.8343 86.6479,66.1743 87.6559,63.9223 C93.4059,54.2013 88.1299,42.0503 84.5129,32.6263 C84.1599,30.3153 83.7439,27.2923 86.2339,25.8103 C92.9899,27.6483 90.8569,35.7093 92.5149,40.9243 C94.6499,50.2893 94.1749,62.4403 87.3589,69.6123" id="Fill-8" fill="#966A43"></path>
                            <path d="M80.8394,70.2055 C80.7804,73.4065 80.2454,77.1405 78.8234,80.1635 C77.7574,79.9265 77.2224,78.1475 76.2754,77.6155 C76.7494,73.9975 78.9434,70.3825 77.6984,66.7675 C78.5284,66.0565 79.1794,64.9295 80.5424,65.3445 C81.9054,66.4715 81.6104,68.9605 80.8394,70.2055" id="Fill-10" fill="#E7D2AC"></path>
                            <path d="M73.1323,42.8808 C69.3413,45.6078 64.8353,46.6148 61.2203,49.6978 C61.0423,47.6818 60.6263,45.2518 58.3743,44.5998 L57.7823,44.5998 C57.0713,42.2878 59.6203,40.5688 60.0343,38.3168 C60.9823,33.2778 63.3533,27.7658 68.0363,25.2768 C70.8233,23.8538 74.9723,24.0908 77.4023,26.1068 C81.4913,32.2118 76.3923,38.0798 73.1323,42.8808" id="Fill-12" fill="#E7D2AC"></path>
                            <path d="M74.021,79.333 C73.548,79.452 73.132,79.688 72.601,79.57 C70.882,77.971 72.126,75.422 72.601,73.643 C72.244,71.509 71.888,68.724 72.837,66.768 C73.787,66.531 74.556,64.93 75.681,65.937 L76.869,67.36 C76.75,71.332 76.216,75.836 74.021,79.333" id="Fill-14" fill="#E7D2AC"></path>
                            <path d="M73.7261,32.9228 C72.0681,33.2778 70.5271,33.9898 69.1621,34.9378 C70.1111,36.0648 71.7711,35.8868 72.3041,37.4868 C72.0681,39.7388 70.7611,41.9918 68.5701,42.8808 C68.2731,42.8808 67.9171,42.9398 67.7401,42.5848 C68.8061,41.4578 71.2381,40.6288 71.4151,38.6128 C72.0071,36.8938 69.9331,36.7158 69.1621,35.7678 C65.6651,36.0648 63.0561,39.7388 60.9231,42.0508 C61.3391,39.3238 64.8941,37.6648 66.9101,35.4718 C69.5781,34.4048 71.7121,31.7368 75.1501,32.3898 C75.8001,33.5748 74.4371,33.3378 73.7261,32.9228" id="Fill-16" fill="#562600"></path>
                            <path d="M69.4585,80.9931 C68.2145,80.9321 67.7395,79.5701 67.1455,78.7411 C65.9605,75.3611 64.3625,70.0861 67.4425,67.0631 C68.1555,66.0561 69.1035,65.7591 70.2885,65.9371 C72.1265,70.7971 70.5855,76.3691 69.4585,80.9931" id="Fill-18" fill="#E7D2AC"></path>
                            <path d="M45.2749,71.6274 C42.6689,68.1904 47.2909,67.3014 48.9509,65.3444 L52.6849,59.6544 C52.8019,62.4404 53.8099,64.8704 54.6399,67.3604 C56.6559,67.4194 59.5599,67.0044 61.2199,68.7824 L62.8799,71.0354 C57.1889,71.2124 51.1439,71.0944 45.2749,71.6274" id="Fill-20" fill="#966A43"></path>
                            <path d="M56.6558,42.0507 C53.0988,39.7987 58.1968,37.6057 58.6108,35.2347 C60.0348,29.4257 58.9688,24.3277 54.9368,20.1197 C52.8018,18.2817 49.7808,17.6897 46.9938,18.4007 C40.3568,21.3047 40.2988,28.4177 39.8828,34.6417 L38.9938,34.6417 C39.5268,29.7817 38.6378,24.8617 35.3178,21.2457 C32.9478,19.2897 30.2808,17.1557 27.0788,18.1637 C22.8118,19.8237 20.4408,24.3277 19.3738,28.3587 C19.8488,32.9227 21.8638,37.3087 26.1908,39.7387 C23.9388,40.3907 23.2278,44.4217 20.7958,42.8807 C17.2408,33.9307 16.1728,22.1947 23.6418,14.7267 C26.6648,12.8887 29.7468,10.2217 33.3038,10.4587 C33.1848,10.8737 33.6598,11.0507 33.8958,11.2887 C34.6678,11.6437 34.6678,10.7547 35.0228,10.4587 C33.4818,7.5537 35.3178,4.5907 36.7418,2.2197 C39.7648,0.0857 43.3798,0.0857 46.4018,2.2197 C48.5948,4.2947 49.5428,7.1987 48.6538,10.1617 C48.1208,11.7627 46.5798,13.4817 44.9788,14.1337 C42.7858,15.0817 40.4758,13.9557 39.2908,12.1767 C38.8158,10.5767 38.8158,8.3837 39.8828,7.0207 C41.1858,6.9617 42.4908,6.0127 43.8518,6.7837 C44.4458,7.7317 45.0378,9.0357 44.3868,10.1617 C44.0318,10.6357 43.3798,10.3997 42.9638,10.7547 C42.0158,10.2807 42.5498,9.2137 41.5418,8.7397 C40.8888,9.0957 40.2988,10.3997 41.3048,11.0507 C42.3108,12.9477 44.0318,12.2957 45.2748,11.2887 C46.7578,10.1617 46.0468,7.8507 45.5718,6.4877 C44.0908,5.1237 42.1338,4.2347 40.1188,5.0647 C38.6378,6.1317 37.3338,7.7917 37.0368,9.6287 C37.6888,12.0587 38.7578,15.0817 41.5418,15.8527 C44.0318,16.3857 45.6908,15.0817 47.5288,14.1337 C49.1288,12.5927 49.9588,8.6807 52.9218,11.0507 C58.9688,14.2517 58.7908,21.0687 60.3318,26.6987 C60.3898,32.6857 59.5598,37.2497 56.6558,42.0507" id="Fill-22" fill="#966A43"></path>
                            <path d="M57.189,55.6835 C55.115,57.1065 51.5,56.6325 50.966,59.9515 C49.484,63.7445 45.453,67.4785 41.542,68.4865 C35.556,67.7155 29.806,65.1075 26.19,59.6545 L27.079,58.5285 C25.005,57.4615 22.101,57.5215 21.626,54.5575 C21.507,51.2975 20.382,46.3185 23.642,43.7695 C25.716,41.9915 27.673,39.9755 30.161,39.2055 L30.755,39.7395 C31.347,38.0795 32.948,37.0715 34.726,36.3605 C39.882,36.4785 46.105,35.3525 48.654,40.6285 C49.484,39.1465 51.5,39.7985 52.685,40.0355 C54.343,40.6285 55.531,42.4655 56.062,44.0065 C54.343,47.9185 59.263,44.8955 59.502,47.7415 C59.205,50.5265 61.22,54.3795 57.189,55.6835" id="Fill-24" fill="#E7D2AC"></path>
                            <path d="M54.107,39.2055 C51.794,36.8935 48.357,39.3835 46.402,36.0645 C45.038,35.2935 43.379,35.2935 41.838,34.9375 C41.364,29.4845 41.956,23.2615 46.699,20.1205 C48.773,19.0535 51.617,19.6455 53.513,20.7125 C57.664,23.9135 58.138,29.3665 56.953,34.0485 C55.767,35.7085 55.884,37.8425 54.107,39.2055" id="Fill-26" fill="#FEFEFE"></path>
                            <path d="M57.4859,53.1342 C56.4199,52.1862 56.2999,49.8742 54.6399,49.4592 C55.6479,48.8672 56.7149,50.2892 57.1889,51.1192 C57.1309,51.8892 57.6639,52.3642 57.4859,53.1342" id="Fill-28" fill="#221F20"></path>
                            <path d="M48.1206,59.9516 C45.9276,62.2626 43.7346,64.5746 40.7126,64.8116 C36.5036,63.9226 31.9406,61.4326 30.1616,57.1066 L24.4716,53.1346 C23.8776,53.7866 24.5306,55.0316 23.9386,55.6836 L23.6416,55.6836 C23.9966,53.4906 23.7006,50.0526 26.7846,48.8676 L26.7846,49.9936 C25.9536,49.7566 25.6576,50.7636 25.0656,51.1196 C24.9466,54.6166 28.8586,54.3796 30.7546,55.9796 C33.5996,56.5726 36.8006,56.2766 39.2906,55.1506 L39.5876,47.1486 L40.1186,47.1486 C40.2376,49.9336 40.5346,52.3646 40.4156,55.3876 C44.6826,57.3426 49.5426,55.6836 53.2186,53.7276 C54.4626,53.1936 54.5816,50.7636 56.0616,51.7126 C53.8096,55.8616 48.4176,54.9136 48.1206,59.9516" id="Fill-30" fill="#562600"></path>
                            <path d="M49.5425,32.6264 C48.3565,33.2194 47.3495,31.7964 46.4015,30.9674 C46.6985,29.3074 46.6985,27.2324 48.4175,26.4024 C50.0755,26.5214 49.7805,28.4774 50.3725,29.5444 C49.7205,30.7304 50.6695,31.6184 49.5425,32.6264" id="Fill-32" fill="#562600"></path>
                            <path d="M47.8238,29.5444 C47.1718,28.8924 47.7648,28.0034 48.4178,27.5284 L49.2478,29.2474 C48.9508,29.7814 48.2988,29.4254 47.8238,29.5444" id="Fill-34" fill="#FEFEFE"></path>
                            <path d="M44.979,61.3735 L44.979,57.6985 L48.417,57.1065 C47.707,58.7655 46.402,60.6025 44.979,61.3735" id="Fill-36" fill="#FEFEFE"></path>
                            <path d="M45.8081,44.0068 C44.3271,44.0668 42.6681,43.8288 41.5411,44.8958 L41.0081,43.7698 L40.4151,44.3028 C42.8461,43.2358 44.8011,39.0868 47.8241,41.4578 C48.4761,43.1178 46.4601,43.1768 45.8081,44.0068" id="Fill-38" fill="#562600"></path>
                            <path d="M43.8521,43.1772 C44.0321,42.0512 45.2161,42.1102 46.1051,42.0512 C45.6301,43.0582 44.8601,43.1772 43.8521,43.1772" id="Fill-40" fill="#966A43"></path>
                            <path d="M40.7124,71.9243 C41.1864,70.1463 43.0824,71.6273 43.8524,71.3313 L44.1494,71.6273 C42.8464,71.3903 42.0164,72.2203 40.7124,71.9243" id="Fill-42" fill="#A68A6A"></path>
                            <path d="M42.4302,63.3886 L41.3052,63.3886 C41.0082,61.1956 40.0602,59.2996 40.4152,56.8096 L43.8522,57.4026 C43.3792,59.4176 45.0372,62.7966 42.4302,63.3886" id="Fill-44" fill="#FEFEFE"></path>
                            <path d="M39.5874,63.3886 C36.8604,63.2116 36.6224,60.7816 36.4444,58.5286 C36.3254,57.8176 36.4444,56.9276 37.2744,56.8096 C39.7654,56.2176 38.9934,59.4176 39.5874,60.8406 L39.5874,63.3886 Z" id="Fill-46" fill="#FEFEFE"></path>
                            <path d="M38.6968,44.5996 C36.6228,44.3036 34.1928,43.1176 32.1768,41.7546 C32.2358,40.9836 32.6518,40.3316 33.3038,39.7396 C36.1478,39.4426 38.2828,42.1696 38.6968,44.5996" id="Fill-48" fill="#562600"></path>
                            <path d="M37.2749,34.6416 C32.8289,33.5156 31.1099,38.8496 27.0789,38.6136 C24.3529,36.7166 21.7449,34.5226 21.0929,31.2036 C20.2629,26.2846 23.1079,22.4316 26.7839,19.8236 C29.5689,18.8156 32.0579,20.3576 34.1929,21.8386 C36.9199,25.3956 38.4019,30.1966 37.2749,34.6416" id="Fill-50" fill="#FEFEFE"></path>
                            <path d="M33.5992,41.458 L33.5992,41.162 C35.0232,40.154 36.0312,41.695 37.0372,42.584 C36.1482,43 34.6672,41.992 33.5992,41.458" id="Fill-52" fill="#966A43"></path>
                            <path d="M35.6148,61.3735 C33.8378,60.3665 32.2358,59.1215 31.5848,57.1065 C32.5928,57.6395 33.8958,57.3425 35.0228,57.4025 C34.9038,58.8245 35.9698,59.8325 35.6148,61.3735" id="Fill-54" fill="#FEFEFE"></path>
                            <path d="M33.3042,34.0488 C32.1182,33.8708 31.3462,33.4558 30.4582,32.6268 C30.8132,30.8478 30.8132,28.8928 32.1772,27.5288 C33.3042,27.0548 34.0152,28.2398 34.4292,28.9518 C34.0152,31.0268 35.4952,32.7448 33.3042,34.0488" id="Fill-56" fill="#562600"></path>
                            <path d="M32.4737,30.3745 L32.4737,28.6555 C32.8287,28.2405 33.4237,28.7145 33.5987,29.2475 L33.5987,30.3745 L32.4737,30.3745 Z" id="Fill-58" fill="#FEFEFE"></path>
                            <path d="M19.3741,80.4599 C16.5891,76.5469 17.3001,69.9089 19.3741,65.9379 C19.5521,65.4629 20.5601,65.1069 21.0931,65.6419 C25.9541,69.1389 21.4481,74.4139 21.6261,78.7409 C20.8561,79.3329 20.3821,80.4599 19.3741,80.4599" id="Fill-60" fill="#E7D2AC"></path>
                            <path d="M19.9678,49.9936 C17.4188,50.4676 16.2918,47.6226 14.2758,46.8516 C9.4748,45.4296 3.7848,44.3626 1.4728,38.9096 C-0.0102,35.4126 1.0738,31.4096 3.4298,28.9516 C4.7168,27.6076 12.1428,28.5966 15.4038,30.9676 C18.0108,34.4046 17.1808,39.2646 19.3738,42.8806 C22.9888,44.8956 18.4858,47.0886 19.9678,49.9936" id="Fill-62" fill="#E7D2AC"></path>
                            <path d="M17.3584,42.8808 C16.1144,40.4508 15.5814,37.2498 12.5564,36.0648 C11.3714,36.2418 9.8904,37.0128 9.7124,38.3168 C9.6524,40.1538 10.6604,41.7548 12.2594,42.5848 C12.9704,42.5248 13.7424,42.7028 13.9784,43.1768 C11.8454,44.1838 10.0074,41.6358 9.1194,40.0358 C8.4084,38.8498 9.2384,37.6648 9.7124,36.6568 L11.6684,35.2348 C9.4744,33.8708 6.9254,34.1678 4.5544,34.9378 L4.3184,34.6418 C6.5114,33.3378 9.7714,33.3378 12.2594,34.6418 C15.1654,36.1828 17.6554,39.6798 17.3584,42.8808" id="Fill-64" fill="#562600"></path>
                            <path d="M14.5137,80.4599 C10.7187,80.0439 12.4977,75.3609 10.8377,73.0499 C10.6017,70.3819 12.0817,67.7749 13.9787,65.6419 C15.8757,65.4629 15.5807,67.6569 16.8257,68.4859 C14.7497,72.2789 18.7217,78.0289 14.5137,80.4599" id="Fill-66" fill="#E7D2AC"></path>
                            <path d="M10.541,77.0214 C10.719,78.1474 10.424,79.0964 9.713,79.8664 C6.629,80.5774 7.342,76.7854 6.57,75.0654 C6.926,72.4574 5.621,68.4864 7.697,66.2334 C8.764,65.4634 9.594,67.0044 10.541,67.3604 C10.127,70.3824 8.822,74.1754 10.541,77.0214" id="Fill-68" fill="#E7D2AC"></path>
                        </g>
                    </g>
                    <g id="Page-1" transform="translate(118.000000, 22.000000)">
                        <g id="Group-3" transform="translate(0.000000, 7.809687)">
                            <mask id="mask-2" fill="white">
                                <use xlink:href="#path-1"></use>
                            </mask>
                            <g id="Clip-2"></g>
                            <path d="M6.13637615,2.514375 C4.41454128,3.439375 3.44288991,4.114375 2.19518349,5.614375 C1.79591743,6.089375 2.02050459,7.039375 3.04518349,7.014375 C4.21802752,6.989375 5.1896789,5.264375 6.93802752,4.714375 C7.33729358,4.589375 7.43399083,1.814375 6.13637615,2.514375 M12.5761009,9.614375 C11.0523394,8.314375 10.5813303,7.039375 10.0806881,5.114375 C9.7796789,3.964375 9.03261468,4.239375 8.63490826,4.664375 C7.18444954,6.239375 6.16444954,7.264375 4.24142202,8.364375 C0.945917431,10.264375 -0.849220183,6.739375 0.396926606,4.864375 C1.92068807,2.589375 3.91545872,1.514375 5.93830275,0.564375 C6.90995413,0.114375 7.88472477,-0.160625 8.63490826,0.514375 C9.15738532,0.989375 9.45683486,1.214375 10.0292202,0.464375 C10.4799541,-0.135625 11.4032569,0.389375 11.6777523,1.014375 C12.4747248,2.814375 11.428211,7.089375 13.7723394,7.764375 C14.5708716,7.989375 13.3980275,10.314375 12.5761009,9.614375" id="Fill-1" fill="#562600" mask="url(#mask-2)"></path>
                        </g>
                        <path d="M22.3815138,4.94828125 C21.8824312,4.27328125 22.1070183,3.97328125 21.0355505,3.22328125 C20.4350917,2.79828125 21.6328899,1.42328125 22.231789,1.79828125 C23.0552752,2.32328125 23.5060092,2.94984375 23.8803211,3.74828125 C24.2031651,4.42328125 22.7324312,5.42484375 22.3815138,4.94828125 M23.2065596,9.97484375 C24.8769266,14.1732812 25.5007798,19.6982812 23.6541743,21.5982812 C21.4348165,23.8732812 18.4403211,23.8982812 17.4405963,21.6732812 C16.9165596,20.4982812 17.5170183,19.6248437 17.7416055,18.3748437 C17.8913303,17.5732812 19.0361009,18.1982812 18.8629817,19.2732812 C18.5884862,20.9732812 18.338945,21.8732812 20.4350917,21.6732812 C22.5577523,21.4732812 23.3812385,19.6482812 23.2798624,17.7732812 C23.081789,13.8248437 22.0072018,11.6482812 20.4350917,8.02484375 C20.0358257,7.09828125 21.0838991,5.89828125 21.9338991,6.52484375 C23.1800459,7.44984375 23.5793119,6.89828125 23.8803211,7.57484375 C24.5540826,9.07484375 22.4579358,8.12328125 23.2065596,9.97484375" id="Fill-4" fill="#562600"></path>
                        <path d="M36.3297798,17.6985937 C35.5078532,17.0485937 35.2333578,15.4985937 34.607945,14.0985937 C34.2102385,13.2235937 33.9591376,12.8735937 33.4850092,13.7985937 C32.5367523,15.6235937 31.6633578,16.8235937 29.8931743,16.6485937 C26.4229908,16.3235937 26.7224404,10.8485937 27.4227156,7.05015625 C27.5474862,6.37359375 29.5422569,6.54859375 29.2927156,7.64859375 C28.9464771,9.14859375 28.5955596,11.6235937 29.5188624,13.8735937 C30.0662936,15.2235937 30.9895963,14.5485937 31.4652844,13.9501562 C32.4369358,12.6985937 33.2105138,11.3501562 33.0373945,9.45015625 C32.9609725,8.69859375 34.8590459,8.15015625 35.2084037,9.37359375 C35.9305138,11.9485937 36.6806972,15.0735937 37.6788624,15.8235937 C39.0263853,16.8485937 37.030055,18.2501562 36.3297798,17.6985937" id="Fill-6" fill="#562600"></path>
                        <path d="M47.1346055,17.8496875 C45.0384587,16.8996875 46.0132294,13.523125 45.2646055,12.223125 C44.7405688,11.2996875 44.4411193,11.2996875 44.0668073,11.773125 C43.1435046,12.948125 43.2448807,14.3996875 42.1203853,15.148125 C40.5482752,16.198125 40.000844,14.2996875 40.0242385,13.723125 C40.0975413,11.773125 39.5984587,9.948125 38.828,8.848125 C38.4006606,8.248125 39.6499266,6.5996875 40.774422,7.1996875 C41.5199266,7.598125 41.2703853,9.573125 41.6696514,11.1746875 C41.870844,12.023125 42.3465321,11.9246875 42.7941468,11.4746875 C43.6441468,10.6246875 43.6924954,10.1246875 44.2165321,8.773125 C44.4910275,8.0496875 45.7636881,8.648125 46.1629541,9.298125 C47.2593761,11.0746875 47.1346055,15.8996875 48.1857982,16.348125 C49.5567156,16.923125 48.5086422,18.473125 47.1346055,17.8496875" id="Fill-8" fill="#562600"></path>
                        <path d="M53.3243211,10.2735937 C52.2762477,10.7985937 51.7038624,12.3985937 52.2762477,13.1235937 C52.9016606,13.8985937 54.1462477,13.1235937 54.6702844,12.2985937 C55.5935872,10.7985937 56.4435872,9.77515625 55.9445046,9.29859375 C55.568633,8.94859375 54.4488165,9.69859375 53.3243211,10.2735937 M56.8444128,22.1235937 C55.046156,24.4235937 52.7753303,24.5235937 50.8538624,22.8735937 C49.5312936,21.7485937 48.3834037,18.2985937 50.1052385,18.5235937 C51.2531284,18.6735937 49.805789,21.5735937 52.1265229,22.1235937 C55.8431284,23.0001562 57.7427615,18.1735937 57.5166147,15.5985937 C57.4199174,14.4001562 57.5415688,14.4985937 57.2951468,12.5235937 C57.2436789,12.1985937 57.0939541,11.6735937 56.5434037,12.1485937 C55.9678991,12.6501562 54.395789,15.5985937 52.5023945,15.0735937 C50.1801009,14.4235937 49.032211,11.8235937 52.4010183,8.94859375 C54.0495505,7.54859375 57.0939541,6.17359375 58.2667982,8.17359375 C59.3148716,9.97515625 58.6660642,10.7235937 58.7908349,12.3735937 C59.0403761,15.8485937 59.2415688,19.0485937 56.8444128,22.1235937" id="Fill-10" fill="#562600"></path>
                        <g id="Group-14" transform="translate(60.266055, 0.559687)" fill="#562600">
                            <path d="M3.3923945,15.4146875 C3.3643211,16.0896875 1.94193578,15.9646875 1.74386239,15.1146875 C0.970284404,11.7646875 2.14312844,9.6896875 1.44597248,6.338125 C1.1449633,4.8896875 0.769091743,3.1646875 0.0968899083,1.2396875 C-0.350724771,-0.0353125 2.59074312,-0.5103125 2.64377064,0.7146875 C2.69211927,1.8646875 3.3643211,4.6646875 3.54211927,7.2396875 C3.76358716,10.438125 3.51716514,12.2146875 3.3923945,15.4146875" id="Fill-12"></path>
                        </g>
                        <path d="M74.5880459,8.549375 C72.666578,8.749375 70.1961193,9.749375 68.8485963,11.1978125 C68.522633,11.549375 68.4992385,12.124375 69.1480459,11.8478125 C70.4940092,11.299375 73.0408899,11.349375 75.0356606,9.849375 C75.709422,9.349375 75.1120826,8.499375 74.5880459,8.549375 M70.8449266,17.549375 C68.4992385,16.774375 66.0287798,15.5478125 66.499789,12.9478125 C66.9520826,10.5478125 68.2730917,9.474375 70.1961193,8.249375 C72.1659358,6.999375 74.1373119,6.399375 76.1352018,7.449375 C77.4328165,8.124375 77.5825413,9.674375 76.483,10.749375 C74.9873119,12.224375 73.5883211,12.024375 71.7432752,12.849375 C70.1961193,13.549375 69.1963945,13.374375 68.8485963,12.899375 C68.7487798,12.749375 68.4228165,12.524375 68.3495138,13.099375 C68.123367,14.8978125 70.2678624,15.6228125 71.8914404,16.049375 C73.839422,16.549375 75.0840092,16.3978125 77.0834587,16.049375 C77.8055688,15.924375 77.9303394,16.774375 77.5825413,16.9978125 C75.8856606,18.074375 72.6416239,18.149375 70.8449266,17.549375" id="Fill-15" fill="#562600"></path>
                        <path d="M92.4553578,10.2735937 C92.1044404,9.72359375 91.9313211,10.7501562 91.1826972,10.5735937 C90.4091193,10.3985937 90.5853578,9.54859375 89.1629725,10.5001562 C88.3613211,11.0485937 87.9137064,11.6485937 87.8887523,12.5985937 C87.8372844,13.8985937 88.2880183,15.0501562 89.9848991,15.2235937 C91.1577431,15.3485937 91.9796697,14.7485937 92.6050826,13.7235937 C93.3022385,12.5485937 93.0043486,11.1235937 92.4553578,10.2735937 M89.3844404,17.0235937 C87.3413211,16.6735937 85.8175596,14.6735937 85.8659083,12.9751562 C85.9173761,11.1501562 86.865633,9.97515625 88.412789,9.00015625 C89.3360917,8.42359375 89.8601284,8.17359375 90.5853578,7.42359375 C91.6053578,6.37359375 92.7532477,6.79859375 93.0558165,7.64859375 C93.6282018,9.24859375 94.7760917,10.6985937 94.3253578,12.6735937 C93.7529725,15.1985937 91.9313211,17.4485937 89.3844404,17.0235937" id="Fill-17" fill="#562600"></path>
                        <path d="M103.881385,7.34859375 C103.758174,6.20015625 104.232303,5.02515625 103.333954,4.05015625 C102.560376,3.20015625 101.186339,2.14859375 100.537532,3.09859375 C99.7639541,4.25015625 99.8403761,6.87359375 100.089917,9.29859375 C100.139826,9.79859375 100.412761,10.0501563 100.836982,10.1001563 C102.335789,10.2735938 103.633404,9.94859375 105.428541,9.85015625 C106.303495,9.79859375 105.904229,10.5985938 105.626615,10.8985938 C104.828083,11.7485938 102.46056,11.6235938 100.936798,11.8485938 C100.58744,11.8985938 100.214688,12.0485938 100.188174,12.3985938 C100.089917,13.5735938 100.613954,15.3485938 101.638633,15.2501563 C102.310835,15.1735938 102.211018,17.0235938 101.585606,17.0485938 C100.16322,17.1235938 99.3646881,16.3985938 99.041844,15.2985938 C98.765789,14.3235938 98.8172569,13.5985938 98.7408349,12.6985938 C98.7158807,12.2985938 98.4912936,11.8485938 98.0920275,11.8985938 C97.3948716,12.0001563 96.5464312,12.2501563 95.799367,11.7485938 C95.2238624,11.3735938 95.0507431,10.3001563 95.6480826,10.1985938 C96.2469817,10.1001563 97.1687248,10.2235938 97.9423028,10.1985938 C98.2417523,10.1985938 98.4912936,9.94859375 98.4912936,9.65015625 C98.4663394,6.69859375 98.3930367,5.07359375 98.7408349,2.19859375 C98.9170734,0.74859375 100.16322,0.64859375 101.186339,0.94859375 C103.856431,1.72359375 105.278817,3.34859375 105.727991,5.94859375 C105.802853,6.37359375 103.981202,8.24859375 103.881385,7.34859375" id="Fill-19" fill="#562600"></path>
                        <path d="M118.929505,9.3734375 C119.054275,8.5734375 118.503725,8.35 118.104459,8.55 C117.532073,8.8234375 117.07978,9.1734375 116.306202,9.45 C116.008312,9.5484375 116.008312,10.05 116.232899,10.2734375 C117.728587,11.7234375 118.578587,12.45 119.827853,14.025 C120.501615,14.875 120.400239,15.9 119.676569,16.5734375 C118.753266,17.4234375 115.359505,18.7234375 114.211615,18 C112.840697,17.1234375 113.63767,15.7984375 114.810514,16.2734375 C115.710422,16.625 116.632165,16.3734375 117.580422,15.8234375 C118.280697,15.4234375 117.979688,14.8234375 117.507119,14.1734375 C115.758771,11.7734375 114.06189,11.75 113.614275,10.425 C113.288312,9.45 113.512899,8.55 114.35978,8.1734375 C115.733817,7.575 118.006202,6.1734375 119.002807,6.4484375 C120.574917,6.8734375 120.799505,7.7 120.574917,8.7734375 C120.450147,9.4 118.829688,10.05 118.929505,9.3734375" id="Fill-21" fill="#562600"></path>
                        <path d="M136.594064,17.0242188 C134.823881,15.8742188 134.99856,14.0492188 134.424615,11.9992188 C134.200028,11.1976563 133.474798,11.4492188 133.151954,11.8476563 C132.627917,12.4992188 131.930761,12.9492188 131.355257,13.8726563 C130.955991,14.4992188 130.081037,14.5742188 129.483697,13.7242188 C129.134339,13.2226563 128.884798,12.9492188 128.658651,12.3726563 C128.384156,11.6742188 128.287459,11.7742188 127.836725,12.2992188 C126.590578,13.7492188 126.364431,15.0492188 124.842229,16.1992188 C124.343147,16.5742188 123.120394,16.6992188 123.043972,15.9742188 C122.870853,14.2492188 122.596358,13.2742188 122.222046,11.6242188 C121.896083,10.1242188 121.896083,9.14921875 122.448193,7.72421875 C122.771037,6.89921875 124.467917,7.77421875 124.394615,8.77421875 C124.293239,10.1742188 124.092046,11.0242188 124.467917,12.3726563 C124.692505,13.1992188 124.991954,13.3242188 125.216541,13.0492188 C126.514156,11.4492188 127.462413,10.0242188 127.836725,8.47421875 C127.98489,7.82421875 129.432229,7.84921875 129.557,8.39765625 C129.806541,9.47421875 130.057642,10.0992188 130.307183,11.1742188 C130.531771,12.1492188 131.230486,11.4992188 131.653147,11.1742188 C132.825991,10.2992188 132.877459,9.09921875 133.675991,7.87421875 C134.075257,7.24921875 135.396266,7.74765625 135.545991,8.47421875 C136.045073,10.9492188 136.520761,13.3476563 137.943147,16.1242188 C138.317459,16.8742188 137.169569,17.3992188 136.594064,17.0242188" id="Fill-23" fill="#562600"></path>
                        <path d="M140.337807,16.4245312 C139.515881,15.5245312 139.040193,14.5729687 138.991844,13.5745312 C138.890468,11.4479687 138.96689,10.2229687 138.915422,8.09953125 C138.890468,6.87453125 140.986615,7.62453125 140.938266,8.77453125 C140.861844,10.7245312 140.188083,12.0245312 141.011569,13.7979687 C141.385881,14.6245312 141.785147,14.9995312 142.360651,15.6745312 C143.134229,16.5745312 140.813495,16.9495312 140.337807,16.4245312 M140.712119,4.64953125 C139.241385,4.94796875 138.291569,4.14953125 137.717624,3.22453125 C137.419734,2.74953125 137.742578,2.12453125 138.765697,2.24953125 C139.788817,2.37453125 140.462578,2.64953125 141.236156,3.22453125 C141.909917,3.72453125 141.337532,4.52453125 140.712119,4.64953125" id="Fill-25" fill="#562600"></path>
                        <g id="Group-29" transform="translate(142.926606, 0.559687)" fill="#562600">
                            <path d="M3.57674312,15.4146875 C3.54866972,16.0896875 2.1262844,15.9646875 1.92821101,15.1146875 C1.15463303,11.7646875 2.32747706,9.6896875 1.6303211,6.338125 C1.32931193,4.8896875 0.953440367,3.1646875 0.281238532,1.2396875 C-0.166376147,-0.0353125 2.77509174,-0.5103125 2.82811927,0.7146875 C2.87646789,1.8646875 3.54866972,4.6646875 3.72646789,7.2396875 C3.94793578,10.438125 3.70151376,12.2146875 3.57674312,15.4146875" id="Fill-27"></path>
                        </g>
                        <path d="M157.432945,8.549375 C155.511477,8.749375 153.041018,9.749375 151.693495,11.1978125 C151.367532,11.549375 151.344138,12.124375 151.992945,11.8478125 C153.338908,11.299375 155.885789,11.349375 157.88056,9.849375 C158.554321,9.349375 157.956982,8.499375 157.432945,8.549375 M153.689826,17.549375 C151.344138,16.774375 148.873679,15.5478125 149.344688,12.9478125 C149.796982,10.5478125 151.117991,9.474375 153.041018,8.249375 C155.010835,6.999375 156.982211,6.399375 158.980101,7.449375 C160.277716,8.124375 160.42744,9.674375 159.327899,10.749375 C157.832211,12.224375 156.43322,12.024375 154.588174,12.849375 C153.041018,13.549375 152.041294,13.374375 151.693495,12.899375 C151.593679,12.749375 151.267716,12.524375 151.194413,13.099375 C150.968266,14.8978125 153.112761,15.6228125 154.736339,16.049375 C156.684321,16.549375 157.932028,16.3978125 159.928358,16.049375 C160.650468,15.924375 160.775239,16.774375 160.42744,16.9978125 C158.73056,18.074375 155.486523,18.149375 153.689826,17.549375" id="Fill-30" fill="#562600"></path>
                        <path d="M167.686284,9.3734375 C167.811055,8.5734375 167.263624,8.35 166.864358,8.55 C166.290413,8.8234375 165.839679,9.1734375 165.066101,9.45 C164.768211,9.5484375 164.768211,10.05 164.992798,10.2734375 C166.488486,11.7234375 167.338486,12.45 168.584633,14.025 C169.258394,14.875 169.160138,15.9 168.434908,16.5734375 C167.513165,17.4234375 164.119404,18.7234375 162.971514,18 C161.600596,17.1234375 162.397569,15.7984375 163.570413,16.2734375 C164.468761,16.625 165.392064,16.3734375 166.340321,15.8234375 C167.037477,15.4234375 166.739587,14.8234375 166.263899,14.1734375 C164.51867,11.7734375 162.821789,11.75 162.371055,10.425 C162.048211,9.45 162.272798,8.55 163.119679,8.1734375 C164.493716,7.575 166.762982,6.1734375 167.762706,6.4484375 C169.334817,6.8734375 169.559404,7.7 169.334817,8.7734375 C169.210046,9.4 167.589587,10.05 167.686284,9.3734375" id="Fill-32" fill="#562600"></path>
                        <g id="Group-29" transform="translate(142.926606, 0.559687)" fill="#562600">
                            <path d="M3.57674312,15.4146875 C3.54866972,16.0896875 2.1262844,15.9646875 1.92821101,15.1146875 C1.15463303,11.7646875 2.32747706,9.6896875 1.6303211,6.338125 C1.32931193,4.8896875 0.953440367,3.1646875 0.281238532,1.2396875 C-0.166376147,-0.0353125 2.77509174,-0.5103125 2.82811927,0.7146875 C2.87646789,1.8646875 3.54866972,4.6646875 3.72646789,7.2396875 C3.94793578,10.438125 3.70151376,12.2146875 3.57674312,15.4146875" id="Fill-27"></path>
                        </g>
                        <path d="M157.432945,8.549375 C155.511477,8.749375 153.041018,9.749375 151.693495,11.1978125 C151.367532,11.549375 151.344138,12.124375 151.992945,11.8478125 C153.338908,11.299375 155.885789,11.349375 157.88056,9.849375 C158.554321,9.349375 157.956982,8.499375 157.432945,8.549375 M153.689826,17.549375 C151.344138,16.774375 148.873679,15.5478125 149.344688,12.9478125 C149.796982,10.5478125 151.117991,9.474375 153.041018,8.249375 C155.010835,6.999375 156.982211,6.399375 158.980101,7.449375 C160.277716,8.124375 160.42744,9.674375 159.327899,10.749375 C157.832211,12.224375 156.43322,12.024375 154.588174,12.849375 C153.041018,13.549375 152.041294,13.374375 151.693495,12.899375 C151.593679,12.749375 151.267716,12.524375 151.194413,13.099375 C150.968266,14.8978125 153.112761,15.6228125 154.736339,16.049375 C156.684321,16.549375 157.932028,16.3978125 159.928358,16.049375 C160.650468,15.924375 160.775239,16.774375 160.42744,16.9978125 C158.73056,18.074375 155.486523,18.149375 153.689826,17.549375" id="Fill-30" fill="#562600"></path>
                        <path d="M167.686284,9.3734375 C167.811055,8.5734375 167.263624,8.35 166.864358,8.55 C166.290413,8.8234375 165.839679,9.1734375 165.066101,9.45 C164.768211,9.5484375 164.768211,10.05 164.992798,10.2734375 C166.488486,11.7234375 167.338486,12.45 168.584633,14.025 C169.258394,14.875 169.160138,15.9 168.434908,16.5734375 C167.513165,17.4234375 164.119404,18.7234375 162.971514,18 C161.600596,17.1234375 162.397569,15.7984375 163.570413,16.2734375 C164.468761,16.625 165.392064,16.3734375 166.340321,15.8234375 C167.037477,15.4234375 166.739587,14.8234375 166.263899,14.1734375 C164.51867,11.7734375 162.821789,11.75 162.371055,10.425 C162.048211,9.45 162.272798,8.55 163.119679,8.1734375 C164.493716,7.575 166.762982,6.1734375 167.762706,6.4484375 C169.334817,6.8734375 169.559404,7.7 169.334817,8.7734375 C169.210046,9.4 167.589587,10.05 167.686284,9.3734375" id="Fill-32" fill="#562600"></path>
                    </g>
                    <g id="Page-1" transform="translate(119.000000, 50.000000)">
                        <mask id="mask-4" fill="white">
                            <use xlink:href="#path-3"></use>
                        </mask>
                        <g id="Clip-2"></g>
                        <path d="M8.21096883,4.56374118 C8.36325455,4.80197647 8.54535844,4.92056471 8.75834545,4.92056471 C8.8872026,4.92056471 9.00541039,4.83162353 9.1119039,4.6548 C9.2183974,4.47691765 9.27164416,4.26303529 9.27164416,4.01421176 C9.27164416,3.37891765 8.96387792,2.8728 8.34834545,2.4948 C7.73174805,2.1168 7.02463117,1.92727059 6.22699481,1.92727059 C4.75205974,1.92727059 3.34528052,2.51174118 2.00665714,3.67962353 C0.669098701,4.84750588 0.000319480519,5.96456471 0.000319480519,7.02974118 C0.000319480519,7.56656471 0.194137662,7.96150588 0.581774026,8.21456471 C0.96941039,8.46868235 1.61582597,8.59468235 2.51995584,8.59468235 C3.07478701,8.59468235 3.81278701,8.5248 4.73289091,8.38503529 C5.65299481,8.24527059 6.31431948,8.17538824 6.71686494,8.17538824 C7.49213766,8.17538824 8.0916961,8.41574118 8.51341039,8.89644706 C8.93512468,9.37715294 9.14598182,10.0188 9.14598182,10.8213882 C9.14598182,11.6472706 8.59115065,12.4975059 7.48148831,13.3720941 C6.37076104,14.2466824 5.26855325,14.6839765 4.1738,14.6839765 C3.53483896,14.6839765 2.99385195,14.4912706 2.54870909,14.1079765 C2.10356623,13.7236235 1.88205974,13.4356235 1.88205974,13.2439765 C1.88205974,13.1762118 1.94063117,13.1148 2.05883896,13.0586824 C2.17598182,13.0025647 2.23561818,12.9115059 2.23561818,12.7844471 C2.23561818,12.4477412 1.89270909,12.2793882 1.20902078,12.2793882 C1.06418961,12.2793882 0.908709091,12.3291529 0.741514286,12.4276235 C0.574319481,12.5250353 0.49018961,12.6542118 0.49018961,12.8130353 C0.49018961,13.5383294 0.7298,14.0105647 1.20902078,14.2297412 C1.8778,15.1752706 2.80535844,15.6475059 3.9916961,15.6475059 C5.25364416,15.6475059 6.60078701,15.1583294 8.03418961,14.1789176 C9.46759221,13.2005647 10.1842935,12.1735059 10.1842935,11.1009176 C10.1842935,9.7848 9.92338442,8.80221176 9.40263117,8.15209412 C8.88187792,7.50197647 7.87977403,7.17691765 6.39738442,7.17691765 C5.73605974,7.17691765 4.88837143,7.25632941 3.85431948,7.41515294 C2.82026753,7.57397647 2.21644935,7.65338824 2.0418,7.65338824 C1.37941039,7.65338824 1.04928052,7.36221176 1.04928052,6.78091765 C1.04928052,5.9868 1.5679039,5.10585882 2.60621558,4.13809412 C3.64346234,3.17138824 4.77442338,2.68750588 5.99803377,2.68750588 C6.52304675,2.68750588 7.18437143,2.95962353 7.98307273,3.50385882 C7.98307273,3.97185882 8.05868312,4.32550588 8.21096883,4.56374118 L8.21096883,4.56374118 Z M17.2086052,5.32927059 C16.7751766,5.17785882 16.3992545,5.10268235 16.079774,5.10268235 C14.7645792,5.10268235 13.7081636,5.53362353 12.9094623,6.39444706 C12.110761,7.25632941 11.7124753,8.39032941 11.7124753,9.79644706 C11.7124753,10.8775059 12.0159818,11.8410353 12.6240597,12.6880941 C13.2321377,13.5340941 13.9168909,13.9576235 14.6772545,13.9576235 C16.2128909,13.9576235 17.4215922,13.1296235 18.3033584,11.4746824 C18.2426571,12.5176235 18.212839,13.2280941 18.212839,13.6060941 C18.212839,14.1206824 18.474813,14.3769176 18.999826,14.3769176 C19.1893844,14.3769176 19.2841636,14.2900941 19.2841636,14.1164471 L19.1478519,10.0124471 C19.1478519,9.80809412 19.196839,9.07115294 19.2958779,7.80056471 C19.3949169,6.53103529 19.4439039,5.73374118 19.4439039,5.40868235 C19.4439039,4.81891765 19.1744753,4.52456471 18.6345532,4.52456471 C18.2543714,4.52456471 18.0637481,4.95127059 18.0637481,5.80574118 C17.9274364,5.63950588 17.6420338,5.48068235 17.2086052,5.32927059 L17.2086052,5.32927059 Z M17.276761,11.6504471 C16.6228909,12.6595059 15.8284494,13.1645647 14.8934364,13.1645647 C14.1788649,13.1645647 13.6261636,12.8236235 13.2342675,12.1438588 C12.8423714,11.4630353 12.6474883,10.6202118 12.6474883,9.61538824 C12.6474883,8.57244706 12.9701636,7.68409412 13.6165792,6.95032941 C14.2629948,6.21762353 15.1405013,5.85021176 16.2512286,5.85021176 C16.4631506,5.85021176 16.7549429,5.99421176 17.1234104,6.28115294 C17.4918779,6.56915294 17.7069948,6.71209412 17.7676961,6.71209412 C17.9732286,6.71209412 18.1212545,6.68244706 18.212839,6.62209412 L18.2575662,8.42421176 C18.2575662,9.56562353 17.9306312,10.6413882 17.276761,11.6504471 L17.276761,11.6504471 Z M22.6770468,5.90738824 C22.6429688,5.42350588 22.5098519,5.18209412 22.279826,5.18209412 C21.8645013,5.18209412 21.656839,5.49868235 21.656839,6.13397647 C21.656839,6.27056471 21.6919818,6.64115294 21.7643974,7.24574118 C21.836813,7.85032941 21.8730208,8.29291765 21.8730208,8.57244706 L21.8506571,11.3275059 L21.9646052,14.1842118 C21.9646052,14.6236235 22.0593844,14.8428 22.2489429,14.8428 C22.4619299,14.8428 22.6355143,14.7760941 22.7686312,14.6437412 C22.9017481,14.5113882 22.967774,14.3737412 22.967774,14.2297412 C22.967774,13.8517412 22.9336961,13.3773882 22.8655403,12.8066824 C22.7973844,12.2359765 22.7622416,11.7658588 22.7622416,11.3952706 L22.8080338,7.98268235 C23.6290987,7.03715294 24.4395143,6.56491765 25.2371506,6.56491765 C25.8612026,6.56491765 26.2850468,6.61785882 26.5086831,6.72374118 C26.7333844,6.82962353 26.8452026,7.11338824 26.8452026,7.57397647 C26.8452026,7.91385882 26.8771506,8.12562353 26.9421117,8.20927059 C27.0070727,8.29291765 27.1455143,8.33421176 27.3585013,8.33421176 C27.6854364,8.33421176 27.8494364,8.11821176 27.8494364,7.68727059 C27.8494364,7.03715294 27.7141896,6.52574118 27.444761,6.15091765 C27.1753325,5.77715294 26.5246571,5.58974118 25.4938,5.58974118 C24.3702935,5.58974118 23.4565792,5.97938824 22.7505273,6.75762353 C22.7356182,6.67503529 22.7111247,6.39127059 22.6770468,5.90738824 L22.6770468,5.90738824 Z M34.3498,5.32927059 C33.9163714,5.17785882 33.5393844,5.10268235 33.2199039,5.10268235 C31.9047091,5.10268235 30.8482935,5.53362353 30.0495922,6.39444706 C29.2519558,7.25632941 28.8526052,8.39032941 28.8526052,9.79644706 C28.8526052,10.8775059 29.1561117,11.8410353 29.7652545,12.6880941 C30.3733325,13.5340941 31.0570208,13.9576235 31.8173844,13.9576235 C33.3530208,13.9576235 34.5617221,13.1296235 35.4445532,11.4746824 C35.382787,12.5176235 35.3529688,13.2280941 35.3529688,13.6060941 C35.3529688,14.1206824 35.6149429,14.3769176 36.1399558,14.3769176 C36.3295143,14.3769176 36.4253584,14.2900941 36.4253584,14.1164471 L36.2879818,10.0124471 C36.2879818,9.80809412 36.3369688,9.07115294 36.4360078,7.80056471 C36.5350468,6.53103529 36.5840338,5.73374118 36.5840338,5.40868235 C36.5840338,4.81891765 36.3146052,4.52456471 35.7746831,4.52456471 C35.3945013,4.52456471 35.2049429,4.95127059 35.2049429,5.80574118 C35.0675662,5.63950588 34.7821636,5.48068235 34.3498,5.32927059 L34.3498,5.32927059 Z M34.4179558,11.6504471 C33.7640857,12.6595059 32.9696442,13.1645647 32.0346312,13.1645647 C31.3189948,13.1645647 30.7662935,12.8236235 30.3743974,12.1438588 C29.9835662,11.4630353 29.7876182,10.6202118 29.7876182,9.61538824 C29.7876182,8.57244706 30.1102935,7.68409412 30.7567091,6.95032941 C31.4031247,6.21762353 32.2816961,5.85021176 33.3913584,5.85021176 C33.6043455,5.85021176 33.8950727,5.99421176 34.2635403,6.28115294 C34.6320078,6.56915294 34.8471247,6.71209412 34.907826,6.71209412 C35.1133584,6.71209412 35.2613844,6.68244706 35.3529688,6.62209412 L35.398761,8.42421176 C35.398761,9.56562353 35.071826,10.6413882 34.4179558,11.6504471 L34.4179558,11.6504471 Z M39.7830987,3.42974118 C39.9236701,1.96009412 39.9939558,1.09609412 39.9939558,0.8388 C39.9939558,0.279741176 39.8161117,0.000211764706 39.4582935,0.000211764706 C39.0855662,0.000211764706 38.8992026,0.301976471 38.8992026,0.906564706 L38.728813,6.93868235 L38.876839,14.1842118 C38.876839,14.5706824 38.9524494,14.7633882 39.1047351,14.7633882 C39.3102675,14.7633882 39.4902416,14.7040941 39.646787,14.5865647 C39.8022675,14.4700941 39.8800078,14.3504471 39.8800078,14.2297412 C39.8800078,13.8284471 39.8459299,13.3096235 39.777774,12.6743294 C39.7096182,12.0379765 39.6478519,10.4253882 39.5956701,7.83656471 C39.9375143,7.34527059 40.3762675,6.94397647 40.9087351,6.63374118 C41.4422675,6.32350588 41.9257481,6.16785882 42.3602416,6.16785882 C42.9321117,6.16785882 43.5806571,6.57127059 44.3090727,7.37703529 C45.0364234,8.18385882 45.3995662,10.0357412 45.3995662,12.9358588 C45.3995662,12.9888 45.3889169,13.1433882 45.3654883,13.4006824 C45.3431247,13.6579765 45.3314104,13.8432706 45.3314104,13.9576235 C45.3314104,14.2371529 45.4709169,14.3769176 45.7488649,14.3769176 C46.0044494,14.3769176 46.1716442,14.3080941 46.2504494,14.1672706 C46.3292545,14.0275059 46.3697221,13.6929176 46.3697221,13.1645647 C46.3697221,10.3978588 45.9948649,8.39774118 45.2462156,7.16632941 C44.4965013,5.93385882 43.5252805,5.31762353 42.3325532,5.31762353 C41.2143714,5.31762353 40.2942675,5.73374118 39.5722416,6.56491765 C39.5722416,5.94550588 39.6425273,4.90044706 39.7830987,3.42974118 L39.7830987,3.42974118 Z M68.9271766,1.04421176 C68.9271766,0.810211765 68.8515662,0.614329412 68.6992805,0.459741176 C68.5469948,0.304094118 68.3734104,0.2268 68.1763974,0.2268 C67.9176182,0.2268 67.7493584,0.282917647 67.6694883,0.396211765 C67.5896182,0.509505882 67.4778,0.891741176 67.3340338,1.5408 C67.1902675,2.18985882 66.8995403,3.09515294 66.4629169,4.25562353 C66.0252286,5.41609412 65.5577221,6.72056471 65.0603974,8.16797647 C64.5620078,9.61644706 63.8346571,11.4746824 62.8772805,13.7426824 C62.0860338,10.6509176 61.2308909,8.05468235 60.310787,5.95397647 C59.9753325,5.20538824 59.5706571,4.19632941 59.0956961,2.9268 C58.6207351,1.65727059 58.3374623,0.952094118 58.244813,0.811270588 C58.1532286,0.671505882 57.8433325,0.600564706 57.3161896,0.600564706 C56.9115143,0.600564706 56.7081117,1.00503529 56.7081117,1.81185882 C56.7081117,2.60597647 56.4674364,4.49809412 55.9860857,7.48821176 C55.5047351,10.4783294 55.2012286,12.2063294 55.0755662,12.6711529 C54.9509688,13.1359765 54.8881377,13.3869176 54.8881377,13.4250353 C54.8881377,13.7045647 54.9829169,13.9163294 55.1735403,14.0603294 C55.3630987,14.2032706 55.5878,14.2752706 55.8465792,14.2752706 C56.1575403,14.2752706 56.3140857,14.1852706 56.3140857,14.0031529 L56.226761,12.2804471 C56.226761,12.0760941 56.4759558,10.5206824 56.9743455,7.61421176 C57.4727351,4.70774118 57.7219299,2.97444706 57.7219299,2.41538824 C58.490813,4.38797647 59.1638519,6.0588 59.7421117,7.4268 C60.3203714,8.79585882 61.0999039,11.1580941 62.081774,14.5145647 C62.2329948,15.0429176 62.3810208,15.3076235 62.524787,15.3076235 C62.8815403,15.3076235 63.1200857,15.2345647 63.2414883,15.0905647 C63.3628909,14.9465647 63.4598,14.7549176 63.5311506,14.5177412 C63.6035662,14.2805647 63.6514883,14.1397412 63.6738519,14.0942118 C64.738787,11.9702118 66.1232026,8.27703529 67.8260338,3.01574118 C68.2775662,4.19527059 68.6811766,5.54738824 69.0368649,7.07315294 C69.3925532,8.59997647 69.6864753,10.1373882 69.9196961,11.6864471 C70.1529169,13.2355059 70.2668649,14.1619765 70.2604753,14.4648 C70.2604753,15.0037412 70.4809169,15.2726824 70.9228649,15.2726824 C71.0517221,15.2726824 71.1773844,15.1636235 71.298787,14.9444471 C71.4201896,14.7252706 71.4808909,14.4870353 71.4808909,14.2297412 C71.4808909,13.8295059 71.3914364,13.2662118 71.2125273,12.5409176 C71.0325532,11.8156235 70.7982675,10.6329176 70.5075403,8.9928 C70.2178779,7.35268235 69.6108649,4.96821176 68.6875662,1.83938824 C68.8473065,1.45291765 68.9271766,1.18821176 68.9271766,1.04421176 L68.9271766,1.04421176 Z M78.3582416,5.32927059 C77.924813,5.17785882 77.547826,5.10268235 77.2294104,5.10268235 C75.9131506,5.10268235 74.8567351,5.53362353 74.0580338,6.39444706 C73.2603974,7.25632941 72.8610468,8.39032941 72.8610468,9.79644706 C72.8610468,10.8775059 73.1656182,11.8410353 73.7736961,12.6880941 C74.381774,13.5340941 75.0654623,13.9576235 75.825826,13.9576235 C77.3614623,13.9576235 78.5701636,13.1296235 79.4529948,11.4746824 C79.3922935,12.5176235 79.3614104,13.2280941 79.3614104,13.6060941 C79.3614104,14.1206824 79.6233844,14.3769176 80.1483974,14.3769176 C80.3379558,14.3769176 80.4338,14.2900941 80.4338,14.1164471 L80.2964234,10.0124471 C80.2964234,9.80809412 80.3464753,9.07115294 80.4444494,7.80056471 C80.5434883,6.53103529 80.5935403,5.73374118 80.5935403,5.40868235 C80.5935403,4.81891765 80.3230468,4.52456471 79.7831247,4.52456471 C79.4029429,4.52456471 79.2133844,4.95127059 79.2133844,5.80574118 C79.0760078,5.63950588 78.7916701,5.48068235 78.3582416,5.32927059 L78.3582416,5.32927059 Z M78.4263974,11.6504471 C77.7725273,12.6595059 76.9780857,13.1645647 76.0430727,13.1645647 C75.3285013,13.1645647 74.7747351,12.8236235 74.3839039,12.1438588 C73.9920078,11.4630353 73.7960597,10.6202118 73.7960597,9.61538824 C73.7960597,8.57244706 74.1198,7.68409412 74.7651506,6.95032941 C75.4115662,6.21762353 76.2901377,5.85021176 77.3998,5.85021176 C77.612787,5.85021176 77.9035143,5.99421176 78.2719818,6.28115294 C78.6415143,6.56915294 78.8555662,6.71209412 78.9162675,6.71209412 C79.1218,6.71209412 79.269826,6.68244706 79.3614104,6.62209412 L79.4072026,8.42421176 C79.4072026,9.56562353 79.0802675,10.6413882 78.4263974,11.6504471 L78.4263974,11.6504471 Z M85.3261117,1.37138824 C85.3261117,1.25809412 85.3793584,1.16809412 85.4858519,1.09927059 C85.5923455,1.03150588 85.6455922,0.9828 85.6455922,0.952094118 C85.6455922,0.627035294 85.4336701,0.465035294 85.0119558,0.465035294 C84.8362416,0.465035294 84.6828909,0.553976471 84.5519039,0.7308 C84.4219818,0.908682353 84.3570208,1.09927059 84.3570208,1.30362353 L84.4709688,5.22656471 L82.2239558,5.20432941 C81.9886052,5.20432941 81.8703974,5.31021176 81.8703974,5.52197647 C81.8703974,5.64268235 81.9385532,5.75068235 82.0759299,5.84491765 C82.2122416,5.93915294 82.3719818,5.9868 82.5551506,5.9868 L84.4251766,6.03232941 C84.0375403,9.49468235 83.8437221,11.9246824 83.8437221,13.3233882 C83.8437221,14.3959765 84.5220857,14.9328 85.878813,14.9328 C86.3590987,14.9328 86.8180857,14.8142118 87.256839,14.5759765 C87.6955922,14.3377412 87.9149688,14.0825647 87.9149688,13.8104471 C87.9149688,13.4250353 87.8116701,13.2323294 87.6050727,13.2323294 C87.4304234,13.2323294 87.1705792,13.3678588 86.8266052,13.6399765 C86.4836961,13.9120941 86.1099039,14.0486824 85.7052286,14.0486824 C85.4762675,14.0486824 85.2792545,13.9745647 85.1152545,13.8273882 C84.9512545,13.6802118 84.8692545,13.4811529 84.8692545,13.2323294 C84.8692545,11.9098588 85.0183455,9.54338824 85.3165273,6.13397647 C86.1099039,6.17950588 86.7009429,6.20174118 87.0907091,6.20174118 C87.288787,6.20174118 87.4836701,6.13609412 87.6742935,6.00374118 C87.8649169,5.87138824 87.9596961,5.73374118 87.9596961,5.58974118 C87.9596961,5.4468 87.8989948,5.31444706 87.7775922,5.19268235 C87.6561896,5.07197647 87.5081636,5.01162353 87.3335143,5.01162353 C87.256839,5.01162353 87.0896442,5.06668235 86.8308649,5.17574118 C86.5731506,5.28585882 86.108839,5.33350588 85.4400597,5.31762353 L85.3261117,1.37138824 Z M90.4292805,3.42974118 C90.5698519,1.96009412 90.6401377,1.09609412 90.6401377,0.8388 C90.6401377,0.279741176 90.4612286,0.000211764706 90.1044753,0.000211764706 C89.7317481,0.000211764706 89.5453844,0.301976471 89.5453844,0.906564706 L89.3739299,6.93868235 L89.5230208,14.1842118 C89.5230208,14.5706824 89.5986312,14.7633882 89.7509169,14.7633882 C89.9564494,14.7633882 90.1364234,14.7040941 90.2919039,14.5865647 C90.4484494,14.4700941 90.5261896,14.3504471 90.5261896,14.2297412 C90.5261896,13.8284471 90.4921117,13.3096235 90.4239558,12.6743294 C90.3547351,12.0379765 90.2940338,10.4253882 90.240787,7.83656471 C90.5836961,7.34527059 91.0213844,6.94397647 91.5549169,6.63374118 C92.0884494,6.32350588 92.5719299,6.16785882 93.0064234,6.16785882 C93.5772286,6.16785882 94.226839,6.57127059 94.9541896,7.37703529 C95.6815403,8.18385882 96.0457481,10.0357412 96.0457481,12.9358588 C96.0457481,12.9888 96.0340338,13.1433882 96.0116701,13.4006824 C95.9882416,13.6579765 95.9775922,13.8432706 95.9775922,13.9576235 C95.9775922,14.2371529 96.1160338,14.3769176 96.3950468,14.3769176 C96.6506312,14.3769176 96.817826,14.3080941 96.8966312,14.1672706 C96.9754364,14.0275059 97.014839,13.6929176 97.014839,13.1645647 C97.014839,10.3978588 96.6410468,8.39774118 95.8913325,7.16632941 C95.1426831,5.93385882 94.1714623,5.31762353 92.9776701,5.31762353 C91.8605532,5.31762353 90.9404494,5.73374118 90.2184234,6.56491765 C90.2184234,5.94550588 90.2887091,4.90044706 90.4292805,3.42974118 L90.4292805,3.42974118 Z M99.5696182,0.453388235 C99.4024234,0.756211765 99.3182935,1.09185882 99.3182935,1.46244706 C99.3182935,2.1888 99.474839,2.55091765 99.7868649,2.55091765 C100.128709,2.55091765 100.405592,2.42491765 100.618579,2.1708 C100.831566,1.91774118 100.93806,1.57997647 100.93806,1.15644706 C100.93806,0.725505882 100.852865,0.4248 100.68141,0.255388235 C100.511021,0.0849176471 100.352345,0.000211764706 100.208579,0.000211764706 C99.9498,0.000211764706 99.736813,0.151623529 99.5696182,0.453388235 L99.5696182,0.453388235 Z M99.0903974,6.80315294 L98.9998779,10.9643294 C98.9998779,11.5848 99.0371506,12.3683294 99.113826,13.3170353 C99.1894364,14.2657412 99.227774,14.8798588 99.227774,15.1593882 C99.227774,15.4240941 99.4215922,15.5564471 99.8092286,15.5564471 C100.090371,15.5564471 100.230943,15.3637412 100.230943,14.9783294 C100.230943,14.6384471 100.192605,14.0243294 100.116995,13.1359765 C100.041384,12.2476235 100.003047,11.5244471 100.003047,10.9643294 L100.060553,6.91644706 C100.060553,6.37962353 99.9178519,6.11174118 99.6335143,6.11174118 C99.2714364,6.11174118 99.0903974,6.34256471 99.0903974,6.80315294 L99.0903974,6.80315294 Z M107.82606,5.32927059 C107.392631,5.17785882 107.016709,5.10268235 106.697229,5.10268235 C105.382034,5.10268235 104.325618,5.53362353 103.526917,6.39444706 C102.728216,7.25632941 102.32993,8.39032941 102.32993,9.79644706 C102.32993,10.8775059 102.633436,11.8410353 103.241514,12.6880941 C103.849592,13.5340941 104.534345,13.9576235 105.294709,13.9576235 C106.830345,13.9576235 108.039047,13.1296235 108.920813,11.4746824 C108.860112,12.5176235 108.830294,13.2280941 108.830294,13.6060941 C108.830294,14.1206824 109.092268,14.3769176 109.616216,14.3769176 C109.806839,14.3769176 109.901618,14.2900941 109.901618,14.1164471 L109.765306,10.0124471 C109.765306,9.80809412 109.814294,9.07115294 109.913332,7.80056471 C110.012371,6.53103529 110.061358,5.73374118 110.061358,5.40868235 C110.061358,4.81891765 109.79193,4.52456471 109.252008,4.52456471 C108.871826,4.52456471 108.681203,4.95127059 108.681203,5.80574118 C108.544891,5.63950588 108.259488,5.48068235 107.82606,5.32927059 L107.82606,5.32927059 Z M107.894216,11.6504471 C107.240345,12.6595059 106.445904,13.1645647 105.510891,13.1645647 C104.796319,13.1645647 104.243618,12.8236235 103.851722,12.1438588 C103.459826,11.4630353 103.264943,10.6202118 103.264943,9.61538824 C103.264943,8.57244706 103.587618,7.68409412 104.234034,6.95032941 C104.880449,6.21762353 105.757956,5.85021176 106.868683,5.85021176 C107.080605,5.85021176 107.372397,5.99421176 107.740865,6.28115294 C108.109332,6.56915294 108.324449,6.71209412 108.385151,6.71209412 C108.590683,6.71209412 108.738709,6.68244706 108.830294,6.62209412 L108.875021,8.42421176 C108.875021,9.56562353 108.548086,10.6413882 107.894216,11.6504471 L107.894216,11.6504471 Z M113.830164,7.02974118 C113.119852,7.58138824 112.764164,8.19444706 112.764164,8.8668 C112.764164,10.2655059 113.425488,10.9643294 114.748138,10.9643294 L117.371073,10.8393882 C117.949332,10.8393882 118.23793,11.2152706 118.23793,11.9659765 C118.23793,12.7992706 117.910995,13.4388 117.257125,13.8824471 C116.603255,14.3260941 115.721488,14.5473882 114.611826,14.5473882 C114.193306,14.5473882 113.7258,14.4309176 113.209306,14.1990353 C112.691748,13.9671529 112.398891,13.6717412 112.330735,13.3138588 C112.284943,13.0332706 112.110294,12.8924471 111.806787,12.8924471 C111.478787,12.8924471 111.315852,13.1222118 111.315852,13.5838588 C111.315852,14.1662118 111.633203,14.6140941 112.267904,14.9275059 C112.902605,15.2409176 113.722605,15.3976235 114.725774,15.3976235 C115.94193,15.3976235 116.987696,15.0990353 117.862008,14.5018588 C118.736319,13.9046824 119.172943,13.1264471 119.172943,12.1660941 C119.172943,11.3656235 119.058995,10.7853882 118.831099,10.4253882 C118.603203,10.0664471 118.215566,9.88750588 117.66819,9.88750588 L114.8738,10.0124471 C114.501073,10.0124471 114.190112,9.90868235 113.938787,9.70009412 C113.687462,9.49256471 113.562865,9.19927059 113.562865,8.82127059 C113.562865,8.33738824 113.815255,7.92762353 114.321099,7.59091765 C114.826943,7.25527059 115.45206,7.08691765 116.196449,7.08691765 C116.721462,7.08691765 117.116553,7.12291765 117.382787,7.19385882 C117.649021,7.26585882 117.930164,7.41515294 118.227281,7.64174118 C118.523332,7.86938824 118.712891,7.98268235 118.797021,7.98268235 C119.21554,7.98268235 119.424268,7.74444706 119.424268,7.26797647 C119.424268,6.95774118 119.119696,6.70256471 118.511618,6.50244706 C117.90354,6.30232941 117.150631,6.20174118 116.253956,6.20174118 C115.348761,6.20174118 114.54154,6.47809412 113.830164,7.02974118 L113.830164,7.02974118 Z M120.826787,14.4309176 C120.69793,14.9317412 120.505177,15.3976235 120.250657,15.8285647 C119.995073,16.2595059 119.867281,16.5623294 119.867281,16.7359765 C119.867281,17.0493882 120.017436,17.2060941 120.318813,17.2060941 C120.521151,17.2060941 120.821462,16.8619765 121.220813,16.1726824 C121.619099,15.4844471 121.818242,14.9042118 121.818242,14.4309176 C121.818242,14.2710353 121.75754,14.1058588 121.635073,13.9353882 C121.512605,13.7649176 121.374164,13.6802118 121.220813,13.6802118 C121.087696,13.6802118 120.956709,13.9300941 120.826787,14.4309176 L120.826787,14.4309176 Z M133.527203,14.3896235 C135.597436,14.3896235 137.273644,13.7808 138.552631,12.5631529 C139.832683,11.3465647 140.472709,9.70221176 140.472709,7.62903529 C140.472709,5.77291765 139.849722,4.36574118 138.603748,3.40962353 C137.356709,2.45350588 135.627255,1.97597647 133.414319,1.97597647 C132.972371,1.97597647 132.433514,2.00350588 131.796683,2.05856471 C131.796683,1.67632941 131.76367,1.43174118 131.697644,1.32374118 C131.631618,1.21574118 131.495306,1.16174118 131.287644,1.16174118 C130.961774,1.16174118 130.799904,1.35974118 130.799904,1.7568 L130.820138,2.30950588 C130.029956,2.46197647 129.634865,2.67797647 129.634865,2.95644706 C129.634865,3.0888 129.670008,3.21374118 129.740294,3.33127059 C129.809514,3.44985882 129.896839,3.50915294 130.002268,3.50915294 C130.261047,3.50915294 130.547514,3.42550588 130.862735,3.25821176 L130.925566,7.69256471 C130.925566,8.99915294 130.835047,10.7313882 130.652943,12.8871529 C130.421852,12.9358588 130.306839,13.0713882 130.306839,13.2937412 C130.306839,13.6484471 130.408008,13.8263294 130.610345,13.8263294 C130.610345,14.2011529 130.767956,14.3896235 131.083177,14.3896235 C131.265281,14.3896235 131.383488,14.2953882 131.43993,14.1079765 C131.775384,14.2953882 132.471852,14.3896235 133.527203,14.3896235 L133.527203,14.3896235 Z M131.807332,7.72327059 L131.755151,2.97656471 C132.504865,2.93527059 133.092709,2.91409412 133.520813,2.91409412 C135.487748,2.91409412 136.988242,3.31115294 138.021229,4.10315294 C139.054216,4.89621176 139.570709,6.06515294 139.570709,7.60891765 C139.570709,9.54232941 139.037177,11.0236235 137.970112,12.0528 C136.903047,13.0819765 135.4558,13.5965647 133.629436,13.5965647 C133.118268,13.5965647 132.438839,13.4017412 131.592216,13.0120941 C131.734917,10.7938588 131.807332,9.03091765 131.807332,7.72327059 L131.807332,7.72327059 Z M145.708995,14.3896235 C147.779229,14.3896235 149.454371,13.7808 150.734423,12.5631529 C152.014475,11.3465647 152.654501,9.70221176 152.654501,7.62903529 C152.654501,5.77291765 152.030449,4.36574118 150.784475,3.40962353 C149.537436,2.45350588 147.807982,1.97597647 145.595047,1.97597647 C145.154164,1.97597647 144.614242,2.00350588 143.97741,2.05856471 C143.97741,1.67632941 143.944397,1.43174118 143.878371,1.32374118 C143.81341,1.21574118 143.676034,1.16174118 143.468371,1.16174118 C143.143566,1.16174118 142.980631,1.35974118 142.980631,1.7568 L143.00193,2.30950588 C142.210683,2.46197647 141.815592,2.67797647 141.815592,2.95644706 C141.815592,3.0888 141.850735,3.21374118 141.921021,3.33127059 C141.991306,3.44985882 142.078631,3.50915294 142.182995,3.50915294 C142.441774,3.50915294 142.729306,3.42550588 143.043462,3.25821176 L143.106294,7.69256471 C143.106294,8.99915294 143.015774,10.7313882 142.83367,12.8871529 C142.602579,12.9358588 142.487566,13.0713882 142.487566,13.2937412 C142.487566,13.6484471 142.588735,13.8263294 142.792138,13.8263294 C142.792138,14.2011529 142.948683,14.3896235 143.263904,14.3896235 C143.446008,14.3896235 143.564216,14.2953882 143.620657,14.1079765 C143.956112,14.2953882 144.652579,14.3896235 145.708995,14.3896235 L145.708995,14.3896235 Z M143.98806,7.72327059 L143.936943,2.97656471 C144.685592,2.93527059 145.274501,2.91409412 145.70154,2.91409412 C147.66954,2.91409412 149.168969,3.31115294 150.201956,4.10315294 C151.234943,4.89621176 151.751436,6.06515294 151.751436,7.60891765 C151.751436,9.54232941 151.217904,11.0236235 150.150839,12.0528 C149.083774,13.0819765 147.636527,13.5965647 145.810164,13.5965647 C145.298995,13.5965647 144.620631,13.4017412 143.774008,13.0120941 C143.916709,10.7938588 143.98806,9.03091765 143.98806,7.72327059 L143.98806,7.72327059 Z M161.645748,5.40232941 C161.785255,5.62150588 161.953514,5.73056471 162.149462,5.73056471 C162.26767,5.73056471 162.376294,5.64903529 162.474268,5.48597647 C162.572242,5.32291765 162.621229,5.12597647 162.621229,4.89621176 C162.621229,4.31174118 162.337956,3.84691765 161.77141,3.49856471 C161.204865,3.15127059 160.55419,2.97656471 159.820449,2.97656471 C158.462657,2.97656471 157.168761,3.51444706 155.937696,4.58915294 C154.706631,5.6628 154.091099,6.69091765 154.091099,7.67138824 C154.091099,8.1648 154.270008,8.52797647 154.626761,8.76091765 C154.983514,8.99491765 155.577748,9.11032941 156.410527,9.11032941 C156.920631,9.11032941 157.598995,9.0468 158.445618,8.91762353 C159.292242,8.78950588 159.900319,8.72491765 160.270917,8.72491765 C160.984423,8.72491765 161.534995,8.94621176 161.923696,9.3888 C162.311332,9.83032941 162.506216,10.4211529 162.506216,11.1591529 C162.506216,11.9193882 161.995047,12.7008 160.973774,13.5055059 C159.952501,14.3102118 158.938683,14.7125647 157.931255,14.7125647 C157.344475,14.7125647 156.846086,14.5357412 156.436086,14.1831529 C156.027151,13.8295059 155.822683,13.5648 155.822683,13.3879765 C155.822683,13.3255059 155.876995,13.2693882 155.985618,13.2175059 C156.093177,13.1666824 156.147488,13.0819765 156.147488,12.9655059 C156.147488,12.6552706 155.833332,12.5006824 155.203956,12.5006824 C155.070839,12.5006824 154.927073,12.5462118 154.773722,12.6362118 C154.619306,12.7272706 154.542631,12.8448 154.542631,12.9909176 C154.542631,13.6590353 154.763073,14.0942118 155.203956,14.2953882 C155.819488,15.1646824 156.672501,15.5988 157.76406,15.5988 C158.924839,15.5988 160.164423,15.1488 161.482813,14.2488 C162.801203,13.3477412 163.460397,12.4032706 163.460397,11.4164471 C163.460397,10.2062118 163.220787,9.30197647 162.741566,8.70374118 C162.262345,8.10550588 161.341177,7.80691765 159.976995,7.80691765 C159.368917,7.80691765 158.589384,7.87997647 157.637332,8.02609412 C156.686345,8.17221176 156.130449,8.24527059 155.969644,8.24527059 C155.360501,8.24527059 155.056995,7.97738824 155.056995,7.44162353 C155.056995,6.71103529 155.534086,5.90103529 156.489332,5.01162353 C157.443514,4.12115294 158.483956,3.67538824 159.610657,3.67538824 C160.093073,3.67538824 160.701151,3.92632941 161.435956,4.42715294 C161.435956,4.85809412 161.505177,5.18315294 161.645748,5.40232941 L161.645748,5.40232941 Z" id="Fill-1" fill="#2A584A" mask="url(#mask-4)"></path>
                    </g>
                </g>
            </g>
        </g>
    </g>
</svg>