<?xml version="1.0" encoding="utf-8"?>
<!-- Generator: Adobe Illustrator 21.1.0, SVG Export Plug-In . SVG Version: 6.00 Build 0)  -->
<svg version="1.1" id="Layer_1" xmlns="http://www.w3.org/2000/svg" xmlns:xlink="http://www.w3.org/1999/xlink" x="0px" y="0px"
	 viewBox="0 0 288 84" style="enable-background:new 0 0 288 84;" xml:space="preserve">
<style type="text/css">
	.st0{fill:#562600;}
	.st1{fill:#231F20;}
	.st2{fill:#966A43;}
	.st3{fill:#E7D2AC;}
	.st4{fill:#FEFEFE;}
	.st5{fill:#221F20;}
	.st6{fill:#A68A6A;}
</style>
<title>Group</title>
<desc>Created with Sketch.</desc>
<g id="Header" transform="translate(-22.000000, 7.000000)">
	<g id="Group" transform="translate(38.000000, 0.000000)">
		<g id="Page-1_1_" transform="translate(118.000000, 22.000000)">
			<g id="Group-3" transform="translate(0.000000, 7.809687)">
				<g id="Clip-2">
				</g>
				<path id="Fill-1" class="st0" d="M-9.9-4.5c-1.7,0.9-2.7,1.6-3.9,3.1C-14.2-0.9-14,0-13,0c1.2,0,2.1-1.8,3.9-2.3
					C-8.7-2.4-8.6-5.2-9.9-4.5 M-3.4,2.6c-1.5-1.3-2-2.6-2.5-4.5C-6.2-3-7-2.8-7.4-2.3c-1.5,1.6-2.5,2.6-4.4,3.7
					c-3.3,1.9-5.1-1.6-3.8-3.5c1.5-2.3,3.5-3.4,5.5-4.3c1-0.4,1.9-0.7,2.7,0C-6.8-6-6.5-5.8-6-6.5C-5.5-7.1-4.6-6.6-4.3-6
					c0.8,1.8-0.2,6.1,2.1,6.8C-1.4,1-2.6,3.3-3.4,2.6"/>
			</g>
			<path id="Fill-4_1_" class="st0" d="M6.4-2.1C5.9-2.7,6.1-3,5-3.8C4.4-4.2,5.6-5.6,6.2-5.2C7-4.7,7.5-4,7.8-3.2
				C8.2-2.6,6.7-1.6,6.4-2.1 M7.2,3c1.7,4.2,2.3,9.7,0.4,11.6c-2.2,2.3-5.2,2.3-6.2,0.1c-0.5-1.2,0.1-2,0.3-3.3
				c0.1-0.8,1.3-0.2,1.1,0.9c-0.3,1.7-0.5,2.6,1.6,2.4c2.1-0.2,2.9-2,2.8-3.9C7.1,6.8,6,4.6,4.4,1C4,0.1,5.1-1.1,5.9-0.5
				c1.2,0.9,1.6,0.4,1.9,1.1C8.6,2.1,6.5,1.1,7.2,3"/>
			<path id="Fill-6_1_" class="st0" d="M20.3,10.7c-0.8-0.6-1.1-2.2-1.7-3.6c-0.4-0.9-0.6-1.2-1.1-0.3c-0.9,1.8-1.8,3-3.6,2.9
				c-3.5-0.3-3.2-5.8-2.5-9.6c0.1-0.7,2.1-0.5,1.9,0.6c-0.3,1.5-0.7,4,0.2,6.2c0.6,1.3,1.5,0.6,2,0.1c1-1.3,1.7-2.6,1.6-4.5
				c-0.1-0.8,1.8-1.3,2.2-0.1C20,5,20.8,8.1,21.8,8.9C23,9.8,21,11.3,20.3,10.7"/>
			<path id="Fill-8_1_" class="st0" d="M31.1,10.8c-2.1-1-1.1-4.3-1.9-5.6c-0.5-0.9-0.8-0.9-1.2-0.5c-0.9,1.2-0.8,2.6-1.9,3.4
				C24.5,9.2,24,7.3,24,6.7c0.1-2-0.4-3.8-1.2-4.9c-0.4-0.6,0.8-2.2,1.9-1.6c0.7,0.4,0.5,2.4,0.9,4C25.8,5,26.3,5,26.7,4.5
				c0.8-0.9,0.9-1.4,1.4-2.7c0.3-0.7,1.5-0.1,1.9,0.5c1.1,1.8,1,6.6,2,7.1C33.6,9.9,32.5,11.5,31.1,10.8"/>
			<path id="Fill-10_1_" class="st0" d="M37.3,3.3c-1,0.5-1.6,2.1-1,2.8c0.6,0.8,1.9,0,2.4-0.8c0.9-1.5,1.8-2.5,1.3-3
				C39.6,1.9,38.4,2.7,37.3,3.3 M40.8,15.1c-1.8,2.3-4.1,2.4-6,0.8c-1.3-1.1-2.5-4.6-0.7-4.4c1.1,0.1-0.3,3,2,3.6
				c3.7,0.9,5.6-4,5.4-6.5c-0.1-1.2,0-1.1-0.2-3.1c-0.1-0.3-0.2-0.9-0.8-0.4s-2.1,3.4-4,2.9c-2.3-0.7-3.5-3.2-0.1-6.1
				c1.6-1.4,4.7-2.8,5.9-0.8c1,1.8,0.4,2.6,0.5,4.2C43,8.8,43.2,12,40.8,15.1"/>
			<g id="Group-14" transform="translate(60.266055, 0.559687)">
				<path id="Fill-12_1_" class="st0" d="M-12.6,8.4c0,0.7-1.5,0.6-1.6-0.3c-0.8-3.4,0.4-5.4-0.3-8.8c-0.3-1.4-0.7-3.2-1.3-5.1
					c-0.4-1.3,2.5-1.8,2.5-0.5c0,1.2,0.7,4,0.9,6.5C-12.2,3.4-12.5,5.2-12.6,8.4"/>
			</g>
			<path id="Fill-15" class="st0" d="M58.6,1.5c-1.9,0.2-4.4,1.2-5.7,2.6c-0.3,0.4-0.3,0.9,0.3,0.7c1.3-0.5,3.9-0.5,5.9-2
				C59.7,2.3,59.1,1.5,58.6,1.5 M54.8,10.5c-2.3-0.8-4.8-2-4.3-4.6c0.5-2.4,1.8-3.5,3.7-4.7c2-1.3,3.9-1.9,5.9-0.8
				c1.3,0.7,1.4,2.2,0.3,3.3C59,5.2,57.6,5,55.7,5.8c-1.5,0.7-2.5,0.5-2.9,0.1c-0.1-0.1-0.4-0.4-0.5,0.2c-0.2,1.8,1.9,2.5,3.5,3
				c1.9,0.5,3.2,0.3,5.2,0c0.7-0.1,0.8,0.7,0.5,0.9C59.9,11.1,56.6,11.1,54.8,10.5"/>
			<path id="Fill-17" class="st0" d="M76.5,3.3c-0.4-0.6-0.5,0.5-1.3,0.3s-0.6-1-2-0.1C72.4,4,72,4.6,71.9,5.6
				c-0.1,1.3,0.4,2.5,2.1,2.6c1.2,0.1,2-0.5,2.6-1.5C77.3,5.5,77,4.1,76.5,3.3 M73.4,10c-2-0.4-3.6-2.4-3.5-4c0.1-1.8,1-3,2.5-4
				c0.9-0.6,1.4-0.8,2.2-1.6c1-1,2.2-0.6,2.5,0.2c0.6,1.6,1.7,3.1,1.3,5C77.8,8.2,75.9,10.4,73.4,10"/>
			<path id="Fill-19" class="st0" d="M87.9,0.3C87.8-0.8,88.3-2,87.4-3c-0.8-0.8-2.1-1.9-2.8-1c-0.8,1.2-0.7,3.8-0.4,6.2
				c0,0.5,0.3,0.8,0.7,0.8c1.5,0.2,2.8-0.2,4.6-0.2c0.9-0.1,0.5,0.7,0.2,1c-0.8,0.8-3.2,0.7-4.7,0.9c-0.3,0.1-0.7,0.2-0.7,0.6
				c-0.1,1.2,0.4,2.9,1.5,2.9c0.7-0.1,0.6,1.8-0.1,1.8c-1.4,0.1-2.2-0.6-2.5-1.8c-0.3-1-0.2-1.7-0.3-2.6c0-0.4-0.2-0.9-0.6-0.8
				c-0.7,0.1-1.5,0.4-2.3-0.2c-0.6-0.4-0.7-1.4-0.2-1.5c0.6-0.1,1.5,0,2.3,0c0.3,0,0.5-0.2,0.5-0.5c0-3-0.1-4.6,0.2-7.5
				c0.2-1.5,1.4-1.6,2.4-1.3c2.7,0.8,4.1,2.4,4.5,5C89.8-0.6,88,1.2,87.9,0.3"/>
			<path id="Fill-21" class="st0" d="M102.9,2.4c0.1-0.8-0.4-1-0.8-0.8c-0.6,0.3-1,0.6-1.8,0.9c-0.3,0.1-0.3,0.6-0.1,0.8
				c1.5,1.4,2.3,2.2,3.6,3.8c0.7,0.9,0.6,1.9-0.2,2.5c-0.9,0.9-4.3,2.2-5.5,1.4c-1.4-0.9-0.6-2.2,0.6-1.7c0.9,0.4,1.8,0.1,2.8-0.4
				c0.7-0.4,0.4-1-0.1-1.7c-1.7-2.4-3.4-2.4-3.9-3.7c-0.3-1-0.1-1.9,0.7-2.3c1.4-0.6,3.6-2,4.6-1.7c1.6,0.4,1.8,1.3,1.6,2.3
				C104.5,2.4,102.8,3.1,102.9,2.4"/>
			<path id="Fill-23" class="st0" d="M120.6,10c-1.8-1.2-1.6-3-2.2-5c-0.2-0.8-0.9-0.6-1.3-0.2c-0.5,0.7-1.2,1.1-1.8,2
				c-0.4,0.6-1.3,0.7-1.9-0.1c-0.3-0.5-0.6-0.8-0.8-1.4c-0.3-0.7-0.4-0.6-0.8-0.1c-1.2,1.4-1.5,2.8-3,3.9c-0.5,0.4-1.7,0.5-1.8-0.2
				c-0.2-1.7-0.4-2.7-0.8-4.3c-0.3-1.5-0.3-2.5,0.2-3.9c0.3-0.8,2,0,1.9,1c-0.1,1.4-0.3,2.2,0.1,3.6c0.2,0.8,0.5,1,0.7,0.7
				c1.3-1.6,2.2-3,2.6-4.6c0.1-0.6,1.6-0.6,1.7-0.1c0.2,1.1,0.5,1.7,0.8,2.8c0.2,1,0.9,0.3,1.3,0c1.2-0.9,1.2-2.1,2-3.3
				c0.4-0.6,1.7-0.1,1.9,0.6c0.5,2.5,1,4.9,2.4,7.6C122.3,9.9,121.2,10.4,120.6,10"/>
			<path id="Fill-25" class="st0" d="M124.3,9.4c-0.8-0.9-1.3-1.9-1.3-2.9c-0.1-2.1,0-3.4-0.1-5.5c0-1.2,2.1-0.5,2,0.7
				c-0.1,1.9-0.8,3.2,0.1,5c0.4,0.8,0.8,1.2,1.3,1.9C127.1,9.6,124.8,9.9,124.3,9.4 M124.7-2.4c-1.5,0.3-2.4-0.5-3-1.4
				c-0.3-0.5,0-1.1,1-1s1.7,0.4,2.5,1C125.9-3.3,125.3-2.5,124.7-2.4"/>
			<g id="Group-29" transform="translate(142.926606, 0.559687)">
				<path id="Fill-27" class="st0" d="M-12.4,8.4c0,0.7-1.5,0.6-1.6-0.3c-0.8-3.4,0.4-5.4-0.3-8.8c-0.3-1.4-0.7-3.2-1.3-5.1
					c-0.4-1.3,2.5-1.8,2.5-0.5c0,1.2,0.7,4,0.9,6.5C-12.1,3.4-12.3,5.2-12.4,8.4"/>
			</g>
			<path id="Fill-30_1_" class="st0" d="M141.4,1.5c-1.9,0.2-4.4,1.2-5.7,2.6c-0.3,0.4-0.3,0.9,0.3,0.7c1.3-0.5,3.9-0.5,5.9-2
				C142.6,2.3,142,1.5,141.4,1.5 M137.7,10.5c-2.3-0.8-4.8-2-4.3-4.6c0.5-2.4,1.8-3.5,3.7-4.7c2-1.3,3.9-1.9,5.9-0.8
				c1.3,0.7,1.4,2.2,0.3,3.3c-1.5,1.5-2.9,1.3-4.7,2.1c-1.5,0.7-2.5,0.5-2.9,0.1c-0.1-0.1-0.4-0.4-0.5,0.2c-0.2,1.8,1.9,2.5,3.5,3
				c1.9,0.5,3.2,0.3,5.2,0c0.7-0.1,0.8,0.7,0.5,0.9C142.7,11.1,139.5,11.1,137.7,10.5"/>
			<path id="Fill-32_1_" class="st0" d="M151.7,2.4c0.1-0.8-0.4-1-0.8-0.8c-0.6,0.3-1,0.6-1.8,0.9c-0.3,0.1-0.3,0.6-0.1,0.8
				c1.5,1.4,2.3,2.2,3.6,3.8c0.7,0.9,0.6,1.9-0.1,2.5c-0.9,0.9-4.3,2.2-5.5,1.4c-1.4-0.9-0.6-2.2,0.6-1.7c0.9,0.4,1.8,0.1,2.8-0.4
				c0.7-0.4,0.4-1-0.1-1.7c-1.7-2.4-3.4-2.4-3.9-3.7c-0.3-1-0.1-1.9,0.7-2.3c1.4-0.6,3.6-2,4.6-1.7c1.6,0.4,1.8,1.3,1.6,2.3
				C153.2,2.4,151.6,3.1,151.7,2.4"/>
			<g id="Group-29_1_" transform="translate(142.926606, 0.559687)">
				<path id="Fill-27_1_" class="st0" d="M-12.4,8.4c0,0.7-1.5,0.6-1.6-0.3c-0.8-3.4,0.4-5.4-0.3-8.8c-0.3-1.4-0.7-3.2-1.3-5.1
					c-0.4-1.3,2.5-1.8,2.5-0.5c0,1.2,0.7,4,0.9,6.5C-12.1,3.4-12.3,5.2-12.4,8.4"/>
			</g>
			<path id="Fill-30_2_" class="st0" d="M141.4,1.5c-1.9,0.2-4.4,1.2-5.7,2.6c-0.3,0.4-0.3,0.9,0.3,0.7c1.3-0.5,3.9-0.5,5.9-2
				C142.6,2.3,142,1.5,141.4,1.5 M137.7,10.5c-2.3-0.8-4.8-2-4.3-4.6c0.5-2.4,1.8-3.5,3.7-4.7c2-1.3,3.9-1.9,5.9-0.8
				c1.3,0.7,1.4,2.2,0.3,3.3c-1.5,1.5-2.9,1.3-4.7,2.1c-1.5,0.7-2.5,0.5-2.9,0.1c-0.1-0.1-0.4-0.4-0.5,0.2c-0.2,1.8,1.9,2.5,3.5,3
				c1.9,0.5,3.2,0.3,5.2,0c0.7-0.1,0.8,0.7,0.5,0.9C142.7,11.1,139.5,11.1,137.7,10.5"/>
			<path id="Fill-32_2_" class="st0" d="M151.7,2.4c0.1-0.8-0.4-1-0.8-0.8c-0.6,0.3-1,0.6-1.8,0.9c-0.3,0.1-0.3,0.6-0.1,0.8
				c1.5,1.4,2.3,2.2,3.6,3.8c0.7,0.9,0.6,1.9-0.1,2.5c-0.9,0.9-4.3,2.2-5.5,1.4c-1.4-0.9-0.6-2.2,0.6-1.7c0.9,0.4,1.8,0.1,2.8-0.4
				c0.7-0.4,0.4-1-0.1-1.7c-1.7-2.4-3.4-2.4-3.9-3.7c-0.3-1-0.1-1.9,0.7-2.3c1.4-0.6,3.6-2,4.6-1.7c1.6,0.4,1.8,1.3,1.6,2.3
				C153.2,2.4,151.6,3.1,151.7,2.4"/>
		</g>
		<g id="Page-1_2_" transform="translate(119.000000, 50.000000)">
			<g id="Clip-2_1_">
			</g>
			<path id="Fill-1_1_" class="st1" d="M-7.8-2.4C-7.6-2.2-7.5-2-7.3-2c0.1,0,0.2-0.1,0.4-0.3C-6.8-2.5-6.7-2.7-6.7-3
				c0-0.6-0.3-1.1-0.9-1.5C-8.3-4.9-9-5.1-9.8-5.1c-1.5,0-2.9,0.6-4.2,1.8C-15.3-2.2-16-1-16,0c0,0.5,0.2,0.9,0.6,1.2
				c0.4,0.3,1,0.4,1.9,0.4c0.6,0,1.3-0.1,2.2-0.2s1.6-0.2,2-0.2c0.8,0,1.4,0.2,1.8,0.7S-6.9,3-6.9,3.8s-0.6,1.7-1.7,2.6
				s-2.2,1.3-3.3,1.3c-0.6,0-1.2-0.2-1.6-0.6c-0.4-0.4-0.7-0.7-0.7-0.9c0-0.1,0.1-0.1,0.2-0.2c0.1-0.1,0.2-0.1,0.2-0.3
				c0-0.3-0.3-0.5-1-0.5c-0.1,0-0.3,0-0.5,0.1s-0.3,0.2-0.3,0.4c0,0.7,0.2,1.2,0.7,1.4c0.7,0.9,1.6,1.4,2.8,1.4c1.3,0,2.6-0.5,4-1.5
				s2.2-2,2.2-3.1c0-1.3-0.3-2.3-0.8-2.9c-0.5-0.7-1.5-1-3-1c-0.7,0-1.5,0.1-2.5,0.2s-1.6,0.2-1.8,0.2c-0.7,0-1-0.3-1-0.9
				c0-0.8,0.5-1.7,1.6-2.6c1-1,2.2-1.5,3.4-1.5c0.5,0,1.2,0.3,2,0.8C-8-3-7.9-2.7-7.8-2.4L-7.8-2.4z M1.2-1.7
				C0.8-1.8,0.4-1.9,0.1-1.9c-1.3,0-2.4,0.4-3.2,1.3s-1.2,2-1.2,3.4c0,1.1,0.3,2,0.9,2.9C-2.8,6.5-2.1,7-1.3,7
				c1.5,0,2.7-0.8,3.6-2.5c-0.1,1-0.1,1.8-0.1,2.1c0,0.5,0.3,0.8,0.8,0.8c0.2,0,0.3-0.1,0.3-0.3L3.1,3c0-0.2,0-0.9,0.1-2.2
				s0.1-2.1,0.1-2.4c0-0.6-0.3-0.9-0.8-0.9C2.3-2.5,2.1-2,2.1-1.2C1.9-1.4,1.6-1.5,1.2-1.7L1.2-1.7z M1.3,4.7
				c-0.7,1-1.4,1.5-2.4,1.5c-0.7,0-1.3-0.3-1.7-1s-0.6-1.5-0.6-2.5s0.3-1.9,1-2.7c0.6-0.7,1.5-1.1,2.6-1.1c0.2,0,0.5,0.1,0.9,0.4
				s0.6,0.4,0.6,0.4c0.2,0,0.4,0,0.4-0.1v1.8C2.3,2.6,1.9,3.6,1.3,4.7L1.3,4.7z M6.7-1.1c0-0.5-0.2-0.7-0.4-0.7
				c-0.4,0-0.6,0.3-0.6,1c0,0.1,0,0.5,0.1,1.1s0.1,1,0.1,1.3v2.8L6,7.2c0,0.4,0.1,0.7,0.3,0.7c0.2,0,0.4-0.1,0.5-0.2
				C6.9,7.5,7,7.4,7,7.2c0-0.4,0-0.9-0.1-1.4c-0.1-0.6-0.1-1-0.1-1.4V1c0.8-1,1.6-1.4,2.4-1.4c0.6,0,1,0.1,1.3,0.2
				c0.2,0.1,0.3,0.4,0.3,0.9c0,0.3,0,0.6,0.1,0.6s0.2,0.1,0.4,0.1c0.3,0,0.5-0.2,0.5-0.6c0-0.7-0.1-1.2-0.4-1.5
				c-0.3-0.4-0.9-0.6-2-0.6s-2,0.4-2.7,1.2C6.7-0.3,6.7-0.6,6.7-1.1L6.7-1.1z M18.3-1.7c-0.4-0.2-0.8-0.2-1.1-0.2
				c-1.3,0-2.4,0.4-3.2,1.3s-1.2,2-1.2,3.4c0,1.1,0.3,2,0.9,2.9C14.4,6.5,15.1,7,15.8,7c1.5,0,2.7-0.8,3.6-2.5
				c-0.1,1-0.1,1.8-0.1,2.1c0,0.5,0.3,0.8,0.8,0.8c0.2,0,0.3-0.1,0.3-0.3L20.3,3c0-0.2,0-0.9,0.1-2.2s0.1-2.1,0.1-2.4
				c0-0.6-0.3-0.9-0.8-0.9c-0.4,0-0.6,0.4-0.6,1.3C19.1-1.4,18.8-1.5,18.3-1.7L18.3-1.7z M18.4,4.7c-0.7,1-1.4,1.5-2.4,1.5
				c-0.7,0-1.3-0.3-1.7-1s-0.6-1.5-0.6-2.5s0.3-1.9,1-2.7c0.6-0.7,1.5-1.1,2.6-1.1c0.2,0,0.5,0.1,0.9,0.4s0.6,0.4,0.6,0.4
				c0.2,0,0.4,0,0.4-0.1v1.8C19.4,2.6,19.1,3.6,18.4,4.7L18.4,4.7z M23.8-3.6C23.9-5,24-5.9,24-6.2C24-6.7,23.8-7,23.5-7
				c-0.4,0-0.6,0.3-0.6,0.9l-0.2,6l0.1,7.2c0,0.4,0.1,0.6,0.2,0.6c0.2,0,0.4-0.1,0.5-0.2c0.2-0.1,0.2-0.2,0.2-0.4
				c0-0.4,0-0.9-0.1-1.6c-0.1-0.6-0.1-2.2-0.2-4.8c0.3-0.5,0.8-0.9,1.3-1.2s1-0.5,1.5-0.5c0.6,0,1.2,0.4,1.9,1.2
				c0.9,1,1.3,2.8,1.3,5.7c0,0.1,0,0.2,0,0.5s0,0.4,0,0.6c0,0.3,0.1,0.4,0.4,0.4s0.4-0.1,0.5-0.2s0.1-0.5,0.1-1c0-2.8-0.4-4.8-1.1-6
				s-1.7-1.8-2.9-1.8c-1.1,0-2,0.4-2.8,1.2C23.6-1.1,23.6-2.1,23.8-3.6L23.8-3.6z M52.9-6c0-0.2-0.1-0.4-0.2-0.6
				c-0.2-0.2-0.3-0.2-0.5-0.2c-0.3,0-0.4,0.1-0.5,0.2s-0.2,0.5-0.3,1.1S51-3.9,50.5-2.8c-0.4,1.2-0.9,2.5-1.4,3.9s-1.2,3.3-2.2,5.6
				c-0.8-3.1-1.6-5.7-2.6-7.8c-0.3-0.7-0.7-1.8-1.2-3s-0.8-2-0.9-2.1c-0.1-0.1-0.4-0.2-0.9-0.2c-0.4,0-0.6,0.4-0.6,1.2
				S40.5-2.5,40,0.5s-0.8,4.7-0.9,5.2c-0.1,0.5-0.2,0.7-0.2,0.8c0,0.3,0.1,0.5,0.3,0.6s0.4,0.2,0.7,0.2s0.5-0.1,0.5-0.3l-0.1-1.7
				c0-0.2,0.2-1.8,0.7-4.7s0.7-4.6,0.7-5.2c0.8,2,1.4,3.6,2,5s1.4,3.7,2.3,7.1c0.2,0.5,0.3,0.8,0.4,0.8c0.4,0,0.6-0.1,0.7-0.2
				s0.2-0.3,0.3-0.6c0.1-0.2,0.1-0.4,0.1-0.4C48.7,5,50.1,1.3,51.8-4c0.5,1.2,0.9,2.5,1.2,4.1c0.4,1.5,0.6,3.1,0.9,4.6
				c0.2,1.5,0.3,2.5,0.3,2.8c0,0.5,0.2,0.8,0.7,0.8c0.1,0,0.3-0.1,0.4-0.3c0.1-0.2,0.2-0.5,0.2-0.7c0-0.4-0.1-1-0.3-1.7
				c-0.2-0.8-0.4-2-0.7-3.6s-0.9-4-1.8-7.2C52.8-5.5,52.9-5.8,52.9-6L52.9-6z M62.4-1.7c-0.4-0.2-0.8-0.2-1.1-0.2
				c-1.3,0-2.4,0.4-3.2,1.3s-1.2,2-1.2,3.4c0,1.1,0.3,2,0.9,2.9c0.6,0.8,1.3,1.3,2,1.3c1.5,0,2.7-0.8,3.6-2.5
				c-0.1,1-0.1,1.8-0.1,2.1c0,0.5,0.3,0.8,0.8,0.8c0.2,0,0.3-0.1,0.3-0.3L64.3,3c0-0.2,0.1-0.9,0.1-2.2c0.1-1.3,0.1-2.1,0.1-2.4
				c0-0.6-0.3-0.9-0.8-0.9c-0.4,0-0.6,0.4-0.6,1.3C63.1-1.4,62.8-1.5,62.4-1.7L62.4-1.7z M62.4,4.7c-0.7,1-1.4,1.5-2.4,1.5
				c-0.7,0-1.3-0.3-1.7-1s-0.6-1.5-0.6-2.5s0.3-1.9,1-2.7c0.6-0.7,1.5-1.1,2.6-1.1c0.2,0,0.5,0.1,0.9,0.4s0.6,0.4,0.6,0.4
				c0.2,0,0.4,0,0.4-0.1v1.8C63.4,2.6,63.1,3.6,62.4,4.7L62.4,4.7z M69.3-5.6c0-0.1,0.1-0.2,0.2-0.3C69.6-6,69.6-6,69.6-6
				c0-0.3-0.2-0.5-0.6-0.5c-0.2,0-0.3,0.1-0.5,0.3c-0.1,0.2-0.2,0.4-0.2,0.6l0.1,3.9h-2.2c-0.2,0-0.4,0.1-0.4,0.3
				c0,0.1,0.1,0.2,0.2,0.3c0.2,0,0.4,0.1,0.6,0.1h1.9c-0.4,3.5-0.6,5.9-0.6,7.3c0,1.1,0.7,1.6,2,1.6c0.5,0,0.9-0.1,1.4-0.4
				C71.7,7.3,72,7,72,6.7c0-0.4-0.1-0.6-0.3-0.6c-0.2,0-0.4,0.1-0.8,0.4C70.5,6.9,70.1,7,69.7,7c-0.2,0-0.4-0.1-0.6-0.2
				s-0.2-0.3-0.2-0.6c0-1.3,0.1-3.7,0.4-7.1c0.8,0,1.4,0.1,1.8,0.1c0.2,0,0.4-0.1,0.6-0.2S72-1.3,72-1.4s-0.1-0.3-0.2-0.4
				C71.7-1.9,71.5-2,71.3-2c-0.1,0-0.2,0.1-0.5,0.2s-0.7,0.2-1.4,0.1L69.3-5.6z M74.4-3.6c0.1-1.5,0.2-2.3,0.2-2.6
				c0-0.6-0.2-0.8-0.5-0.8c-0.4,0-0.6,0.3-0.6,0.9l-0.2,6l0.1,7.2c0,0.4,0.1,0.6,0.2,0.6c0.2,0,0.4-0.1,0.5-0.2
				c0.2-0.1,0.2-0.2,0.2-0.4c0-0.4,0-0.9-0.1-1.6c-0.1-0.6-0.1-2.2-0.2-4.8c0.3-0.5,0.8-0.9,1.3-1.2s1-0.5,1.5-0.5
				c0.6,0,1.2,0.4,1.9,1.2c1,1,1.3,2.8,1.3,5.7c0,0.1,0,0.2,0,0.5s0,0.4,0,0.6c0,0.3,0.1,0.4,0.4,0.4s0.4-0.1,0.5-0.2
				C81,7,81,6.7,81,6.2c0-2.8-0.4-4.8-1.1-6S78.2-1.6,77-1.6c-1.1,0-2,0.4-2.8,1.2C74.2-1.1,74.3-2.1,74.4-3.6L74.4-3.6z M83.6-6.5
				c-0.2,0.3-0.3,0.6-0.3,1c0,0.7,0.2,1.1,0.5,1.1s0.6-0.1,0.8-0.4c0.2-0.3,0.3-0.6,0.3-1s-0.1-0.7-0.3-0.9C84.5-6.9,84.4-7,84.2-7
				C83.9-7,83.7-6.8,83.6-6.5L83.6-6.5z M83.1-0.2L83,4c0,0.6,0,1.4,0.1,2.4c0.1,0.9,0.1,1.6,0.1,1.8c0,0.3,0.2,0.4,0.6,0.4
				c0.3,0,0.4-0.2,0.4-0.6c0-0.3,0-1-0.1-1.8C84,5.2,84,4.5,84,4l0.1-4c0-0.5-0.1-0.8-0.4-0.8C83.3-0.9,83.1-0.7,83.1-0.2L83.1-0.2z
				 M91.8-1.7c-0.4-0.2-0.8-0.2-1.1-0.2c-1.3,0-2.4,0.4-3.2,1.3c-0.8,0.9-1.2,2-1.2,3.4c0,1.1,0.3,2,0.9,2.9C87.8,6.5,88.5,7,89.3,7
				c1.5,0,2.7-0.8,3.6-2.5c-0.1,1-0.1,1.8-0.1,2.1c0,0.5,0.3,0.8,0.8,0.8c0.2,0,0.3-0.1,0.3-0.3L93.8,3c0-0.2,0-0.9,0.1-2.2
				S94-1.3,94-1.6c0-0.6-0.3-0.9-0.8-0.9c-0.4,0-0.6,0.4-0.6,1.3C92.5-1.4,92.3-1.5,91.8-1.7L91.8-1.7z M91.9,4.7
				c-0.7,1-1.4,1.5-2.4,1.5c-0.7,0-1.3-0.3-1.7-1c-0.4-0.7-0.6-1.5-0.6-2.5s0.3-1.9,1-2.7c0.6-0.7,1.5-1.1,2.6-1.1
				c0.2,0,0.5,0.1,0.9,0.4s0.6,0.4,0.6,0.4c0.2,0,0.4,0,0.4-0.1v1.8C92.9,2.6,92.5,3.6,91.9,4.7L91.9,4.7z M97.8,0
				c-0.7,0.6-1.1,1.2-1.1,1.8c0,1.4,0.7,2.1,2,2.1l2.6-0.1c0.6,0,0.9,0.4,0.9,1.1c0,0.8-0.3,1.5-1,1.9s-1.5,0.7-2.6,0.7
				c-0.4,0-0.9-0.1-1.4-0.3c-0.5-0.2-0.8-0.5-0.9-0.9c0-0.3-0.2-0.4-0.5-0.4s-0.5,0.2-0.5,0.7c0,0.6,0.3,1,1,1.3
				c0.6,0.3,1.5,0.5,2.5,0.5c1.2,0,2.3-0.3,3.1-0.9s1.3-1.4,1.3-2.3c0-0.8-0.1-1.4-0.3-1.7c-0.2-0.4-0.6-0.5-1.2-0.5l-2.8,0
				c-0.4,0-0.7-0.1-0.9-0.3c-0.3-0.2-0.4-0.5-0.4-0.9c0-0.5,0.3-0.9,0.8-1.2s1.1-0.5,1.9-0.5c0.5,0,0.9,0,1.2,0.1
				c0.3,0.1,0.5,0.2,0.8,0.4s0.5,0.3,0.6,0.3c0.4,0,0.6-0.2,0.6-0.7c0-0.3-0.3-0.6-0.9-0.8s-1.4-0.3-2.3-0.3
				C99.3-0.8,98.5-0.5,97.8,0L97.8,0z M104.8,7.4c-0.1,0.5-0.3,1-0.6,1.4c-0.3,0.4-0.4,0.7-0.4,0.9c0,0.3,0.2,0.5,0.5,0.5
				c0.2,0,0.5-0.3,0.9-1s0.6-1.3,0.6-1.7c0-0.2-0.1-0.3-0.2-0.5s-0.3-0.3-0.4-0.3C105.1,6.7,105,6.9,104.8,7.4L104.8,7.4z
				 M117.5,7.4c2.1,0,3.7-0.6,5-1.8s1.9-2.9,1.9-4.9c0-1.9-0.6-3.3-1.9-4.2c-1.2-1-3-1.4-5.2-1.4c-0.4,0-1,0-1.6,0.1
				c0-0.4,0-0.6-0.1-0.7s-0.2-0.2-0.4-0.2c-0.3,0-0.5,0.2-0.5,0.6v0.6c-0.8,0.2-1.2,0.4-1.2,0.6c0,0.1,0,0.3,0.1,0.4
				c0.1,0.1,0.2,0.2,0.3,0.2c0.3,0,0.5-0.1,0.9-0.3l0.1,4.4c0,1.3-0.1,3-0.3,5.2c-0.2,0-0.3,0.2-0.3,0.4c0,0.4,0.1,0.5,0.3,0.5
				c0,0.4,0.2,0.6,0.5,0.6c0.2,0,0.3-0.1,0.4-0.3C115.8,7.3,116.5,7.4,117.5,7.4L117.5,7.4z M115.8,0.7V-4c0.7,0,1.3-0.1,1.8-0.1
				c2,0,3.5,0.4,4.5,1.2s1.5,2,1.5,3.5c0,1.9-0.5,3.4-1.6,4.4s-2.5,1.5-4.3,1.5c-0.5,0-1.2-0.2-2-0.6C115.7,3.8,115.8,2,115.8,0.7
				L115.8,0.7z M129.7,7.4c2.1,0,3.7-0.6,5-1.8s1.9-2.9,1.9-4.9c0-1.9-0.6-3.3-1.9-4.2c-1.2-1-3-1.4-5.2-1.4c-0.4,0-1,0-1.6,0.1
				c0-0.4,0-0.6-0.1-0.7s-0.2-0.2-0.4-0.2c-0.3,0-0.5,0.2-0.5,0.6v0.6c-0.8,0.2-1.2,0.4-1.2,0.6c0,0.1,0,0.3,0.1,0.4
				c0.1,0.1,0.2,0.2,0.3,0.2c0.3,0,0.5-0.1,0.9-0.3l0.1,4.4c0,1.3-0.1,3-0.3,5.2c-0.2,0-0.3,0.2-0.3,0.4c0,0.4,0.1,0.5,0.3,0.5
				c0,0.4,0.2,0.6,0.5,0.6c0.2,0,0.3-0.1,0.4-0.3C128,7.3,128.7,7.4,129.7,7.4L129.7,7.4z M128,0.7L127.9-4c0.7,0,1.3-0.1,1.8-0.1
				c2,0,3.5,0.4,4.5,1.2s1.5,2,1.5,3.5c0,1.9-0.5,3.4-1.6,4.4s-2.5,1.5-4.3,1.5c-0.5,0-1.2-0.2-2-0.6C127.9,3.8,128,2,128,0.7
				L128,0.7z M145.6-1.6c0.1,0.2,0.3,0.3,0.5,0.3c0.1,0,0.2-0.1,0.3-0.2c0.1-0.2,0.1-0.4,0.1-0.6c0-0.6-0.3-1-0.8-1.4
				c-0.6-0.3-1.2-0.5-2-0.5c-1.4,0-2.7,0.5-3.9,1.6S138-0.3,138,0.7c0,0.5,0.2,0.9,0.5,1.1c0.4,0.2,1,0.3,1.8,0.3
				c0.5,0,1.2-0.1,2-0.2s1.5-0.2,1.8-0.2c0.7,0,1.3,0.2,1.7,0.7c0.4,0.4,0.6,1,0.6,1.8s-0.5,1.5-1.5,2.3s-2,1.2-3,1.2
				c-0.6,0-1.1-0.2-1.5-0.5c-0.4-0.4-0.6-0.6-0.6-0.8c0-0.1,0.1-0.1,0.2-0.2c0.1-0.1,0.2-0.1,0.2-0.3c0-0.3-0.3-0.5-0.9-0.5
				c-0.1,0-0.3,0-0.4,0.1c-0.2,0.1-0.2,0.2-0.2,0.4c0,0.7,0.2,1.1,0.7,1.3c0.6,0.9,1.5,1.3,2.6,1.3c1.2,0,2.4-0.4,3.7-1.3
				s2-1.8,2-2.8c0-1.2-0.2-2.1-0.7-2.7s-1.4-0.9-2.8-0.9c-0.6,0-1.4,0.1-2.3,0.2c-1,0.1-1.5,0.2-1.7,0.2c-0.6,0-0.9-0.3-0.9-0.8
				c0-0.7,0.5-1.5,1.4-2.4c1-0.9,2-1.3,3.1-1.3c0.5,0,1.1,0.3,1.8,0.8C145.4-2.1,145.5-1.8,145.6-1.6L145.6-1.6z"/>
		</g>
	</g>
</g>
<g id="Page-1" transform="translate(54.000000, 42.000000) scale(-1, 1) translate(-54.000000, -42.000000) ">
	<path id="Fill-2" class="st0" d="M89.1,71.8c-1.8,3.2-0.6,7.6-3.5,10.3c-1.3,0.1-2.8,0.1-3.4-1.1c-1.3,0.9-3.9,3.1-4.7,0.1
		c-0.8,0.6-0.5,2.7-2.2,2c-3.9-1.5-3.9-5.3-4.8-8.9c-1.9-0.7-4.1-0.7-6.2-1l-19.8,1.1c-3.7-0.9-8-0.5-12.2-0.1
		c-2.2,2.9-1,7.3-4.6,9.3c-1-0.2-2.1-0.3-2.8-1.4c-1.3,0.5-2.3,1.8-3.9,1.7c-1.5-4.1-3.1,1.1-5.9-0.5c-2.1-2.6-1.7-5.2-2.6-8.3
		L1.3,74.2c2,0.1,9.4-0.1,11.5-0.8c-0.3-2.6,0-5,2.1-6.7c1.6-0.4,2.6,0.6,3.7,1.3c1.8-0.4,4.6-3.5,5.9-0.1c1.3-0.8,1.6-4.1,3.9-2.5
		c2.3,1.9,4.8,4.3,4.3,7.7c4.2,0.1,8.7,0.9,12.5,0.1l0.8-1.1c-5.5-2-11.5-5.3-14.6-10.9c-2,0-3.8-0.6-4.2-2.7
		c-0.1-1.3-1.1-2.6-0.3-3.9c-2.6-0.5-4.5-3.1-6.7-4.4c-4.9-0.9-10-3.1-12.6-7.7c-0.8-2.4-2.2-6-0.1-8.4c2-1.4,1-4.8,4.1-4.8
		c3.5-1.8,6.6,0.8,9.8,2.1c0.8,0.3,1.2,0.6,1.6,1.4c2.4-6.4,0.9-14.7,8.7-18.5c3-2.3,9.5-1.4,8.3-7.3c1-1.7,2.3-4,4.4-5
		c3-0.6,4.9,0.5,7.8,1.1c2.4,2,5.1,5,4.3,8c1,1.7,3,0.5,4.2,1.6c4.1,5,7.1,11.2,7.5,18c3-3.8,7.2-6.7,11.9-5.2
		c1.6,0.7,3.8,0.9,4.5,2.7c1.6,1.7,2.1,3.6,1.5,6.1c-1.3,4.5-3.6,8.9-6.5,12.6c-4,1.8-8.7,3-11.6,6.3c-0.2,2.1-0.3,4.3-2.4,5.6
		c-1.6,0.7-3.8-0.1-4.7,2c0.5,1.9,0.2,4.2,1.5,5.8c2,0.3,5.8-1.1,6.5,2.1c0.7,0.3,1.7,0.3,1.7,1.4c0.7-0.4,0.5-1.1,0.5-1.7
		c2.7-4.8,6.5,0.1,9.7-3.4c1,0.4,2.4,0,3.1,1.3c1.7-2.2,3.9-1,5,1c-0.1,0.2,0.1,0.4,0.3,0.5c2-1,2.6-3.5,4.4-5.1
		c4-10.9-2.8-19.6-5.4-29.5c-0.9-3.2,1.5-5.5,3.5-7c2.7-0.5,3.7,2.6,5,4.1c0.8,1.4,1.3,3.1,1.5,4.7c0,4.5,2.6,8.3,1.9,12.8
		c1.1,7.8-0.9,15.7-4.4,22.3C98.4,70.1,98.2,70.5,89.1,71.8"/>
	<g id="Group-70" transform="translate(7.000000, 1.501000)">
		<path id="Fill-4" class="st0" d="M97.1,59.5c0.7-3.4,1.9-8.3,1.2-12.5h0.8C99,51.3,98.9,55.8,97.1,59.5"/>
		<path id="Fill-6" class="st0" d="M94.2,59c0.9-3.9,1.7-9.5,0.1-13.7c1.3,0.2,1,2.1,1.4,3.1C96,52.3,95.5,55.8,94.2,59"/>
		<path id="Fill-8" class="st2" d="M86.2,69.1l-4.5,0.4c0.8-2,3.7-3.7,4.7-5.9c5.5-9.6,0.2-21.4-3.5-30.6c-0.4-2.3-0.8-5.2,1.6-6.7
			c6.6,1.7,4.7,9.6,6.4,14.7C93.1,50.1,92.8,62,86.2,69.1"/>
		<path id="Fill-10" class="st3" d="M79.9,69.8c0,3.1-0.5,6.8-1.8,9.8c-1-0.2-1.6-2-2.5-2.5c0.4-3.5,2.5-7.1,1.2-10.6
			c0.8-0.7,1.4-1.8,2.8-1.4C80.9,66.1,80.6,68.5,79.9,69.8"/>
		<path id="Fill-12" class="st3" d="M71.9,43.1c-3.7,2.7-8.1,3.8-11.6,6.8c-0.2-2-0.6-4.3-2.9-5h-0.6c-0.7-2.3,1.7-4,2.1-6.2
			c0.9-4.9,3.1-10.4,7.7-12.9c2.7-1.4,6.8-1.3,9.2,0.7C80,32.6,75.1,38.4,71.9,43.1"/>
		<path id="Fill-14" class="st3" d="M73.3,78.8c-0.5,0.1-0.9,0.4-1.4,0.3c-1.7-1.5-0.5-4.1-0.1-5.8c-0.4-2.1-0.8-4.8,0.1-6.7
			c0.9-0.2,1.7-1.8,2.8-0.9l1.2,1.4C75.9,70.9,75.4,75.3,73.3,78.8"/>
		<path id="Fill-16" class="st0" d="M72.4,33.4c-1.6,0.4-3.1,1.1-4.4,2c0.9,1.1,2.6,0.9,3.1,2.5c-0.2,2.2-1.4,4.4-3.6,5.3
			c-0.3,0-0.6,0.1-0.8-0.3c1-1.1,3.4-2,3.5-3.9c0.6-1.7-1.5-1.8-2.2-2.8c-3.4,0.3-5.9,4-8,6.3c0.4-2.7,3.8-4.3,5.8-6.5
			c2.6-1.1,4.6-3.7,8-3.1C74.4,34,73.1,33.8,72.4,33.4"/>
		<path id="Fill-18" class="st3" d="M68.9,80.5c-1.2,0-1.7-1.4-2.3-2.2c-1.2-3.3-2.8-8.4,0.1-11.4c0.7-1,1.6-1.3,2.8-1.1
			C71.3,70.5,69.9,75.9,68.9,80.5"/>
		<path id="Fill-20" class="st2" d="M45.1,71.7c-2.6-3.3,1.9-4.3,3.5-6.2l3.6-5.6c0.2,2.7,1.2,5.1,2,7.5c2,0,4.8-0.4,6.5,1.3
			l1.7,2.2C56.7,71.1,50.8,71.1,45.1,71.7"/>
		<path id="Fill-22" class="st2" d="M55.8,42.6c-3.5-2.2,1.4-4.4,1.8-6.7c1.3-5.7,0.2-10.7-3.8-14.7c-2.1-1.8-5.1-2.3-7.8-1.6
			c-6.5,2.9-6.4,9.9-6.7,16h-0.9c0.5-4.8-0.5-9.6-3.8-13.1c-2.3-1.9-5-3.9-8.1-2.9c-4.2,1.7-6.4,6.1-7.4,10.1
			c0.5,4.5,2.6,8.7,6.8,11c-2.2,0.7-2.8,4.6-5.2,3.1c-3.6-8.7-4.8-20.2,2.4-27.6c2.9-1.8,5.9-4.5,9.4-4.3c-0.1,0.4,0.4,0.6,0.6,0.8
			c0.8,0.3,0.7-0.5,1.1-0.8c-1.5-2.8,0.2-5.7,1.6-8.1c2.9-2.1,6.5-2.2,9.5-0.1c2.2,2,3.1,4.8,2.3,7.7c-0.5,1.6-2,3.3-3.5,3.9
			c-2.1,1-4.4-0.1-5.6-1.8C38,11.9,38,9.8,39,8.4c1.3-0.1,2.5-1,3.9-0.3c0.6,0.9,1.2,2.2,0.6,3.3c-0.3,0.5-1,0.2-1.4,0.6
			c-0.9-0.5-0.4-1.5-1.4-2c-0.6,0.4-1.2,1.6-0.2,2.3c1,1.8,2.7,1.2,3.9,0.2c1.4-1.1,0.7-3.4,0.2-4.7c-1.5-1.3-3.4-2.2-5.4-1.3
			c-1.4,1.1-2.7,2.7-3,4.5c0.7,2.4,1.8,5.3,4.5,6c2.4,0.5,4-0.8,5.8-1.8c1.5-1.5,2.3-5.4,5.2-3.1c6,3,5.9,9.7,7.5,15.2
			C59.3,33.3,58.6,37.8,55.8,42.6"/>
		<path id="Fill-24" class="st3" d="M56.5,55.9c-2,1.4-5.6,1-6,4.3c-1.4,3.7-5.3,7.4-9.1,8.5c-5.9-0.7-11.5-3.1-15.1-8.4l0.9-1.1
			c-2-1-4.9-0.9-5.4-3.8c-0.2-3.2-1.3-8,1.8-10.6c2-1.8,3.9-3.8,6.3-4.6l0.6,0.5c0.6-1.6,2.1-2.6,3.8-3.4c5,0,11.1-1.1,13.7,4
			c0.8-1.5,2.8-0.9,3.9-0.6c1.6,0.6,2.8,2.3,3.4,3.8c-1.6,3.9,3.1,0.8,3.4,3.6C58.4,50.8,60.4,54.6,56.5,55.9"/>
		<path id="Fill-26" class="st4" d="M53.3,39.8c-2.3-2.2-5.6,0.3-7.6-3c-1.3-0.7-3-0.7-4.5-1c-0.5-5.3,0-11.4,4.6-14.6
			c2-1.1,4.8-0.5,6.7,0.5c4.1,3.1,4.6,8.4,3.5,13C54.9,36.4,55,38.4,53.3,39.8"/>
		<path id="Fill-28" class="st5" d="M56.8,53.4c-1.1-0.9-1.2-3.2-2.8-3.6c1-0.6,2,0.8,2.5,1.6C56.4,52.2,56.9,52.6,56.8,53.4"/>
		<path id="Fill-30" class="st0" d="M47.7,60.2c-2.1,2.3-4.2,4.6-7.2,4.9c-4.1-0.8-8.6-3.2-10.4-7.4l-5.6-3.8
			c-0.6,0.6,0.1,1.9-0.5,2.5h-0.3c0.3-2.2,0-5.5,3-6.7v1.1c-0.8-0.2-1.1,0.8-1.7,1.1c-0.1,3.4,3.8,3.1,5.6,4.7
			c2.8,0.5,5.9,0.2,8.3-0.9l0.2-7.8h0.5c0.2,2.7,0.5,5.1,0.4,8.1c4.3,1.7,9,0,12.6-2c1.2-0.5,1.3-2.9,2.8-2
			C53.2,56.1,47.9,55.3,47.7,60.2"/>
		<path id="Fill-32" class="st0" d="M48.7,33.4c-1.2,0.6-2.2-0.8-3.1-1.6c0.3-1.6,0.2-3.7,1.9-4.5c1.6,0.1,1.4,2,2,3
			C48.9,31.6,49.8,32.4,48.7,33.4"/>
		<path id="Fill-34" class="st4" d="M47,30.4c-0.6-0.6-0.1-1.5,0.6-2l0.8,1.7C48.1,30.7,47.5,30.3,47,30.4"/>
		<path id="Fill-36" class="st4" d="M44.6,61.6V58l3.4-0.6C47.3,59,46,60.8,44.6,61.6"/>
		<path id="Fill-38" class="st0" d="M45.2,44.6c-1.4,0.1-3.1-0.1-4.2,0.9l-0.5-1.1L39.9,45c2.4-1.1,4.2-5.2,7.2-2.9
			C47.8,43.7,45.8,43.8,45.2,44.6"/>
		<path id="Fill-40" class="st2" d="M43.3,43.8c0.2-1.1,1.3-1.1,2.2-1.1C45,43.7,44.3,43.8,43.3,43.8"/>
		<path id="Fill-42" class="st6" d="M40.6,72c0.4-1.7,2.3-0.3,3.1-0.6l0.3,0.3C42.7,71.5,41.9,72.3,40.6,72"/>
		<path id="Fill-44" class="st4" d="M42.2,63.6h-1.1c-0.3-2.1-1.3-4-1-6.4l3.4,0.5C43.1,59.7,44.7,63,42.2,63.6"/>
		<path id="Fill-46" class="st4" d="M39.4,63.7c-2.7-0.1-2.9-2.5-3.1-4.7c-0.1-0.7,0-1.6,0.8-1.7c2.4-0.6,1.7,2.5,2.3,3.9V63.7z"/>
		<path id="Fill-48" class="st0" d="M38.3,45.3c-2-0.3-4.4-1.4-6.4-2.7c0-0.8,0.4-1.4,1.1-2C35.7,40.3,37.8,42.9,38.3,45.3"/>
		<path id="Fill-50" class="st4" d="M36.7,35.6c-4.4-1-6,4.2-9.9,4c-2.7-1.8-5.3-3.9-6-7.2c-0.9-4.8,1.9-8.6,5.4-11.2
			c2.7-1,5.2,0.5,7.3,1.9C36.3,26.5,37.8,31.2,36.7,35.6"/>
		<path id="Fill-52" class="st2" d="M33.2,42.3V42c1.4-1,2.4,0.5,3.4,1.3C35.8,43.8,34.3,42.8,33.2,42.3"/>
		<path id="Fill-54" class="st4" d="M35.5,61.8c-1.8-1-3.3-2.2-4-4.1c1,0.5,2.3,0.2,3.4,0.2C34.7,59.3,35.8,60.2,35.5,61.8"/>
		<path id="Fill-56" class="st0" d="M32.8,35c-1.2-0.2-1.9-0.6-2.8-1.4c0.3-1.7,0.3-3.7,1.6-5c1.1-0.5,1.8,0.7,2.2,1.4
			C33.5,32.1,35,33.7,32.8,35"/>
		<path id="Fill-58" class="st4" d="M32,31.5v-1.7c0.3-0.4,0.9,0,1.1,0.6v1.1H32z"/>
		<path id="Fill-60" class="st3" d="M19.8,80.7c-2.8-3.8-2.2-10.3-0.2-14.2c0.2-0.5,1.1-0.8,1.7-0.3c4.8,3.4,0.5,8.6,0.7,12.8
			C21.3,79.5,20.8,80.6,19.8,80.7"/>
		<path id="Fill-62" class="st3" d="M20,50.8c-2.5,0.5-3.6-2.3-5.6-3c-4.7-1.3-10.3-2.3-12.6-7.6c-1.5-3.4-0.5-7.3,1.8-9.8
			c1.2-1.3,8.5-0.5,11.7,1.8c2.6,3.3,1.9,8.1,4,11.6C22.9,45.8,18.5,48,20,50.8"/>
		<path id="Fill-64" class="st0" d="M17.4,43.9c-1.3-2.4-1.8-5.5-4.8-6.6c-1.2,0.2-2.6,1-2.8,2.2c0,1.8,1,3.4,2.6,4.1
			c0.7-0.1,1.5,0.1,1.7,0.6c-2.1,1-3.9-1.5-4.8-3c-0.7-1.2,0.1-2.3,0.5-3.3l1.9-1.4c-2.2-1.3-4.7-1-7-0.2L4.5,36
			c2.1-1.3,5.3-1.4,7.8-0.1C15.1,37.4,17.6,40.8,17.4,43.9"/>
		<path id="Fill-66" class="st3" d="M15.1,80.7c-3.7-0.4-2-5-3.7-7.2c-0.3-2.6,1.1-5.2,3-7.3c1.9-0.2,1.6,2,2.8,2.7
			C15.2,72.7,19.2,78.3,15.1,80.7"/>
		<path id="Fill-68" class="st3" d="M11.2,77.4c0.2,1.1-0.1,2-0.8,2.8c-3,0.7-2.4-3-3.1-4.7c0.3-2.6-1-6.4,1-8.7
			c1-0.8,1.9,0.7,2.8,1.1C10.7,70.9,9.4,74.6,11.2,77.4"/>
	</g>
</g>
</svg>
