<?xml version="1.0" encoding="UTF-8"?>
<svg width="530px" height="532px" viewBox="0 0 530 532" version="1.1" xmlns="http://www.w3.org/2000/svg" xmlns:xlink="http://www.w3.org/1999/xlink">
    <!-- Generator: Sketch 44.1 (41455) - http://www.bohemiancoding.com/sketch -->
    <title>Group</title>
    <desc>Created with Sketch.</desc>
    <defs>
        <polygon id="path-1" points="0.738661648 530.196429 58.3150018 530.196429 58.3150018 0.344246429 0.738661648 0.344246429 0.738661648 530.196429"></polygon>
        <polygon id="path-3" points="0.115889189 530.196429 70.2990243 530.196429 70.2990243 0.344246429 0.115889189 0.344246429"></polygon>
        <polygon id="path-5" points="0.842000233 530.196429 45.1939702 530.196429 45.1939702 0.344246429 0.842000233 0.344246429 0.842000233 530.196429"></polygon>
        <polygon id="path-7" points="0.68880216 530.196429 51.586618 530.196429 51.586618 0.344246429 0.68880216 0.344246429"></polygon>
        <polygon id="path-9" points="76.7471982 516.785714 0 516.785714 0 258.41497 0 0.0442253407 76.7471982 0.0442253407 76.7471982 516.785714"></polygon>
        <polygon id="path-11" points="0.521276436 530.196429 34.8009159 530.196429 34.8009159 0.344246429 0.521276436 0.344246429"></polygon>
        <polygon id="path-13" points="67.1058261 0.343285714 0.0342585586 0.343285714 0.0342585586 312.328137 67.1058261 312.328137"></polygon>
    </defs>
    <g id="Page-1" stroke="none" stroke-width="1" fill="none" fill-rule="evenodd">
        <g id="Desktop-HD" transform="translate(-679.000000, -6067.000000)">
            <g id="Tour" transform="translate(-91.000000, 6067.000000)">
                <g id="tour-background">
                    <g id="Group" transform="translate(770.000000, 0.000000)">
                        <rect id="Rectangle-4" fill="#5B4571" x="0" y="0" width="530" height="532"></rect>
                        <g id="Page-1-Copy-12" opacity="0.0720108696">
                            <g id="Group-3" transform="translate(374.540541, 0.460286)">
                                <mask id="mask-2" fill="white">
                                    <use xlink:href="#path-1"></use>
                                </mask>
                                <g id="Clip-2"></g>
                                <path d="M27.5402541,0.344246429 C26.1621369,23.516675 22.7000378,48.4183893 18.8970108,73.6659607 C14.0567946,107.555157 9.22138018,142.145675 9.22138018,175.002104 C9.22138018,178.460675 8.87565045,186.761246 8.87565045,197.136961 C7.49273153,250.740014 4.38116396,372.140675 15.790245,373.869961 C41.0285153,378.020246 44.4858126,410.184961 47.5973802,440.620389 C48.9802991,453.417104 50.3584162,465.867961 53.4699838,475.551961 C54.5119748,479.005729 55.8900919,492.498961 56.9320829,507.716675 C57.6235423,514.979675 57.9692721,522.934389 58.3150018,530.197389 L51.4004072,530.197389 C51.0498757,522.934389 50.7089477,515.325532 50.0174883,508.062532 C48.9802991,493.190675 47.5973802,480.393961 46.9059207,477.627104 C43.4486234,467.592443 42.0609027,454.454675 40.6827856,441.312104 C37.9121459,413.297675 34.4548486,383.899818 14.7530559,380.787104 C-2.88396216,378.020246 0.578136937,252.128246 1.96105586,197.136961 C1.96105586,187.107104 2.30678559,179.493443 2.30678559,175.002104 C2.30678559,141.799818 7.1422,106.868246 11.987218,72.6283893 C15.790245,47.726675 19.2427405,23.1708179 20.6304613,0.344246429 L27.5402541,0.344246429 Z" id="Fill-1" fill="#FFFFFF" mask="url(#mask-2)"></path>
                            </g>
                            <g id="Group-6" transform="translate(391.945946, 0.460286)">
                                <mask id="mask-4" fill="white">
                                    <use xlink:href="#path-3"></use>
                                </mask>
                                <g id="Clip-5"></g>
                                <path d="M35.0297901,0.344246429 C33.6468712,20.0581036 28.1199973,38.7343893 22.9244477,57.410675 C16.3603847,80.5831036 9.79151982,104.101389 10.4829793,128.652443 C11.1744387,143.178443 10.1324477,164.275729 9.10006036,186.069532 C8.06287117,204.399961 7.02568198,223.076246 7.02568198,238.635014 L7.02568198,255.932675 C7.02568198,290.864246 7.02568198,308.157104 11.8658982,348.617586 C12.5573577,354.501961 15.6689252,357.268818 19.817682,361.073246 C27.423736,367.990389 37.4498982,377.323729 44.7102225,407.072246 C49.8961685,429.552961 56.8107631,459.291871 62.6929703,488.348675 C65.4540063,502.524014 67.8741144,516.708961 70.2990243,530.197389 L63.0338982,530.197389 C60.954718,517.054818 58.5394117,503.566389 55.7735739,489.7273 C49.8961685,460.334246 42.9815739,430.936389 37.7956279,408.801532 C31.2267631,381.128157 21.8968622,372.486532 15.3231955,366.261104 C9.79151982,361.4143 5.98849279,357.960532 4.9513036,349.659961 C0.115889189,308.848818 0.115889189,291.210104 0.115889189,255.932675 L0.115889189,238.635014 C0.115889189,223.4173 1.14827658,204.399961 2.18546577,185.723675 C3.22265495,164.275729 4.25984414,143.178443 3.56838468,129.003104 C2.87692523,103.063818 9.44579009,79.199675 16.3603847,55.6813893 C21.5415288,37.3509607 26.7274748,19.0205321 28.1199973,0.344246429 L35.0297901,0.344246429 Z" id="Fill-4" fill="#FFFFFF" mask="url(#mask-4)"></path>
                            </g>
                            <g id="Group-9" transform="translate(449.567568, 0.460286)">
                                <mask id="mask-6" fill="white">
                                    <use xlink:href="#path-5"></use>
                                </mask>
                                <g id="Clip-8"></g>
                                <path d="M45.172636,0.344246429 C45.513564,25.5918179 41.7105369,73.3201036 37.9075099,120.702532 C33.763555,171.197675 29.6147982,221.692818 30.6519874,244.519389 C30.9977171,256.278532 28.9233387,268.037675 25.4660414,279.450961 C21.3172847,291.555961 15.0941495,303.315104 7.83382523,312.653246 C4.37652793,317.490443 14.0569604,384.591532 22.3496721,442.349675 C27.8813477,480.739818 33.0672937,514.979675 33.0672937,525.701246 L33.0672937,530.197389 L26.1575009,530.197389 L26.1575009,525.701246 C26.1575009,515.325532 20.971555,481.431532 15.4398793,443.387246 C6.79663604,384.240871 -2.8885982,315.765961 2.29734775,308.502961 C9.21674414,299.510675 15.0941495,288.789104 18.8971766,277.375818 C22.3496721,266.649443 24.0783207,255.586818 23.7373928,244.519389 C22.7002036,221.692818 26.8489604,170.851818 30.9977171,120.010818 C34.8007441,72.2825321 38.6037712,24.2083893 38.2580414,0.344246429 L45.172636,0.344246429 Z" id="Fill-7" fill="#FFFFFF" mask="url(#mask-6)"></path>
                            </g>
                            <g id="Group-12" transform="translate(469.774775, 0.460286)">
                                <mask id="mask-8" fill="white">
                                    <use xlink:href="#path-7"></use>
                                </mask>
                                <g id="Clip-11"></g>
                                <path d="M51.586618,0.344246429 C49.5122396,12.4492464 47.4378613,26.6293893 45.7092126,41.1553893 C39.8318072,89.5753893 36.3745099,144.561871 36.3745099,166.696729 L36.3745099,189.528104 C37.0659694,238.293961 37.4116991,272.187961 9.06186126,317.149389 C3.18445586,326.487532 12.8648883,390.816961 21.8538613,448.229246 C27.0398072,482.118443 31.5294919,513.250389 32.5714829,530.197389 L25.6568883,530.197389 C24.6196991,513.9373 20.1204108,482.814961 14.9392667,449.266818 C5.95029369,390.816961 -4.08067027,324.758246 3.18445586,313.686014 C30.4923027,270.453871 30.146573,237.251586 29.4599153,189.873961 L29.4599153,166.696729 C29.4599153,144.220818 33.2629423,89.2247286 38.794618,40.1178179 C40.5232667,25.937675 42.597645,12.4492464 44.3262937,0.344246429 L51.586618,0.344246429 Z" id="Fill-10" fill="#FFFFFF" mask="url(#mask-8)"></path>
                            </g>
                            <path d="M529.656505,278.525416 C523.43337,294.434845 516.173046,306.885702 509.949911,317.607273 C501.998127,331.095702 495.774992,341.471416 495.429262,352.192988 C495.083532,360.839416 499.923749,388.507988 505.801154,419.289273 C512.72055,458.025273 520.667532,501.94913 519.976073,521.662988 C519.976073,524.429845 520.326605,527.542559 520.326605,530.655273 L513.407208,530.655273 C513.407208,527.542559 513.06628,524.429845 513.06628,521.31713 C513.752938,502.294988 505.801154,459.062845 498.886559,420.672702 C493.354884,389.199702 488.168938,361.53113 488.514668,351.84713 C488.860397,339.74213 495.429262,328.328845 503.726776,314.148702 C512.370019,299.622702 522.746713,281.983988 529.656505,256.736416 L529.656505,278.525416 Z" id="Fill-13" fill="#FFFFFF"></path>
                            <path d="M447.72096,0.804532143 C445.29605,25.3603893 439.072915,49.9162464 433.200312,72.7428179 C426.631447,97.9855857 420.754041,120.816961 421.445501,138.801532 C421.445501,144.681104 420.062582,156.094389 417.988204,170.274532 C414.185177,198.288961 408.648699,236.679104 414.871834,251.896818 C415.568095,253.6213 415.568095,261.926675 415.568095,273.335157 C415.568095,297.204104 415.568095,334.902532 418.333933,335.940104 C419.025393,336.285961 417.988204,333.860157 419.716852,329.714675 C423.519879,318.993104 424.897996,289.941104 426.285717,260.543246 C426.977177,246.363104 427.668636,231.837104 428.701023,219.732104 C430.429672,196.559675 433.891771,179.612675 441.838753,180.304389 L443.917933,180.645443 L444.609393,182.725389 C445.992312,186.183961 447.024699,197.597246 448.41242,210.389157 C450.141068,227.682014 452.215447,247.395871 452.215447,247.395871 C452.561177,247.395871 452.561177,239.445961 454.635555,218.002818 C456.018474,204.163729 456.705132,191.717675 457.401393,179.953729 C458.784312,158.169532 460.167231,137.4133 464.661717,108.711961 C468.464744,86.9229607 469.501933,63.7505321 470.884852,39.8863893 C471.91724,27.089675 472.613501,13.9423 473.645888,0.804532143 L480.565285,0.804532143 C479.528095,14.2929607 478.831834,27.4307286 477.799447,40.2322464 C476.416528,64.4422464 475.379339,87.614675 471.576312,109.749532 C466.736095,138.109818 465.694105,158.515389 464.311186,180.304389 C463.624528,192.058729 462.933068,204.514389 461.55015,218.694532 C458.784312,244.979675 455.327014,254.663675 451.523987,254.317818 C445.992312,253.6213 443.572204,231.145389 441.497825,211.085675 C440.806366,203.130961 440.114906,195.522104 439.072915,190.334246 C437.694798,195.522104 436.652807,206.935389 435.615618,220.423818 C434.583231,232.874675 433.891771,247.054818 433.200312,260.889104 C431.812591,290.628014 430.429672,320.371729 426.285717,332.135675 C422.82842,340.782104 419.371123,343.894818 415.913825,342.511389 C408.648699,339.744532 408.648699,298.933389 408.648699,273.335157 L408.648699,254.663675 C401.738906,237.711871 406.924852,198.288961 411.068807,169.236961 C413.147987,155.402675 414.530906,144.335246 414.530906,139.147389 C413.839447,120.120443 419.716852,96.6069607 426.285717,71.0135321 C432.163123,48.5328179 438.386258,24.668675 440.806366,0.804532143 L447.72096,0.804532143 Z" id="Fill-15" fill="#FFFFFF"></path>
                            <path d="M462.586378,0.804532143 C456.017514,27.4307286 441.496865,87.9605321 434.928,127.042389 C434.236541,132.230246 433.199351,137.072246 432.858423,141.568389 C431.475505,151.247586 426.284757,167.507675 435.278532,150.214818 C441.151135,139.493246 443.916973,118.395961 446.678009,97.298675 C449.794378,74.4673 452.901144,51.6455321 459.820541,38.5029607 C460.16627,38.1571036 460.16627,37.8112464 460.16627,37.8112464 C460.507198,37.4605857 460.507198,37.4605857 460.16627,37.1195321 L467.085667,36.4278179 C467.426595,37.4605857 467.426595,38.1571036 467.085667,39.194675 C466.735135,40.2322464 466.735135,40.9239607 466.048477,41.9615321 C459.820541,53.720675 456.704171,76.2013893 453.597405,97.9855857 C450.481036,120.120443 447.72,141.568389 441.496865,153.673389 C438.039568,159.898818 435.619459,163.352586 433.545081,164.736014 C426.976216,169.582818 424.556108,165.086675 424.556108,154.365104 C424.897036,147.793818 426.284757,137.763961 428.013405,126.004818 C434.58227,87.614675 448.757189,28.4731036 455.326054,0.804532143 L462.586378,0.804532143 Z" id="Fill-17" fill="#FFFFFF"></path>
                            <g id="Group-21" transform="translate(0.000000, 13.871000)">
                                <mask id="mask-10" fill="white">
                                    <use xlink:href="#path-9"></use>
                                </mask>
                                <g id="Clip-20"></g>
                                <path d="M0,515.056909 C16.935955,494.997195 24.8973423,424.09648 25.9249279,377.751623 C26.6211892,360.458766 26.9669189,346.278623 28.0041081,339.015623 C31.4614054,314.113909 32.1480631,287.137052 32.8443243,259.46848 C33.530982,231.454052 34.2272432,202.747909 37.6893423,175.079338 C39.0674595,165.395338 39.0674595,136.689195 38.7217297,105.907909 C38.376,64.0591946 38.0302703,18.7519089 41.4875676,9.75962321 C46.3277838,-1.6536625 50.126009,-2.34537679 53.5881081,4.22590893 C54.971027,7.33862321 56.0082162,13.5640518 56.6996757,21.1729089 C57.3911351,24.9773375 59.1197838,56.4503375 60.5027027,87.9233375 C62.2313514,121.47148 63.9551982,155.36548 63.9551982,158.132338 C62.9228108,180.958909 63.9551982,214.852909 64.9971892,247.709337 C65.6934505,270.190052 66.0343784,291.979052 66.0343784,308.926052 C66.0343784,340.399052 66.3801081,368.067623 67.0715676,395.390337 C67.7582252,422.713052 68.8002162,450.035766 70.8745946,480.817052 C71.2203243,484.62148 73.6404324,501.222623 76.7471982,516.786195 L69.4964775,516.786195 C66.7258378,501.222623 64.3057297,484.967337 63.9551982,481.162909 C61.8904234,450.72748 60.8484324,423.058909 60.1521712,395.390337 C59.4655135,367.375909 59.1197838,339.707337 59.1197838,308.926052 C59.1197838,291.287337 58.7740541,269.844195 58.0825946,247.709337 C57.0454054,214.852909 56.0082162,180.958909 57.0454054,158.132338 C57.0454054,155.36548 55.3167568,121.817338 53.929036,88.2691946 C52.2051892,56.7961946 50.4765405,26.0149089 50.126009,22.2104804 C43.5619459,-29.6680911 45.6363243,99.3366232 45.6363243,105.907909 C45.9820541,136.689195 45.9820541,165.741195 44.5991351,176.116909 C41.1418378,203.093766 40.4503784,231.799909 39.7541171,259.46848 C39.0674595,287.482909 38.0302703,314.805623 34.572973,339.707337 C33.8863153,346.970337 33.530982,360.804623 32.8443243,378.09748 C31.8071351,423.058909 24.542009,490.846909 7.26032432,516.786195 L0,516.786195 L0,515.056909 Z" id="Fill-19" fill="#FFFFFF" mask="url(#mask-10)"></path>
                            </g>
                            <path d="M63.6147505,0.804532143 C64.9976694,5.99238929 66.7215162,11.5213 68.8006964,17.0598179 C74.3323721,33.6561571 80.5555072,52.3372464 79.1677865,83.8102464 C78.1353991,108.366104 80.5555072,140.184961 83.321345,172.344871 C86.0871829,207.281246 88.8530207,242.899729 87.4701018,270.914157 C84.0128045,332.481532 90.5816694,414.449675 95.7676153,479.124961 C96.113345,483.962157 96.4590748,488.463104 96.8048045,492.959246 C97.8419937,505.410104 97.1457324,510.593157 97.496264,510.593157 C102.68221,510.252104 115.133282,360.150104 116.516201,344.932389 L116.516201,343.548961 C120.660156,307.579818 127.229021,269.189675 133.797886,230.799532 C141.744868,185.838104 149.350922,140.530818 153.85021,97.9855857 C155.92939,76.5472464 160.073345,61.6753893 164.222102,47.8411036 C168.370859,33.3151036 172.173886,20.1725321 172.519615,0.804532143 L179.43421,0.804532143 C179.08848,20.8642464 174.939723,34.6985321 170.790967,49.9162464 C166.64221,63.404675 162.493453,77.930675 160.419075,98.6821036 C156.270318,141.568389 148.323336,187.221532 140.71248,232.182961 C134.143615,270.227246 127.57475,308.271532 123.425994,344.240675 L123.425994,345.624104 C122.043075,361.533532 109.251075,516.823389 97.8419937,517.515104 C94.0389667,517.860961 91.2731288,510.943818 89.8902099,493.650961 C89.5444802,489.154818 89.1987505,484.312818 88.8530207,479.466014 C83.6670748,414.795532 77.1030117,332.827389 80.5555072,270.573104 C81.9384261,242.899729 79.1677865,207.627104 76.4067505,173.041389 C73.6409126,140.530818 71.2208045,108.366104 72.2579937,83.8102464 C73.6409126,53.3748179 67.4177775,35.0395857 62.2318315,19.1301571 C60.1526514,12.9095321 58.0830748,7.02515714 56.7001559,0.804532143 L63.6147505,0.804532143 Z" id="Fill-22" fill="#FFFFFF"></path>
                            <path d="M94.0384865,0.804532143 C107.867676,36.4278179 104.410378,110.095389 100.948279,178.920961 C98.1872432,234.258104 95.4214054,286.131871 102.336,311.384246 C103.027459,314.842818 100.607351,317.263818 101.99027,316.917961 C103.027459,316.5673 103.718919,284.407389 104.410378,261.580818 C104.751306,250.513389 105.10664,241.175246 105.447568,238.408389 C111.329775,200.3593 116.515721,163.011532 121.351135,126.004818 C127.228541,84.1561036 132.760216,42.9991036 139.329081,0.804532143 L146.584604,0.804532143 C139.674811,43.3449607 134.143135,84.8478179 128.26573,127.042389 C123.425514,163.703246 118.239568,200.709961 112.35736,239.445961 C112.016432,241.866961 111.670703,250.859246 111.329775,261.926675 C110.633514,286.823586 109.942054,321.755157 103.718919,323.489246 C100.607351,324.526818 97.8415135,321.414104 95.4214054,313.459389 C88.5068108,287.174246 91.2726486,234.603961 94.0384865,178.575104 C97.4957838,108.366104 101.298811,32.6233893 86.7781622,0.804532143 L94.0384865,0.804532143 Z" id="Fill-24" fill="#FFFFFF"></path>
                            <path d="M0,27.7804286 C23.1638919,30.5472857 27.6583784,44.7274286 27.6583784,66.5164286 C27.6583784,72.0501429 27.3126486,77.9297143 26.9669189,84.501 C26.6211892,91.764 26.2802613,99.7187143 26.2802613,108.365143 C26.2802613,140.184 24.8973423,172.348714 23.5096216,203.821714 C21.4352432,248.091429 19.7065946,292.015286 21.4352432,335.247429 C23.5096216,384.359143 20.3980541,419.982429 10.7128198,454.914 C7.95178378,465.289714 4.14875676,475.665429 0,486.387 L0,465.981429 C1.72864865,461.485286 2.76583784,457.335 4.14875676,452.838857 C13.4834595,418.944857 16.595027,384.013286 14.5158468,335.593286 C12.792,291.669429 14.5158468,247.745571 16.595027,203.821714 C17.9779459,172.348714 19.3608649,140.529857 19.3608649,108.365143 C19.3608649,100.064571 19.7065946,91.764 20.0523243,84.1551429 C20.3980541,77.9297143 20.738982,72.0501429 20.738982,66.5164286 C20.738982,49.2235714 17.2864865,37.8102857 0,35.0434286 L0,27.7804286 Z" id="Fill-26" fill="#FFFFFF"></path>
                            <path d="M164.569752,215.23452 C164.569752,215.23452 164.569752,215.580377 164.224023,215.926234 C164.91068,215.580377 165.60214,215.23452 164.569752,215.23452 L164.569752,215.23452 Z M109.248194,530.656234 C111.668302,521.663948 114.08841,513.709234 115.471329,510.942377 C121.353536,498.145662 126.539482,487.078234 125.156563,455.605234 C125.156563,454.91352 127.917599,434.507948 131.033968,410.643805 C135.523653,379.170805 140.363869,340.780662 141.40586,332.825948 C141.746788,332.134234 141.746788,331.788377 141.746788,331.096662 C143.475437,315.187234 155.575977,209.354948 163.873491,208.317377 C166.98986,207.97152 169.064239,210.738377 169.755698,217.309663 C171.830077,235.294234 169.755698,276.797091 167.676518,318.991662 C165.261212,367.75752 162.490572,417.560948 166.293599,432.778662 C168.713707,441.770948 168.713707,470.131234 168.713707,497.108091 L168.713707,530.656234 L161.799113,530.656234 L161.799113,497.108091 C161.799113,470.822948 161.799113,442.80852 159.729536,434.162091 C155.575977,418.252662 157.996086,367.75752 160.766725,318.645805 C162.841104,278.18052 164.91068,238.752805 163.182032,220.422377 C158.687545,241.173805 150.049104,318.645805 148.661383,331.788377 C148.320455,333.171805 148.320455,333.171805 148.320455,333.517662 C147.628995,340.434805 142.44305,379.170805 137.943761,411.33552 C134.836995,435.199662 132.066356,455.259377 132.066356,455.259377 C133.454077,488.461662 127.917599,500.220805 121.694464,513.709234 C120.657275,516.476091 118.582896,523.047377 116.51332,530.656234 L109.248194,530.656234 Z" id="Fill-28" fill="#FFFFFF"></path>
                            <g id="Group-32" transform="translate(166.261261, 0.460286)">
                                <mask id="mask-12" fill="white">
                                    <use xlink:href="#path-11"></use>
                                </mask>
                                <g id="Clip-31"></g>
                                <path d="M30.4579946,0.344246429 C28.3836162,20.7498179 24.9263189,49.7970143 21.4690216,77.8114429 C16.6288054,117.239157 11.4428595,153.904818 9.36848108,158.746818 C5.21972432,169.122532 9.02275135,176.039675 14.2086973,185.031961 C19.740373,195.402871 27.0006973,208.204389 27.0006973,230.339246 C27.0006973,274.2583 29.0798775,318.186961 30.8037243,362.110818 C33.2238324,418.139675 35.9896703,474.509586 34.2610216,530.197389 L27.346427,530.197389 C29.0798775,474.860246 26.6549676,418.485532 23.8891297,362.456675 C22.1604811,318.186961 20.0861027,273.917246 20.0861027,230.339246 C20.0861027,209.928871 13.5172378,198.174532 7.98556216,188.490532 C2.11295856,177.768961 -2.38632973,169.468389 2.79961622,155.975157 C4.53306667,151.829675 9.71901261,115.860532 14.554427,76.778675 C18.0117243,49.4559607 21.4690216,20.7498179 23.5434,0.344246429 L30.4579946,0.344246429 Z" id="Fill-30" fill="#FFFFFF" mask="url(#mask-12)"></path>
                            </g>
                            <path d="M242.70227,0.804532143 C242.006009,36.4278179 236.820063,65.4798179 231.984649,92.8025321 C228.181622,114.937389 224.724324,136.380532 223.687135,158.861246 C223.341405,170.620389 224.032865,176.845818 225.761514,179.266818 L225.415784,179.612675 C225.761514,179.266818 226.452973,178.920961 227.144432,177.883389 C230.596928,174.078961 233.713297,165.086675 234.399955,155.748532 C235.096216,147.102104 237.170595,134.997104 239.590703,121.854532 C243.048,101.790014 246.851027,79.3141036 246.164369,65.1339607 C245.809036,54.4123893 249.271135,36.0819607 252.387505,17.7467286 C253.419892,11.8719607 254.457081,6.33824643 255.49427,0.804532143 L262.408865,0.804532143 C261.717405,6.68410357 260.334486,12.9095321 259.297297,19.1301571 C256.190532,37.1195321 252.728432,54.7534429 253.074162,64.7833 C253.770423,80.0058179 249.967396,102.486532 246.164369,122.892104 C244.085189,136.034675 242.006009,148.139675 241.319351,156.094389 C240.62309,167.157014 236.479135,177.537532 232.330378,182.379532 C230.596928,184.449871 228.527351,185.838104 226.793901,186.183961 C224.032865,186.870871 221.612757,185.838104 219.884108,183.071246 C217.464,179.612675 216.081081,172.003818 216.777342,158.861246 C217.80973,135.342961 221.612757,113.895014 225.415784,91.7649607 C229.91027,64.7833 235.096216,36.0819607 235.441946,0.804532143 L242.70227,0.804532143 Z" id="Fill-36" fill="#FFFFFF"></path>
                            <path d="M238.899243,530.656234 C239.590703,524.430805 240.62309,518.551234 241.665081,511.979948 C244.085189,497.453948 246.851027,481.198662 246.164369,461.138948 C245.468108,433.470377 249.271135,397.847091 250.654054,362.569662 C252.032171,329.713234 250.308324,297.894377 253.419892,272.646805 C256.877189,244.28652 260.680216,232.873234 264.483243,233.564948 C274.509405,234.60252 270.360649,414.448234 269.669189,452.146662 L269.669189,458.717948 C270.010117,464.251662 272.089297,501.258377 273.813144,530.656234 L266.903351,530.656234 C265.174703,501.604234 263.100324,464.943377 262.754595,459.063805 L262.754595,452.146662 C263.446054,415.485805 267.249081,240.827948 263.791784,240.136234 C263.100324,240.136234 263.100324,250.166091 260.334486,273.684377 C257.222919,298.586091 258.951568,330.404948 257.568649,362.569662 C256.190532,397.847091 252.387505,433.470377 253.074162,460.793091 C253.770423,481.890377 251.004586,498.49152 248.584477,513.363377 C247.542486,519.242948 246.505297,524.776662 245.809036,530.656234 L238.899243,530.656234 Z" id="Fill-38" fill="#FFFFFF"></path>
                            <path d="M300.093886,0.804532143 C300.093886,7.02515714 298.365237,40.5781036 295.945129,79.3141036 C292.142102,139.147389 287.642814,211.431532 287.301886,212.123246 C280.387291,228.724389 286.610426,332.827389 291.445841,410.991104 C293.525021,447.997818 295.599399,479.124961 295.599399,493.305104 C295.599399,501.259818 295.599399,507.139389 295.945129,510.943818 C299.051895,501.259818 302.513994,484.312818 303.896913,476.012246 C305.279832,467.361014 304.934102,459.411104 304.242642,451.456389 C303.551183,437.622104 302.859723,423.096104 310.806705,401.3023 C317.380372,384.014246 320.832868,358.070157 324.635895,329.364014 C329.480913,293.049014 334.662057,252.242675 347.458859,218.002818 C356.102102,194.830389 362.666165,166.124246 367.165453,136.380532 C372.351399,102.486532 374.771507,67.5549607 374.425777,39.5405321 C374.425777,37.8112464 375.117237,19.826675 375.813498,0.804532143 L382.723291,0.804532143 C382.031832,19.826675 381.340372,37.8112464 381.340372,39.5405321 C381.6813,67.9008179 379.261192,103.178246 374.075246,137.4133 C369.585561,167.507675 363.016696,196.905532 354.022922,220.423818 C341.581453,253.971961 336.044976,294.432443 331.209561,330.406389 C327.406534,359.458389 323.949237,385.743532 317.380372,403.7233 C309.774318,424.128871 310.465777,437.967961 311.157237,451.110532 C311.848696,459.411104 312.194426,467.711675 310.806705,477.049818 C309.082859,486.383157 305.625561,505.064246 302.168264,515.0893 C300.785345,518.202014 299.748156,520.973675 298.365237,522.006443 C294.90794,525.469818 292.142102,524.778104 290.413453,518.893729 C289.381066,515.439961 288.684805,507.480443 288.684805,493.305104 C288.684805,479.124961 286.610426,447.997818 284.536048,411.336961 C279.695832,332.481532 273.472696,227.682014 281.07875,209.356389 C281.07875,209.356389 285.578039,138.455675 289.025732,78.9682464 C291.445841,40.5781036 293.184093,7.02515714 293.184093,0.804532143 L300.093886,0.804532143 Z" id="Fill-40" fill="#FFFFFF"></path>
                            <g id="Group-44" transform="translate(295.909910, 0.460286)">
                                <mask id="mask-14" fill="white">
                                    <use xlink:href="#path-13"></use>
                                </mask>
                                <g id="Clip-43"></g>
                                <path d="M5.2202045,305.042948 C4.52874505,305.734662 4.18301532,306.08052 4.87447477,305.388805 C4.87447477,305.388805 4.87447477,305.042948 5.2202045,305.042948 L5.2202045,305.042948 Z M29.0803577,0.342805357 C23.1981505,34.9285196 19.3951234,94.0700911 16.6292856,140.414948 C14.9006369,162.895662 13.8634477,182.263662 12.4805288,194.368662 C12.4805288,197.13552 7.29938468,253.510234 6.94885315,285.674948 C6.94885315,291.55452 6.94885315,296.39652 7.29938468,299.855091 C13.517718,282.216377 24.5810694,225.841662 34.9481595,164.624948 C45.329655,104.445805 55.3510153,39.0788054 60.1912315,0.342805357 L67.1058261,0.342805357 C62.2656099,39.4246625 52.2394477,105.13752 41.8675559,165.66252 C30.8042045,231.02952 19.0493937,290.862805 12.4805288,305.734662 C11.4433396,308.155662 10.0604207,309.884948 9.02323153,310.92252 C4.52874505,314.381091 1.76290721,311.268377 0.725718018,303.65952 C0.0342585586,299.509234 0.0342585586,293.283805 0.0342585586,285.674948 C0.379988288,252.81852 5.56593423,196.443805 5.91646577,193.676948 C6.94885315,181.917805 7.98604234,162.549805 9.71949279,140.069091 C12.4805288,94.0700911 16.2835559,35.6202339 22.1609613,0.342805357 L29.0803577,0.342805357 Z" id="Fill-42" fill="#FFFFFF" mask="url(#mask-14)"></path>
                            </g>
                            <path d="M321.528649,530.656234 C323.252495,508.521377 327.410856,468.056091 331.900541,426.899091 C338.464604,363.953091 346.075459,299.623662 347.112649,295.819234 L347.112649,295.473377 C347.458378,295.473377 347.458378,294.781662 347.458378,293.398234 C349.187027,279.218091 356.101622,222.49752 362.665685,222.49752 C366.127784,222.49752 368.547892,231.489805 368.547892,255.699805 C368.547892,268.150662 368.206964,279.909805 367.851631,290.631377 C367.164973,316.91652 366.819243,338.359662 370.968,371.561948 C373.04718,389.892377 376.850207,391.621662 380.653234,393.005091 C387.908757,396.117805 395.514811,399.576377 398.972108,445.22952 C399.317838,449.033948 400.700757,458.717948 402.775135,470.822948 C405.881901,489.499234 409.684928,513.709234 411.067847,530.656234 L404.158054,530.656234 C402.775135,514.400948 398.972108,490.536805 395.855739,471.86052 C393.786162,459.75552 392.403243,449.725662 392.057514,445.575377 C388.945946,404.418377 383.068541,401.65152 377.877793,399.576377 C372.009991,397.155377 366.819243,394.734377 364.048604,372.59952 C359.904649,338.70552 360.245577,316.91652 360.941838,290.631377 C361.287568,280.255662 361.633297,269.188234 361.633297,255.699805 C361.633297,236.331805 363.361946,229.414662 362.665685,229.414662 C362.324757,229.414662 356.101622,281.293234 354.372973,294.089948 C354.027243,296.165091 354.027243,297.54852 353.681514,297.894377 C352.639523,301.352948 345.384,365.33652 338.819937,427.590805 C334.320649,468.401948 330.171892,508.867234 328.438441,530.656234 L321.528649,530.656234 Z" id="Fill-45" fill="#FFFFFF"></path>
                            <g id="Group-49" transform="translate(334.324324, 402.960286)" fill="#FFFFFF">
                                <path d="M43.554909,63.0216232 C42.8634495,62.6757661 43.554909,63.3674804 44.2511703,64.0591946 C43.9054405,63.3674804 43.9054405,63.0216232 43.554909,63.0216232 L43.554909,63.0216232 Z M0.689224324,127.696909 C1.38068378,120.779766 2.41787297,112.479195 3.45026036,103.141052 C8.29527838,63.0216232 14.8593414,8.37619464 23.8483144,1.80490893 C26.6189541,-0.616091071 29.7257198,0.0756232143 32.1458279,3.53419464 C35.948855,8.37619464 35.2573955,28.7817661 34.9116658,47.4580518 C34.2250081,63.0216232 33.8792784,77.2017661 33.8792784,77.5476232 C34.5707378,77.5476232 34.5707378,73.0514804 38.0280351,63.3674804 C40.1024135,57.4879089 42.5225216,55.4127661 45.6340892,56.4503375 C51.8572243,58.5254804 54.6230622,86.5399089 57.0431703,111.78748 C57.3889,117.321195 58.0755577,122.854909 58.4260892,127.696909 L51.5114946,127.696909 C51.1609631,122.854909 50.8200351,117.667052 50.1285757,112.479195 C48.399927,93.1111946 46.3255486,72.3597661 44.5969,65.4426232 C39.4109541,79.9686232 35.2573955,85.1564804 31.8049,83.7730518 C26.6189541,82.0437661 27.3056117,65.4426232 28.001873,47.1121946 C28.3428009,30.5110518 29.0390622,12.8723375 26.9646838,8.37619464 C21.0824766,17.0226232 14.8593414,66.8260518 10.3696568,103.832766 C9.33246757,112.825052 8.29527838,120.779766 7.60381892,127.696909 L0.689224324,127.696909 Z" id="Fill-47"></path>
                            </g>
                            <path d="M23.5072207,530.656234 C29.0388964,507.829662 32.150464,481.198662 32.5009955,463.214091 C33.192455,443.154377 34.2248423,422.402948 39.4155901,398.538805 L40.1070495,396.80952 L41.4851667,396.117805 C45.2881937,394.734377 47.7083018,396.463663 49.787482,400.959805 C54.6228964,413.064805 54.9734279,458.026234 55.3143559,495.724662 C55.6600856,508.867234 55.6600856,520.972234 55.6600856,530.656234 L49.0912207,530.656234 C48.7502928,520.626377 48.7502928,508.867234 48.4045631,495.724662 C48.4045631,462.868234 48.0540315,424.132234 44.601536,408.222805 C40.798509,427.936663 40.1070495,446.267091 39.4155901,463.214091 C39.0650586,481.54452 36.3040225,507.483805 30.7723468,530.656234 L23.5072207,530.656234 Z" id="Fill-50" fill="#FFFFFF"></path>
                        </g>
                    </g>
                </g>
            </g>
        </g>
    </g>
</svg>